<svg xmlns="http://www.w3.org/2000/svg" width="270" height="70.018"><defs><clipPath id="a"><path data-name="Rectangle 25435" fill="#fff" d="M0 0h77.559v70.018H0z"/></clipPath></defs><g data-name="Group 30825" fill="#fff"><g data-name="Group 22820"><g data-name="Group 22819" clip-path="url(#a)"><path data-name="Path 15423" d="M54.945 28.522s2.222 3.687 5.862 4.775 4.869 1.714 5.188 2.068c0 0-3.1.832-7.484 4.355a27.94 27.94 0 00-2.042 1.819 22.4 22.4 0 01-17.5 5.857s7.86-.2 13.515-5.4 6.447-6.071 7.794-7a12.413 12.413 0 01-5.33-6.473"/><path data-name="Path 15424" d="M52.422 45.773s-2.063 3.779-1.165 7.47.977 5.069.832 5.523c0 0-2.282-2.257-7.536-4.264-.852-.325-1.721-.6-2.6-.845a22.4 22.4 0 01-13.889-12.158s4.139 6.685 11.482 8.944 8.494 2.5 9.976 3.2a12.413 12.413 0 012.9-7.868"/><path data-name="Path 15425" d="M36.369 52.174s-4.3.1-7.056 2.716-3.906 3.375-4.372 3.476c0 0 .818-3.1-.063-8.659-.143-.9-.334-1.793-.564-2.675a22.4 22.4 0 013.61-18.1s-3.729 6.92-2.021 14.411 2.063 8.611 2.2 10.24a12.413 12.413 0 018.266-1.411"/><path data-name="Path 15426" d="M22.591 41.415s-2.212-3.693-5.849-4.791-4.865-1.727-5.183-2.082c0 0 3.1-.823 7.5-4.335a28.144 28.144 0 002.047-1.813 22.4 22.4 0 0117.52-5.809s-7.86.179-13.529 5.364-6.464 6.052-7.813 6.979a12.413 12.413 0 015.307 6.487"/><path data-name="Path 15427" d="M25.095 24.245s2.063-3.779 1.166-7.47-.976-5.069-.831-5.523c0 0 2.282 2.257 7.536 4.265.852.326 1.721.6 2.6.846a22.4 22.4 0 0113.887 12.159s-4.138-6.685-11.481-8.945-8.494-2.5-9.976-3.2a12.412 12.412 0 01-2.9 7.868"/><path data-name="Path 15428" d="M41.264 17.702s4.3-.085 7.063-2.7 3.915-3.364 4.382-3.464c0 0-.827 3.1.038 8.659.14.9.329 1.794.557 2.677a22.4 22.4 0 01-3.661 18.091s3.749-6.911 2.066-14.407-2.042-8.617-2.175-10.248a12.413 12.413 0 01-8.269 1.388"/><path data-name="Path 15429" d="M29.254 4.379l9.525 3.14 9.525-3.14s2.617 6.149.863 11.933c0 0-.1-6.28-1.753-8.374l-8.635 2.931-8.636-2.931c-1.648 2.093-1.754 8.374-1.754 8.374-1.753-5.783.864-11.933.864-11.933"/><path data-name="Path 15430" d="M27.99 0l10.79 3.314L49.57 0s2.233 3.28 1.326 10.641a61.7 61.7 0 00-1.954-7.78L38.78 6.21 28.618 2.861a61.687 61.687 0 00-1.955 7.781C25.756 3.28 27.989.001 27.989.001"/><path data-name="Path 15431" d="M4.434 30.788l7.422-6.746 1.955-9.837s6.641.749 10.812 5.122c0 0-5.518-3-8.152-2.6l-1.7 8.959-6.8 6.074c1.011 2.466 6.426 5.648 6.426 5.648-5.9-1.321-9.962-6.625-9.962-6.625"/><path data-name="Path 15432" d="M0 29.735l8.2-7.761 2.422-11.027s3.954-.329 9.916 4.084a61.7 61.7 0 00-7.734-2.129l-2.087 10.494-7.918 7.2a61.707 61.707 0 005.811 5.531C1.756 33.293 0 29.735 0 29.735"/><path data-name="Path 15433" d="M27.516 65.776l-5.635-8.3-9.464-3.319s1.675-6.47 6.591-9.984c0 0-3.746 5.042-3.716 7.706l8.632 2.942 5.057 7.588c2.583-.654 6.5-5.568 6.5-5.568-2.136 5.653-7.96 8.931-7.96 8.931"/><path data-name="Path 15434" d="M25.849 70.017l-6.531-9.206L8.745 56.86s.23-3.961 5.438-9.243a61.7 61.7 0 00-3.2 7.358l10.1 3.541 6.012 8.851a61.7 61.7 0 006.293-4.976c-3.769 6.389-7.539 7.626-7.539 7.626"/><path data-name="Path 15435" d="M50.042 65.776l5.635-8.3 9.464-3.319s-1.675-6.47-6.591-9.984c0 0 3.746 5.042 3.716 7.706l-8.632 2.942-5.057 7.588c-2.583-.654-6.5-5.568-6.5-5.568 2.137 5.653 7.96 8.931 7.96 8.931"/><path data-name="Path 15436" d="M51.709 70.017l6.532-9.205 10.573-3.952s-.23-3.961-5.438-9.243a61.7 61.7 0 013.2 7.358l-10.1 3.541-6.012 8.851a61.7 61.7 0 01-6.293-4.976c3.77 6.388 7.539 7.626 7.539 7.626"/><path data-name="Path 15437" d="M73.125 30.788l-7.422-6.746-1.955-9.837s-6.641.749-10.812 5.122c0 0 5.518-3 8.152-2.6l1.7 8.959 6.8 6.074c-1.011 2.466-6.426 5.648-6.426 5.648 5.9-1.321 9.962-6.625 9.962-6.625"/><path data-name="Path 15438" d="M77.559 29.735l-8.2-7.761-2.422-11.027s-3.954-.329-9.916 4.084a61.7 61.7 0 017.734-2.129l2.087 10.494 7.918 7.2a61.709 61.709 0 01-5.811 5.531c6.855-2.834 8.611-6.392 8.611-6.392"/></g><path data-name="Union 3" d="M30.815 26.276a3.653 3.653 0 00.626 2.016 5.7 5.7 0 001.706 1.645 9.024 9.024 0 002.531 1.111 11.709 11.709 0 003.1.408 11.7 11.7 0 003.1-.408 9 9 0 002.532-1.111 5.721 5.721 0 001.707-1.648 3.656 3.656 0 00.626-2.013 3.459 3.459 0 00-.072-.7 4.77 4.77 0 01-2.631 2.954 11.419 11.419 0 01-5.262 1.198 11.429 11.429 0 01-5.263-1.2 4.765 4.765 0 01-2.629-2.952 3.468 3.468 0 00-.071.7zm16.338 3.618a5.726 5.726 0 00-2.281.656 9.036 9.036 0 00-2.228 1.636 11.994 11.994 0 00-3.1 5.369 9.024 9.024 0 00-.3 2.747 5.694 5.694 0 00.573 2.3 3.651 3.651 0 001.433 1.55 3.373 3.373 0 00.639.287 4.774 4.774 0 01-1.244-3.755 11.451 11.451 0 011.6-5.156 11.433 11.433 0 013.66-3.952 4.758 4.758 0 013.873-.8 3.489 3.489 0 00-.568-.41 3.6 3.6 0 00-1.83-.473 2.46 2.46 0 00-.227.001zm-18.808.467a3.476 3.476 0 00-.567.41 4.767 4.767 0 013.872.805 11.408 11.408 0 013.668 3.955 11.417 11.417 0 011.6 5.156 4.764 4.764 0 01-1.245 3.755 3.467 3.467 0 00.64-.287 3.67 3.67 0 001.434-1.551 5.743 5.743 0 00.573-2.3 9.022 9.022 0 00-.3-2.747 11.707 11.707 0 00-1.2-2.888 11.674 11.674 0 00-1.9-2.481 8.948 8.948 0 00-2.236-1.638 5.716 5.716 0 00-2.279-.656c-.077 0-.154-.005-.23-.005a3.6 3.6 0 00-1.83.472z"/></g><path data-name="Path 33391" d="M128.246 48.711l9.021-33.614c.2-.7-.252-1.272-1.009-.9l-1.625.9-31.264 24.01H83.787c-2.213 0-2.549.739-1.989 3.283l2.661 12.19c.448 2.093 1.289 1.478 3.138.041l17.425-13.667h22.5l-2.661 9.727c-.28 1.026.168 1.272 1.037.9l18.462-7.716a2.506 2.506 0 001.373-2.216zm-21.011-9.6l26.474-20.809-5.687 20.809zm-6.3 1.847L87.068 51.424c-.644.493-1.065.616-1.345-.246l-2.942-9.235c-.2-.616 0-.985.616-.985zm52.919-2.791a25.394 25.394 0 006.751-7.306l6.583-.041-4.342 7.675c-2.829 2.175-9.3 5.13-12.691 6.238zm8.8-14.981a30.016 30.016 0 01-2.1 5.623l-1.485.041.644-1.067c1.737-3.119 2.773-4.761 2.773-4.761.218-.415.302-.291.162.16zm12.018 0a29.61 29.61 0 01-2.1 5.582h-1.4l.56-.985c1.737-3.119 2.773-4.761 2.773-4.761.217-.415.301-.291.161.16zM155.7 34.838s.952-1.642 2.269-3.981l1.261-.041a18.029 18.029 0 01-3.53 4.022zm12.018 0s.952-1.642 2.269-3.981h1.261a17.828 17.828 0 01-3.53 3.981zM146.007 47.11c-.476.862.028 1.149.812.821a95.682 95.682 0 0014.568-6.854l-3.362 6.033c-.476.862.028 1.149.812.821l9.721-4.1a2.47 2.47 0 001.345-2.175l-7.732 3.078 3.7-6.567a25.194 25.194 0 006.751-7.265l16.248.369a2.726 2.726 0 002.717-2.545h-17.733a29.329 29.329 0 002.157-6.69c.392-2.093.308-3.242-.336-3.242-.616 0-1.653.534-3.39 3.242a101.075 101.075 0 00-4.062 6.731l-6.387.041a30.072 30.072 0 002.157-6.772c.392-2.093.308-3.242-.336-3.242-.616 0-1.653.534-3.39 3.242-1.625 2.5-2.605 4.186-4.118 6.9l-3 .041c-1.429 0-1.709 1.6-1.709 1.6l3.726.205-4.342 7.716a37.777 37.777 0 01-7.984 4.392 2.384 2.384 0 00-1.373 2.216 35.3 35.3 0 007.9-4.022zm48.857-5.463l-7.732 3.119 2.773-4.884c.392-.7 0-1.231-.784-.9l-4.846 1.97c-.392-.739-1.429-2.052-4.286-2.052-2.717 0-4.426.369-11.4 3.242l-1.709.739a2.506 2.506 0 00-1.373 2.216l3.194-1.231a35.461 35.461 0 004.4-1.97 7.474 7.474 0 00-2.829 5.212c0 .862.476 1.149 1.737.657l13.727-5.541-2.717 4.843c-.476.862-.084 1.231.784.862l9.693-4.1a2.459 2.459 0 001.368-2.182zm-12.1-.164a72.914 72.914 0 01-7.256 3c-1.261.451-1.373.328-1.233-.205.364-1.478 2.661-3.653 5.715-3.653 1.875 0 2.408.493 2.772.862zm12.158 5.623c-.476.862.028 1.149.812.821l8.516-3.571c-.224 2.545.868 3.858 2.661 3.858 3.334 0 7.872-2.422 12.1-4.392a2.436 2.436 0 001.346-2.175c-4.4 1.888-9.609 4.556-12.1 4.556-1.681 0-1.289-2.093-1.177-2.914l5.631-2.545a1.984 1.984 0 001.373-2.586c-2.353.9-7 3.16-7 3.16s-.7-.246-1.653-.493c-.924-.246-1.093 1.929-1.093 1.929l-5.267 1.97 3.7-6.567c5.295-4.433 10.926-11.492 12.635-20.521.392-2.093.308-3.242-.308-3.242-.644 0-1.653 1.067-3.418 3.776-2.893 4.477-6.03 9.896-11.94 20.321a37.776 37.776 0 01-7.984 4.392 2.384 2.384 0 00-1.373 2.216 35.3 35.3 0 007.9-4.022zm19.162-28.319a34.522 34.522 0 01-9.469 16.048s4.37-7.634 6.5-11.451c1.765-3.119 2.773-4.8 2.773-4.8.222-.368.306-.245.194.206zm31.318 22.86l-7.732 3.119 2.77-4.88c.392-.7 0-1.231-.784-.9l-4.847 1.97c-.392-.739-1.429-2.052-4.286-2.052-2.717 0-4.426.369-11.4 3.242l-1.709.739a2.506 2.506 0 00-1.374 2.214l3.194-1.231a35.461 35.461 0 004.4-1.97 7.474 7.474 0 00-2.829 5.212c0 .862.476 1.149 1.737.657l13.727-5.541-2.717 4.843c-.476.862-.084 1.231.784.862l9.693-4.1a2.459 2.459 0 001.373-2.184zm-12.1-.164a72.914 72.914 0 01-7.256 3c-1.261.451-1.373.328-1.233-.205.364-1.478 2.661-3.653 5.715-3.653 1.876 0 2.412.493 2.772.862zm36.7.164l-7.732 3.119 2.3-4.063c.868-1.56.532-2.052-1.317-1.519a85.416 85.416 0 00-13.671 5.541l2.745-4.8c.392-.7.112-1.272-.756-.9l-9.273 3.858a2.506 2.506 0 00-1.373 2.216l7.284-2.873-2.745 4.884c-.5.9-.28 1.354.756.862a111.223 111.223 0 0113.839-5.664c.616-.205.756 0 .308.821l-2.213 3.981c-.392.657-.112 1.231.756.862l9.721-4.1a2.506 2.506 0 001.368-2.225z"/></g></svg>