<svg xmlns="http://www.w3.org/2000/svg" width="427.531" height="396.059"><defs><clipPath id="a"><path data-name="Rectangle 25435" fill="#00c2e8" d="M0 0h307.513v277.613H0z"/></clipPath></defs><g data-name="Group 30819" fill="#00c2e8"><g data-name="Group 22820"><g data-name="Group 22819" clip-path="url(#a)" transform="translate(60.009)"><path data-name="Path 15423" d="M217.85 113.084s8.81 14.62 23.242 18.931 19.307 6.794 20.571 8.2c0 0-12.293 3.3-29.672 17.269a112.237 112.237 0 00-8.1 7.212c-6.381 6.245-30.255 26.439-69.4 23.223 0 0 31.162-.8 53.584-21.414s25.562-24.069 30.9-27.756a49.218 49.218 0 01-21.133-25.664"/><path data-name="Path 15424" d="M207.849 181.483s-8.179 14.982-4.619 29.618 3.874 20.1 3.3 21.9c0 0-9.05-8.949-29.88-16.907a109.89 109.89 0 00-10.31-3.351c-8.612-2.359-38.093-12.783-55.065-48.2 0 0 16.409 26.5 45.524 35.461s33.677 9.927 39.555 12.679a49.216 49.216 0 0111.5-31.2"/><path data-name="Path 15425" d="M144.2 206.861s-17.066.384-27.976 10.77-15.486 13.381-17.334 13.781c0 0 3.242-12.307-.25-34.33a111.3 111.3 0 00-2.238-10.608c-2.251-8.64-7.921-39.393 14.314-71.769 0 0-14.786 27.441-8.029 57.143s8.194 34.141 8.74 40.609a49.216 49.216 0 0132.772-5.6"/><path data-name="Path 15426" d="M89.59 164.193s-8.77-14.644-23.191-19-19.288-6.847-20.548-8.257c0 0 12.3-3.264 29.719-17.187a111.347 111.347 0 008.116-7.189c6.4-6.227 30.328-26.356 69.464-23.033 0 0-31.164.711-53.642 21.268s-25.629 24-30.98 27.671a49.217 49.217 0 0121.062 25.727"/><path data-name="Path 15427" d="M99.499 96.131s8.18-14.982 4.621-29.618-3.871-20.1-3.3-21.9c0 0 9.05 8.95 29.878 16.909 3.378 1.291 6.823 2.4 10.31 3.353 8.612 2.359 38.092 12.786 55.062 48.208 0 0-16.408-26.5-45.52-35.465s-33.674-9.924-39.552-12.681a49.214 49.214 0 01-11.5 31.194"/><path data-name="Path 15428" d="M163.606 70.184s17.066-.335 28.006-10.69 15.524-13.338 17.374-13.733c0 0-3.279 12.3.151 34.33a111.245 111.245 0 002.207 10.615c2.227 8.646 7.809 39.414-14.517 71.729 0 0 14.863-27.4 8.19-57.121s-8.1-34.164-8.625-40.633a49.217 49.217 0 01-32.787 5.5"/><path data-name="Path 15429" d="M115.991 17.362l37.767 12.451 37.765-12.451s10.376 24.382 3.424 47.312c0 0-.415-24.9-6.951-33.2l-34.238 11.62-34.24-11.62c-6.536 8.3-6.951 33.2-6.951 33.2-6.952-22.93 3.424-47.312 3.424-47.312"/><path data-name="Path 15430" d="M110.975 0l42.781 13.142L196.537.001s8.853 13 5.257 42.192c0 0-4.566-23.656-7.747-30.849l-40.29 13.28-40.292-13.282c-3.182 7.193-7.746 30.849-7.746 30.849-3.6-29.188 5.257-42.192 5.257-42.192"/><path data-name="Path 15431" d="M17.581 122.078l29.428-26.745 7.752-39s26.331 2.97 42.867 20.308c0 0-21.878-11.9-32.321-10.291l-6.739 35.523L31.6 125.949c4.007 9.776 25.479 22.394 25.479 22.394-23.381-5.236-39.5-26.269-39.5-26.269"/><path data-name="Path 15432" d="M0 117.896l32.5-30.77 9.619-43.708s15.678-1.306 39.315 16.193c0 0-22.838-7.671-30.666-8.442l-8.276 41.607L11.1 121.31c4.7 6.31 23.041 21.929 23.041 21.929C6.961 132.001 0 117.896 0 117.896"/><path data-name="Path 15433" d="M109.101 260.795l-22.342-32.9-37.525-13.155s6.643-25.651 26.133-39.587c0 0-14.852 19.99-14.734 30.554l34.223 11.666 20.052 30.087c10.242-2.594 25.753-22.078 25.753-22.078-8.471 22.413-31.561 35.412-31.561 35.412"/><path data-name="Path 15434" d="M102.49 277.613l-25.9-36.5-41.917-15.67s.911-15.705 21.561-36.647c0 0-10.806 21.533-12.67 29.175l40.032 14.04 23.837 35.093c6.908-3.762 24.95-19.728 24.95-19.728-14.946 25.328-29.893 30.237-29.893 30.237"/><path data-name="Path 15435" d="M198.412 260.795l22.342-32.9 37.525-13.155s-6.642-25.651-26.133-39.587c0 0 14.853 19.99 14.734 30.554l-34.224 11.666-20.052 30.087c-10.242-2.594-25.753-22.078-25.753-22.078 8.471 22.413 31.561 35.412 31.561 35.412"/><path data-name="Path 15436" d="M205.022 277.613l25.9-36.5 41.921-15.669s-.915-15.706-21.564-36.648c0 0 10.806 21.533 12.67 29.175l-40.032 14.04-23.838 35.093c-6.908-3.762-24.95-19.728-24.95-19.728 14.947 25.329 29.893 30.237 29.893 30.237"/><path data-name="Path 15437" d="M289.933 122.078l-29.428-26.749-7.752-39s-26.331 2.97-42.867 20.308c0 0 21.878-11.9 32.321-10.291l6.739 35.523 26.969 24.083c-4.007 9.776-25.479 22.394-25.479 22.394 23.381-5.236 39.5-26.269 39.5-26.269"/><path data-name="Path 15438" d="M307.512 117.896l-32.5-30.77-9.619-43.708s-15.678-1.306-39.315 16.193c0 0 22.838-7.671 30.666-8.442l8.273 41.609 31.393 28.534c-4.7 6.31-23.041 21.929-23.041 21.929 27.179-11.238 34.14-25.345 34.14-25.345"/></g><path data-name="Union 3" d="M182.189 104.169a14.5 14.5 0 002.48 8 22.6 22.6 0 006.766 6.533 35.745 35.745 0 0010.037 4.4 46.368 46.368 0 0012.291 1.617 46.332 46.332 0 0012.285-1.614 35.658 35.658 0 0010.039-4.4 22.7 22.7 0 006.768-6.533 14.5 14.5 0 002.482-8 13.7 13.7 0 00-.281-2.767c-1.012 4.521-4.719 8.68-10.43 11.713a45.277 45.277 0 01-20.863 4.746 45.311 45.311 0 01-20.867-4.746c-5.715-3.029-9.416-7.192-10.426-11.713a13.767 13.767 0 00-.281 2.764zm64.777 14.359a22.685 22.685 0 00-9.043 2.6 35.825 35.825 0 00-8.832 6.49 47.545 47.545 0 00-12.289 21.287 35.758 35.758 0 00-1.2 10.893 22.572 22.572 0 002.273 9.125 14.487 14.487 0 005.68 6.146 13.489 13.489 0 002.532 1.136c-3.41-3.139-5.158-8.428-4.934-14.889a45.414 45.414 0 016.326-20.441 45.329 45.329 0 0114.541-15.7c5.486-3.436 10.941-4.561 15.363-3.17a13.744 13.744 0 00-2.254-1.625 14.278 14.278 0 00-7.252-1.875c-.301 0-.604.007-.911.023zm-74.57 1.852a13.763 13.763 0 00-2.248 1.625c4.418-1.383 9.873-.258 15.354 3.174a45.242 45.242 0 0114.546 15.697 45.265 45.265 0 016.324 20.441c.23 6.465-1.521 11.754-4.934 14.889a13.729 13.729 0 002.537-1.139 14.545 14.545 0 005.686-6.15 22.756 22.756 0 002.273-9.125 35.753 35.753 0 00-1.21-10.887 46.431 46.431 0 00-4.746-11.455 46.262 46.262 0 00-7.547-9.834 35.506 35.506 0 00-8.832-6.49 22.642 22.642 0 00-9.037-2.6 17.436 17.436 0 00-.91-.023 14.275 14.275 0 00-7.256 1.877z"/></g><path data-name="Path 33391" d="M105.921 379.669l20.466-76.263c.445-1.583-.572-2.887-2.288-2.049l-3.686 2.049-70.933 54.478H5.052c-5.021 0-5.784 1.676-4.513 7.449l6.038 27.656c1.017 4.749 2.924 3.352 7.119.093l39.534-31.008h51.038l-6.038 22.069c-.636 2.328.381 2.887 2.352 2.049l41.885-17.506c3.114-1.3 3.114-5.028 3.114-5.028zm-47.669-21.785l60.063-47.215-12.9 47.21zm-14.3 4.19L12.49 385.819c-1.462 1.117-2.415 1.4-3.051-.559l-6.674-20.951c-.445-1.4 0-2.235 1.4-2.235zm120.062-6.331a57.613 57.613 0 0015.318-16.574l14.936-.093-9.851 17.412c-6.419 4.935-21.1 11.64-28.792 14.154zm19.958-33.988a68.092 68.092 0 01-4.767 12.757l-3.369.093 1.462-2.421c3.941-7.077 6.292-10.8 6.292-10.8.509-.933.7-.653.382.371zm27.267 0a67.18 67.18 0 01-4.767 12.664h-3.178l1.271-2.235c3.941-7.077 6.292-10.8 6.292-10.8.509-.933.7-.653.382.371zm-43.03 26.445s2.161-3.725 5.148-9.032l2.86-.093a40.9 40.9 0 01-8.008 9.125zm27.267 0s2.161-3.724 5.148-9.031h2.856a40.449 40.449 0 01-8 9.031zm-49.258 27.842c-1.081 1.955.064 2.607 1.843 1.862 0 0 19.767-7.263 33.051-15.551l-7.632 13.689c-1.081 1.955.064 2.607 1.843 1.862l22.057-9.311c3.051-1.3 3.051-4.935 3.051-4.935l-17.542 6.984 8.39-14.9a57.159 57.159 0 0015.32-16.481l36.864.838c5.657.093 6.165-5.773 6.165-5.773h-40.232a66.54 66.54 0 004.894-15.178c.89-4.749.7-7.356-.763-7.356-1.4 0-3.75 1.211-7.691 7.356-3.686 5.68-5.784 9.121-9.216 15.271l-14.491.093a68.224 68.224 0 004.894-15.364c.89-4.749.7-7.356-.763-7.356-1.4 0-3.75 1.211-7.691 7.356-3.686 5.68-5.911 9.5-9.343 15.644l-6.8.093c-3.242 0-3.877 3.632-3.877 3.632l8.453.466-9.852 17.505a85.707 85.707 0 01-18.114 9.964c-3.242 1.3-3.114 5.028-3.114 5.028 6.864-2.7 13.665-5.866 17.924-9.125zm110.847-12.384l-17.542 7.077 6.292-11.081c.89-1.583 0-2.794-1.78-2.049l-11 4.47c-.885-1.676-3.237-4.656-9.72-4.656-6.165 0-10.042.838-25.869 7.356l-3.877 1.676c-3.114 1.3-3.114 5.028-3.114 5.028l7.246-2.794a80.454 80.454 0 009.979-4.469c-5.148 4.47-6.419 9.5-6.419 11.826 0 1.955 1.081 2.607 3.941 1.49l31.143-12.571-6.165 10.988c-1.081 1.955-.191 2.794 1.78 1.955l21.99-9.311c3.115-1.304 3.115-4.935 3.115-4.935zm-27.458-.372s-4.449 2.328-16.462 6.8c-2.86 1.024-3.114.745-2.8-.466.826-3.352 6.038-8.287 12.966-8.287 4.262-.003 5.469 1.114 6.296 1.952zm27.585 12.756c-1.081 1.955.064 2.607 1.843 1.862l19.322-8.1c-.508 5.773 1.97 8.753 6.038 8.753 7.564 0 17.86-5.494 27.458-9.964a5.528 5.528 0 003.051-4.935c-9.979 4.283-21.8 10.336-27.458 10.336-3.814 0-2.924-4.749-2.669-6.611l12.775-5.774c4.7-1.955 3.114-5.866 3.114-5.866-5.339 2.049-15.89 7.17-15.89 7.17s-1.589-.559-3.75-1.117c-2.1-.559-2.479 4.377-2.479 4.377l-11.949 4.47 8.39-14.9c12.013-10.057 24.792-26.074 28.666-46.559.89-4.749.7-7.356-.7-7.356-1.462 0-3.75 2.421-7.754 8.567-6.546 10.149-13.665 22.441-27.076 46.093a85.707 85.707 0 01-18.114 9.963c-3.242 1.3-3.114 5.028-3.114 5.028 6.864-2.7 13.665-5.866 17.924-9.125zm43.474-64.251A78.322 78.322 0 01279.18 348.2s9.915-17.32 14.746-25.98c4-7.077 6.292-10.895 6.292-10.895.512-.837.703-.556.448.466zm71.059 51.866l-17.545 7.078 6.3-11.081c.89-1.583 0-2.794-1.78-2.049l-11 4.47c-.89-1.676-3.242-4.656-9.725-4.656-6.165 0-10.042.838-25.869 7.356l-3.877 1.676c-3.114 1.3-3.114 5.028-3.114 5.028l7.246-2.794a80.454 80.454 0 009.979-4.47c-5.148 4.47-6.419 9.5-6.419 11.826 0 1.955 1.081 2.607 3.941 1.49l31.144-12.571-6.166 10.989c-1.081 1.955-.191 2.794 1.78 1.955l21.991-9.312c3.114-1.303 3.114-4.934 3.114-4.934zm-27.458-.372s-4.449 2.328-16.462 6.8c-2.86 1.024-3.114.745-2.8-.466.826-3.352 6.038-8.287 12.966-8.287 4.263-.002 5.471 1.115 6.297 1.953zm83.262.372l-17.542 7.077 5.212-9.219c1.97-3.538 1.208-4.656-2.987-3.445a193.792 193.792 0 00-31.017 12.571l6.229-10.895c.89-1.583.254-2.887-1.716-2.049l-21.038 8.754c-3.114 1.3-3.114 5.028-3.114 5.028l16.524-6.518-6.229 11.081c-1.144 2.049-.636 3.073 1.716 1.955 15.572-7.263 24.28-10.615 31.4-12.85 1.4-.466 1.716 0 .7 1.862l-5.021 9.032c-.89 1.49-.254 2.794 1.716 1.955l22.055-9.312c3.113-1.302 3.113-5.026 3.113-5.026z"/></g></svg>