<svg xmlns="http://www.w3.org/2000/svg" width="28" height="28"><defs><clipPath id="a"><path data-name="Rectangle 25182" fill="#fff" d="M0 0h28v28H0z"/></clipPath></defs><g data-name="Group 21422"><g data-name="Group 30843" fill="#fff" clip-path="url(#a)"><path data-name="Path 33351" d="M14 2.523c3.738 0 4.181.014 5.657.082a7.745 7.745 0 012.6.482 4.338 4.338 0 011.61 1.047 4.338 4.338 0 011.047 1.61 7.746 7.746 0 01.482 2.6c.067 1.476.082 1.919.082 5.657s-.014 4.181-.082 5.657a7.746 7.746 0 01-.482 2.6 4.636 4.636 0 01-2.657 2.657 7.746 7.746 0 01-2.6.482c-1.476.067-1.919.082-5.657.082s-4.181-.014-5.657-.082a7.746 7.746 0 01-2.6-.482 4.339 4.339 0 01-1.61-1.047 4.338 4.338 0 01-1.047-1.61 7.748 7.748 0 01-.482-2.6c-.067-1.476-.082-1.919-.082-5.657s.014-4.181.082-5.657a7.748 7.748 0 01.482-2.6 4.338 4.338 0 011.047-1.61 4.339 4.339 0 011.61-1.047 7.746 7.746 0 012.6-.482c1.476-.067 1.919-.082 5.657-.082M14 0c-3.8 0-4.28.016-5.773.084a10.277 10.277 0 00-3.4.651A6.863 6.863 0 002.349 2.35 6.863 6.863 0 00.734 4.829a10.276 10.276 0 00-.651 3.4C.015 9.721 0 10.2 0 14s.016 4.279.084 5.772a10.276 10.276 0 00.651 3.4 6.863 6.863 0 001.615 2.48 6.863 6.863 0 002.48 1.615 10.277 10.277 0 003.4.651C9.72 27.984 10.2 28 14 28s4.279-.016 5.772-.084a10.277 10.277 0 003.4-.651 7.159 7.159 0 004.094-4.095 10.276 10.276 0 00.651-3.4C27.983 18.279 28 17.8 28 14s-.016-4.279-.084-5.772a10.276 10.276 0 00-.651-3.4 6.864 6.864 0 00-1.615-2.48A6.863 6.863 0 0023.17.735a10.277 10.277 0 00-3.4-.651C18.278.016 17.8 0 14 0"/><path data-name="Path 33352" d="M14 6.81a7.189 7.189 0 107.189 7.189A7.189 7.189 0 0014 6.81m0 11.856a4.667 4.667 0 114.667-4.667A4.667 4.667 0 0114 18.666"/><path data-name="Path 33353" d="M23.153 6.526a1.68 1.68 0 11-1.68-1.68 1.68 1.68 0 011.68 1.68"/></g></g></svg>