<svg xmlns="http://www.w3.org/2000/svg" width="268.654" height="27.133"><path data-name="Path 50266" d="M0 21.934a2.354 2.354 0 01.758-1.692 3.466 3.466 0 011.679-.691 14.258 14.258 0 012.22-.162 18.767 18.767 0 00.934-2.478q.447-1.449.867-3.1t.812-3.371q.393-1.72.745-3.331t.677-2.938q.325-1.327.623-2.193-1.381.027-2.451.108t-2.017.217q-.948.135-1.95.325A2.679 2.679 0 014.603.678a11.693 11.693 0 014.306-.6q1.435 0 2.979.108t2.843.244q1.3.135 2.031.244a4.1 4.1 0 01-1.733 1.07 5.928 5.928 0 01-1.408.2h-1.584q-.691 0-1.34.027-.19.921-.42 2.248t-.514 2.843q-.284 1.516-.555 3.033t-.542 2.83q-.271 1.313-.487 2.18a17.924 17.924 0 01-.839 2.573 5.185 5.185 0 01-1.11 1.76q1.435.108 2.9.271t3.222.217a5.053 5.053 0 01-2.058 1.259 6.543 6.543 0 01-1.6.257q-1.814 0-3.019.014t-2.1.054q-.894.041-1.72.149T0 21.934zm16-1.137a2.655 2.655 0 01-1.923-.7 2.843 2.843 0 01-.731-2.139 11.607 11.607 0 01.42-2.762 34.146 34.146 0 011.07-3.412 3.807 3.807 0 00-.447-.095 2 2 0 01-.5-.149v-.839q.433.054.718.081l.582.054q.569-1.435 1.232-2.776a27.2 27.2 0 011.327-2.4 10.052 10.052 0 011.259-1.665 1.628 1.628 0 011.056-.609.793.793 0 01.515.2.715.715 0 01.244.582 3.588 3.588 0 01-.555 1.544q-.555 1-1.368 2.342t-1.571 2.857h.839q1.191 0 2.153-.041t1.963-.149v.899q-1.489.135-2.735.217t-2.383.108h-.325a25.718 25.718 0 00-.988 2.721 9.418 9.418 0 00-.42 2.721 2.652 2.652 0 00.352 1.571 1.309 1.309 0 001.11.46 4.3 4.3 0 002.776-1.232 10.66 10.66 0 002.478-3.344l.379.271a12.953 12.953 0 01-1.747 2.9 8.822 8.822 0 01-2.261 2.044 4.767 4.767 0 01-2.515.74zM26.182 3.954a1.4 1.4 0 01-.582-.528 1.327 1.327 0 01-.176-.663 3.313 3.313 0 01.244-1.178 3.922 3.922 0 01.636-1.11 1.1 1.1 0 01.826-.474.828.828 0 01.6.271 1.083 1.083 0 01.3.731 7.728 7.728 0 00-1.11 1.435 7.142 7.142 0 00-.734 1.516zm2.275 16.979a3.844 3.844 0 01-2.18-.555 3.107 3.107 0 01-1.178-1.408 4.539 4.539 0 01-.352-1.747 2.778 2.778 0 01.217-1.219 1.53 1.53 0 01.542-.636 3.548 3.548 0 01.609-.311 1.2 1.2 0 00.42-.244 19.542 19.542 0 001.395-1.638 10.467 10.467 0 001.232-2.072v-.271a2.453 2.453 0 01.366-1.53 1.079 1.079 0 01.853-.447.615.615 0 01.474.162.672.672 0 01.176.379 1.3 1.3 0 01-.068.379 2.076 2.076 0 00-.068.6 5.35 5.35 0 00.393 1.855q.393 1.043.785 2.207a7.41 7.41 0 01.393 2.383q0 .325-.027.6a4.382 4.382 0 01-.081.515 4.05 4.05 0 001.652-.934 7.31 7.31 0 001.544-2.126l.325.244a5.973 5.973 0 01-1.489 2.478 4.227 4.227 0 01-2.275 1.151 3.1 3.1 0 01-1.422 1.652 4.572 4.572 0 01-2.233.532zm-.19-1.191A1.919 1.919 0 0030 18.686a5.546 5.546 0 01-2-.867 5.979 5.979 0 01-1.381-1.273q-.379.081-.379.731a3.009 3.009 0 00.514 1.679 1.7 1.7 0 001.517.785zm1.95-1.868a2.027 2.027 0 00.068-.447q.014-.257.014-.393a10.907 10.907 0 00-.325-2.41q-.3-1.191-.6-2.437-.487.839-1.137 1.814a11.677 11.677 0 01-1.219 1.571 5.013 5.013 0 001.273 1.381 5.136 5.136 0 001.929.919zm20.743 2.221a2.25 2.25 0 01-1.611-.528 1.77 1.77 0 01-.555-1.34 3.879 3.879 0 01.19-1.151q.19-.609.379-1.232a4.09 4.09 0 00.19-1.191.9.9 0 00-.948-1.056 2.732 2.732 0 00-1.665.663 9.955 9.955 0 00-1.65 1.66q-.8 1-1.5 2.085t-1.219 1.95a2.706 2.706 0 01-.975-.176 1.76 1.76 0 01-.785-.609 7.643 7.643 0 01.311-.826q.284-.691.636-1.652a21.107 21.107 0 00.623-2.017 7.8 7.8 0 00.271-1.923 2.161 2.161 0 01.582-.433 1.685 1.685 0 01.826-.217q.948 0 .948.812a5.594 5.594 0 01-.122.961q-.122.636-.338 1.449a16.114 16.114 0 011.544-1.787 8.6 8.6 0 011.747-1.368 3.6 3.6 0 011.828-.528 1.962 1.962 0 011.72.785 2.936 2.936 0 01.555 1.733 4.189 4.189 0 01-.271 1.516q-.271.7-.528 1.327a3.179 3.179 0 00-.257 1.219.773.773 0 00.2.609.667.667 0 00.447.176 2.092 2.092 0 001.354-.623 7.977 7.977 0 001.34-1.584 18.489 18.489 0 001.124-1.936l.46.379a15.741 15.741 0 01-1.286 2.424 6.9 6.9 0 01-1.6 1.76 3.183 3.183 0 01-1.962.667zm5.47.325a1.738 1.738 0 01-1.665-.8 3.518 3.518 0 01-.447-1.747 6.184 6.184 0 01.271-1.774 7.305 7.305 0 01.745-1.692 4.793 4.793 0 011.056-1.259 1.861 1.861 0 011.178-.474 1.792 1.792 0 01.447.068.673.673 0 01.366.2 7.709 7.709 0 00-.663 1 12.575 12.575 0 00-.623 1.259 8.343 8.343 0 00-.447 1.34 5.369 5.369 0 00-.162 1.246 1.769 1.769 0 00.2.894.758.758 0 00.718.352 2.117 2.117 0 001.232-.582 10.61 10.61 0 001.367-1.34 4.729 4.729 0 01-1.246-1.72 6.015 6.015 0 01-.379-2.261 3.648 3.648 0 01.284-1.3 3.162 3.162 0 01.921-1.273 2.566 2.566 0 011.72-.542 1.9 1.9 0 011.638.65 2.549 2.549 0 01.474 1.544 5.839 5.839 0 01-.528 2.248 14.716 14.716 0 01-1.259 2.356 1.675 1.675 0 00.758.162 3.169 3.169 0 00.975-.19 3.484 3.484 0 001.11-.636 3.119 3.119 0 00.867-1.205l.487.352a4.358 4.358 0 01-1.579 2.024 3.572 3.572 0 01-1.936.636 3.72 3.72 0 01-.7-.068 4.251 4.251 0 01-.65-.176 10.579 10.579 0 01-2.112 1.9 4.243 4.243 0 01-2.415.808zm4.28-4.172a11.611 11.611 0 001.11-2.031 5.158 5.158 0 00.46-2 1.677 1.677 0 00-.19-.907.638.638 0 00-.569-.284q-.514 0-1.056.731a3.01 3.01 0 00-.542 1.841 5.853 5.853 0 00.2 1.381 3.209 3.209 0 00.587 1.269zm6.472 4.549a2.655 2.655 0 01-1.923-.7 2.843 2.843 0 01-.731-2.139 11.607 11.607 0 01.42-2.762 34.15 34.15 0 011.07-3.412 3.808 3.808 0 00-.447-.095 2 2 0 01-.5-.149v-.839q.433.054.718.081l.582.054q.569-1.435 1.232-2.776a27.2 27.2 0 011.327-2.4 10.051 10.051 0 011.259-1.665 1.628 1.628 0 011.056-.609.793.793 0 01.515.2.715.715 0 01.244.582 3.588 3.588 0 01-.555 1.544q-.555 1-1.367 2.342t-1.572 2.859h.839q1.191 0 2.153-.041t1.963-.149v.897q-1.489.135-2.735.217t-2.383.108h-.325a25.718 25.718 0 00-.988 2.721 9.418 9.418 0 00-.42 2.721 2.652 2.652 0 00.352 1.571 1.309 1.309 0 001.11.46 4.3 4.3 0 002.776-1.232 10.66 10.66 0 002.478-3.344l.379.271a12.953 12.953 0 01-1.747 2.9 8.822 8.822 0 01-2.261 2.044 4.767 4.767 0 01-2.517.74zm20.255-.217a1.2 1.2 0 01-1.232-.8 6.082 6.082 0 01-.366-1.909q.027-.325.041-.894t.041-.948q-.569 1.029-1.246 2.031a8.211 8.211 0 01-1.435 1.652 2.425 2.425 0 01-1.6.65 1.8 1.8 0 01-1.516-.826 3.311 3.311 0 01-.6-1.99 7.6 7.6 0 01.257-1.814 15.263 15.263 0 01.65-2 9.7 9.7 0 01.812-1.625q.42-.65.745-.65a1.965 1.965 0 01.663.217.975.975 0 01.582.569 9.952 9.952 0 00-.718 1.327 14.452 14.452 0 00-.731 1.909 6.377 6.377 0 00-.311 1.855q0 .162.041.555a1.767 1.767 0 00.23.718.617.617 0 00.569.325 1.812 1.812 0 001.259-.731 12.189 12.189 0 001.34-1.841q.677-1.11 1.273-2.275.244-1.164.406-1.679a1.388 1.388 0 01.339-.65.668.668 0 01.42-.135 1.357 1.357 0 01.8.2.672.672 0 01.284.582 1.918 1.918 0 01-.054.23 1.765 1.765 0 01-.081.257 12.908 12.908 0 00-.3 1.368q-.135.8-.217 1.706t-.072 1.827a4.926 4.926 0 00.081 1.015.4.4 0 00.406.366 1.413 1.413 0 00.88-.46 8.4 8.4 0 001.056-1.219 18.987 18.987 0 001.083-1.665q.528-.907.961-1.828a8.507 8.507 0 01.2-2.139 2.01 2.01 0 01.542-1.015 1.132 1.132 0 01.745-.284 1 1 0 01.934.433 1.516 1.516 0 01.257.731.971.971 0 01-.135.5 3.765 3.765 0 00-.217.42 7.742 7.742 0 00-.366.975 4.938 4.938 0 00-.176 1.435 4.756 4.756 0 00.095.934 1.652 1.652 0 00.352.772.93.93 0 00.745.3 1.526 1.526 0 00.988-.433 5.437 5.437 0 001.1-1.625l.514.406a4.383 4.383 0 01-1.354 1.936 2.573 2.573 0 01-1.462.528 2.021 2.021 0 01-1.516-.65 4.578 4.578 0 01-.975-1.6q-.677 1.164-1.5 2.315a10.154 10.154 0 01-1.72 1.9 2.8 2.8 0 01-1.789.741zm11.346-.162a2.216 2.216 0 01-1.841-.745 2.833 2.833 0 01-.6-1.828 6.84 6.84 0 01.5-2.627 9.325 9.325 0 011.273-2.207 9.878 9.878 0 011.672-1.691 9.061 9.061 0 011.692-1.083 3.248 3.248 0 011.313-.379 1.877 1.877 0 01.379.054.493.493 0 01.352.271.625.625 0 01.176-.081.736.736 0 01.2-.027 1.016 1.016 0 01.988.433 1.989 1.989 0 01.23.948 2.717 2.717 0 01-.257 1.056q-.257.6-.514 1.313a4.838 4.838 0 00-.257 1.638.929.929 0 00.948 1 2.955 2.955 0 001.733-.474 3.671 3.671 0 001.11-1.259 9.561 9.561 0 00.731-1.72q.3-.934.569-1.855a1.04 1.04 0 01-.244-.677 2.144 2.144 0 01.244-1.043 2.371 2.371 0 01.555-.7.9.9 0 01.5-.257q.433 0 .515.325a2.256 2.256 0 01.081.515 1.554 1.554 0 01-.149.487 1.553 1.553 0 00-.149.487q0 .271.447.555t1.015.663a4.255 4.255 0 011.015.961 2.309 2.309 0 01.447 1.449 4.346 4.346 0 01-.325 1.625q-.325.812-.65 1.516a3 3 0 00-.325 1.219q0 .406.2.528a.9.9 0 00.474.122 2.667 2.667 0 001.313-.393 6.816 6.816 0 001.34-1.015 10.551 10.551 0 001.164-1.313 6.365 6.365 0 00.758-1.259l.542.379a11.782 11.782 0 01-1.435 2.3 8.882 8.882 0 01-2.017 1.9 4.129 4.129 0 01-2.342.758 2.44 2.44 0 01-1.638-.542 1.733 1.733 0 01-.636-1.381 4.389 4.389 0 01.352-1.652q.352-.867.7-1.679a3.733 3.733 0 00.352-1.462 1.533 1.533 0 00-.46-1.151 4.234 4.234 0 00-.975-.718q-.325.975-.718 2a9.454 9.454 0 01-.961 1.882 4.556 4.556 0 01-1.435 1.381 4.1 4.1 0 01-2.166.528 3.431 3.431 0 01-.8-.108 7.171 7.171 0 01-.745-.217 6.8 6.8 0 01-1.909 2.342 3.84 3.84 0 01-2.33.91zm.514-1.354a1.711 1.711 0 00.88-.352 5.77 5.77 0 001.056-.934 4.832 4.832 0 00.826-1.232 3.771 3.771 0 01-.569-2.275 5.3 5.3 0 01.095-.867 9.619 9.619 0 01.271-1.124 4.4 4.4 0 01.42-.988q-.542.515-1.1 1.151a16.434 16.434 0 00-1.043 1.327 14.488 14.488 0 00-.867 1.381 7.947 7.947 0 00-.6 1.354 4.059 4.059 0 00-.217 1.259 1.663 1.663 0 00.23 1.015.745.745 0 00.621.285zm26.132 1.516a2.158 2.158 0 01-1.462-.542 4.017 4.017 0 01-1-1.354 8.067 8.067 0 01-.569-1.665 6.946 6.946 0 01-.19-1.476q.379-.081.948-.244a7.482 7.482 0 001.164-.447 3.252 3.252 0 00.988-.7 1.433 1.433 0 00.393-1.015 1.037 1.037 0 00-.311-.785 1.222 1.222 0 00-.88-.3 2.373 2.373 0 00-1.435.5 5.854 5.854 0 00-1.259 1.313 12.979 12.979 0 00-1.056 1.76q-.474.948-.839 1.841t-.611 1.544a3.382 3.382 0 01-.569 1.1 1.034 1.034 0 01-.785.284 1.183 1.183 0 01-.447-.108.918.918 0 01-.433-.542 3.951 3.951 0 01-.176-1.381 16.1 16.1 0 01.46-3.629 31.847 31.847 0 011.232-4.021q.772-2.044 1.692-3.913a35.465 35.465 0 011.868-3.358 15.571 15.571 0 011.774-2.356q.826-.867 1.368-.867a.9.9 0 01.772.555 2.884 2.884 0 01.311 1.422 6.073 6.073 0 01-.406 2.044 11.234 11.234 0 01-1.151 2.275 13.309 13.309 0 01-1.774 2.18 11.281 11.281 0 01-2.275 1.76 21.739 21.739 0 00-1.679 6.526q.487-1.11 1.11-2.275a17.177 17.177 0 011.381-2.18 7.41 7.41 0 011.638-1.638 3.2 3.2 0 011.882-.623 2.691 2.691 0 011.9.758 2.485 2.485 0 01.812 1.9 2.329 2.329 0 01-.434 1.397 3.731 3.731 0 01-1.07.988 5.25 5.25 0 01-1.286.582 5.162 5.162 0 01-1.11.217q.081.352.23.894a6.473 6.473 0 00.393 1.056 2.8 2.8 0 00.623.867 1.27 1.27 0 00.894.352 2.164 2.164 0 001.395-.623 8.29 8.29 0 001.408-1.652 14.314 14.314 0 001.232-2.275l.379.46a11.9 11.9 0 01-1.259 2.6 8.147 8.147 0 01-1.774 2.017 3.2 3.2 0 01-2.005.777zm-3.872-11.969A15.837 15.837 0 00123.101 7a11.629 11.629 0 001.395-2.058 4.761 4.761 0 00.609-2.1v-.081a2.92 2.92 0 00-.853.934 23.2 23.2 0 00-1.286 2.1q-.703 1.273-1.407 2.816zm17.006 11.752a2.21 2.21 0 01-1.787-.7 2.553 2.553 0 01-.6-1.706 7.315 7.315 0 01.217-1.571 15.412 15.412 0 01.609-1.99 14.477 14.477 0 01.907-1.963 6.562 6.562 0 011.11-1.5 1.732 1.732 0 011.191-.582.9.9 0 01.569.19.708.708 0 01.244.6 2.407 2.407 0 01-.42 1.056l-.975 1.625a15.2 15.2 0 00-.975 1.909 4.817 4.817 0 00-.42 1.882 1.567 1.567 0 00.311 1.151 1.3 1.3 0 00.907.284 3.216 3.216 0 002-.921 10.522 10.522 0 002.259-3.233l.406.433a9.8 9.8 0 01-2.41 3.71 4.6 4.6 0 01-3.141 1.327zm3.2-12.213a1.752 1.752 0 01-.934-.257.87.87 0 01-.42-.8 1.321 1.321 0 01.7-1.11 2.635 2.635 0 011.462-.46 1.5 1.5 0 01.826.217.86.86 0 01.338.785 1.471 1.471 0 01-.623 1.1 2.052 2.052 0 01-1.352.526zm1.219 18.983a1.807 1.807 0 01-.718-.19 1.663 1.663 0 01-.731-.745 3.5 3.5 0 01-.311-1.665 15.642 15.642 0 01.393-3.046q.393-1.882 1.083-4.17t1.625-4.7q.934-2.41 2-4.644a36.735 36.735 0 012.221-4.021 14.837 14.837 0 012.288-2.843 3.313 3.313 0 012.193-1.056.936.936 0 01.921.42 2.066 2.066 0 01.217.961 6.136 6.136 0 01-.636 2.545 15.067 15.067 0 01-1.692 2.776 21.66 21.66 0 01-2.369 2.64 18.651 18.651 0 01-2.694 2.139l-.217.542-.217.542a.933.933 0 01.474.379 1.239 1.239 0 01.2.569q.217 1.164.433 2.072a3.31 3.31 0 00.663 1.422 1.611 1.611 0 001.286.515 2.352 2.352 0 001.679-.7 9.509 9.509 0 001.489-1.977l.6.433a6.917 6.917 0 01-1.95 2.532 3.414 3.414 0 01-1.95.8 2.713 2.713 0 01-.961-.19 3.788 3.788 0 01-.961-.542 16.4 16.4 0 01-.393 3.317 14.286 14.286 0 01-.988 2.965 7.816 7.816 0 01-1.395 2.126 2.226 2.226 0 01-1.585.794zm.758-1.679q.3 0 .636-.515a7.28 7.28 0 00.663-1.354 18 18 0 00.6-1.855q.271-1.015.433-2a11.181 11.181 0 00.162-1.8 5.032 5.032 0 00-.176-1.395 6.408 6.408 0 00-.609-1.368q-.623 1.868-1.11 3.6t-.758 3.155a13.093 13.093 0 00-.271 2.369q-.006 1.164.427 1.164zm3.818-15.814a28.236 28.236 0 002.816-3.006 18.327 18.327 0 001.774-2.586 4.139 4.139 0 00.609-1.584.191.191 0 00-.217-.217q-.65 0-1.489.988a15.2 15.2 0 00-1.733 2.667q-.896 1.68-1.763 3.738zm13.594 10.723a2.21 2.21 0 01-1.787-.7 2.553 2.553 0 01-.6-1.706 7.314 7.314 0 01.217-1.571 15.412 15.412 0 01.609-1.99 14.477 14.477 0 01.907-1.963 6.56 6.56 0 011.11-1.5 1.732 1.732 0 011.191-.582.9.9 0 01.569.19.708.708 0 01.244.6 2.407 2.407 0 01-.42 1.056l-.975 1.625a15.2 15.2 0 00-.975 1.909 4.817 4.817 0 00-.42 1.882 1.568 1.568 0 00.311 1.151 1.3 1.3 0 00.907.284 3.216 3.216 0 002-.921 10.523 10.523 0 002.248-3.222l.406.433a9.8 9.8 0 01-2.41 3.71 4.6 4.6 0 01-3.135 1.316zm3.2-12.213a1.753 1.753 0 01-.934-.257.87.87 0 01-.42-.8 1.321 1.321 0 01.7-1.11 2.636 2.636 0 011.462-.46 1.5 1.5 0 01.826.217.86.86 0 01.339.785 1.471 1.471 0 01-.623 1.1 2.052 2.052 0 01-1.358.526zm3.71 12.646a2.655 2.655 0 01-1.923-.7 2.843 2.843 0 01-.731-2.139 11.607 11.607 0 01.42-2.762 34.15 34.15 0 011.07-3.412 3.807 3.807 0 00-.447-.095 2 2 0 01-.5-.149V10.7q.433.054.718.081l.582.054q.569-1.435 1.232-2.776a27.2 27.2 0 011.327-2.4 10.051 10.051 0 011.259-1.665 1.628 1.628 0 011.056-.609.793.793 0 01.514.2.715.715 0 01.244.582 3.588 3.588 0 01-.555 1.544q-.555 1-1.367 2.342t-1.571 2.857h.839q1.192 0 2.153-.041t1.963-.149v.9q-1.489.135-2.735.217t-2.383.108h-.325a25.718 25.718 0 00-.988 2.721 9.418 9.418 0 00-.42 2.721 2.652 2.652 0 00.352 1.571 1.309 1.309 0 001.11.46 4.3 4.3 0 002.776-1.232 10.659 10.659 0 002.478-3.344l.379.271a12.954 12.954 0 01-1.747 2.9 8.822 8.822 0 01-2.261 2.044 4.767 4.767 0 01-2.527.74zm10.182-16.843a1.4 1.4 0 01-.582-.528 1.327 1.327 0 01-.176-.663 3.313 3.313 0 01.244-1.178 3.922 3.922 0 01.636-1.11 1.1 1.1 0 01.826-.474.828.828 0 01.6.271 1.083 1.083 0 01.3.731 7.731 7.731 0 00-1.11 1.435 7.143 7.143 0 00-.746 1.517zm2.266 16.979a3.844 3.844 0 01-2.18-.555 3.107 3.107 0 01-1.178-1.408 4.539 4.539 0 01-.352-1.747 2.778 2.778 0 01.217-1.219 1.53 1.53 0 01.542-.636 3.549 3.549 0 01.609-.311 1.2 1.2 0 00.42-.244 19.539 19.539 0 001.395-1.638 10.468 10.468 0 001.232-2.072v-.271a2.453 2.453 0 01.366-1.53 1.079 1.079 0 01.853-.447.615.615 0 01.474.162.672.672 0 01.176.379 1.3 1.3 0 01-.068.379 2.076 2.076 0 00-.068.6 5.35 5.35 0 00.393 1.855q.393 1.043.785 2.207a7.409 7.409 0 01.393 2.383q0 .325-.027.6a4.373 4.373 0 01-.081.515 4.05 4.05 0 001.652-.934 7.31 7.31 0 001.544-2.126l.325.244a5.973 5.973 0 01-1.489 2.478 4.227 4.227 0 01-2.275 1.151 3.1 3.1 0 01-1.422 1.652 4.572 4.572 0 01-2.236.533zm-.19-1.191a1.919 1.919 0 001.733-1.056 5.545 5.545 0 01-2-.867 5.978 5.978 0 01-1.381-1.273q-.379.081-.379.731a3.009 3.009 0 00.514 1.679 1.7 1.7 0 001.514.786zm1.95-1.868a2.028 2.028 0 00.068-.447q.014-.257.014-.393a10.9 10.9 0 00-.325-2.41q-.3-1.191-.6-2.437-.487.839-1.137 1.814a11.68 11.68 0 01-1.219 1.571 5.014 5.014 0 001.273 1.381 5.136 5.136 0 001.927.92zm20.74 2.22a2.25 2.25 0 01-1.611-.528 1.77 1.77 0 01-.555-1.34 3.879 3.879 0 01.19-1.151q.19-.609.379-1.232a4.09 4.09 0 00.19-1.191.9.9 0 00-.948-1.056 2.732 2.732 0 00-1.665.663 9.954 9.954 0 00-1.65 1.662q-.8 1-1.5 2.085t-1.219 1.95a2.706 2.706 0 01-.975-.176 1.761 1.761 0 01-.785-.609 7.661 7.661 0 01.311-.826q.284-.691.636-1.652t.623-2.017a7.8 7.8 0 00.271-1.923 2.16 2.16 0 01.582-.433 1.685 1.685 0 01.826-.217q.948 0 .948.812a5.6 5.6 0 01-.122.961q-.122.636-.339 1.449a16.114 16.114 0 011.544-1.787 8.6 8.6 0 011.747-1.368 3.6 3.6 0 011.822-.525 1.962 1.962 0 011.72.785 2.936 2.936 0 01.555 1.733 4.189 4.189 0 01-.271 1.516q-.271.7-.528 1.327a3.179 3.179 0 00-.257 1.219.774.774 0 00.2.609.667.667 0 00.447.176 2.092 2.092 0 001.354-.623 7.977 7.977 0 001.34-1.584 18.489 18.489 0 001.124-1.936l.46.379a15.739 15.739 0 01-1.286 2.424 6.9 6.9 0 01-1.6 1.76 3.183 3.183 0 01-1.958.664zm5.47.325a1.738 1.738 0 01-1.665-.8 3.518 3.518 0 01-.447-1.747 6.184 6.184 0 01.271-1.774 7.3 7.3 0 01.745-1.692 4.793 4.793 0 011.056-1.259 1.861 1.861 0 011.178-.474 1.792 1.792 0 01.447.068.673.673 0 01.366.2 7.709 7.709 0 00-.663 1 12.569 12.569 0 00-.623 1.259 8.34 8.34 0 00-.447 1.34 5.367 5.367 0 00-.162 1.246 1.769 1.769 0 00.2.894.758.758 0 00.718.352 2.117 2.117 0 001.232-.582 10.612 10.612 0 001.368-1.34 4.729 4.729 0 01-1.246-1.72 6.015 6.015 0 01-.379-2.261 3.648 3.648 0 01.284-1.3 3.162 3.162 0 01.921-1.273 2.566 2.566 0 011.72-.542 1.9 1.9 0 011.638.65 2.549 2.549 0 01.474 1.544 5.839 5.839 0 01-.528 2.248 14.716 14.716 0 01-1.259 2.356 1.675 1.675 0 00.758.162 3.169 3.169 0 00.975-.19 3.484 3.484 0 001.11-.636 3.119 3.119 0 00.867-1.205l.487.352a4.357 4.357 0 01-1.58 2.026 3.572 3.572 0 01-1.936.636 3.721 3.721 0 01-.7-.068 4.253 4.253 0 01-.65-.176 10.578 10.578 0 01-2.112 1.9 4.243 4.243 0 01-2.414.808zm4.279-4.17a11.613 11.613 0 001.11-2.031 5.158 5.158 0 00.46-2 1.677 1.677 0 00-.19-.907.638.638 0 00-.569-.284q-.515 0-1.056.731a3.01 3.01 0 00-.542 1.841 5.855 5.855 0 00.2 1.381 3.209 3.209 0 00.59 1.269zm6.472 4.549a2.655 2.655 0 01-1.923-.7 2.843 2.843 0 01-.731-2.139 11.607 11.607 0 01.42-2.762 34.142 34.142 0 011.07-3.412 3.808 3.808 0 00-.447-.095 2 2 0 01-.5-.149v-.839q.433.054.718.081l.582.054q.569-1.435 1.232-2.776a27.2 27.2 0 011.327-2.4 10.051 10.051 0 011.259-1.665 1.628 1.628 0 011.056-.609.793.793 0 01.514.2.715.715 0 01.244.582 3.588 3.588 0 01-.555 1.544q-.555 1-1.367 2.342t-1.571 2.857h.839q1.191 0 2.153-.041t1.963-.149v.899q-1.489.135-2.735.217t-2.383.108h-.325a25.717 25.717 0 00-.988 2.721 9.417 9.417 0 00-.42 2.721 2.652 2.652 0 00.352 1.571 1.309 1.309 0 001.11.46 4.3 4.3 0 002.776-1.232 10.66 10.66 0 002.478-3.344l.379.271a12.952 12.952 0 01-1.747 2.9 8.822 8.822 0 01-2.261 2.044 4.767 4.767 0 01-2.516.74zm12.348 6.337a1.807 1.807 0 01-.718-.19 1.663 1.663 0 01-.731-.745 3.5 3.5 0 01-.311-1.665 15.64 15.64 0 01.393-3.046q.393-1.882 1.083-4.17t1.625-4.7q.934-2.41 2-4.644a36.735 36.735 0 012.221-4.021 14.835 14.835 0 012.288-2.843 3.313 3.313 0 012.193-1.056.936.936 0 01.921.42 2.066 2.066 0 01.217.961 6.136 6.136 0 01-.636 2.545 15.067 15.067 0 01-1.692 2.776 21.663 21.663 0 01-2.369 2.64 18.651 18.651 0 01-2.694 2.139l-.217.542-.217.542a.932.932 0 01.474.379 1.239 1.239 0 01.2.569q.217 1.164.433 2.072a3.311 3.311 0 00.668 1.421 1.611 1.611 0 001.286.515 2.352 2.352 0 001.679-.7 9.51 9.51 0 001.489-1.977l.6.433a6.916 6.916 0 01-1.95 2.532 3.415 3.415 0 01-1.95.8 2.713 2.713 0 01-.961-.19 3.788 3.788 0 01-.961-.542 16.406 16.406 0 01-.393 3.317 14.288 14.288 0 01-.988 2.965 7.817 7.817 0 01-1.395 2.126 2.226 2.226 0 01-1.584.794zm.758-1.679q.3 0 .636-.515a7.282 7.282 0 00.663-1.354 18 18 0 00.6-1.855q.271-1.015.433-2a11.184 11.184 0 00.162-1.8 5.033 5.033 0 00-.176-1.395 6.408 6.408 0 00-.609-1.368q-.623 1.868-1.11 3.6t-.758 3.155a13.093 13.093 0 00-.271 2.369q.003 1.163.433 1.163zm3.818-15.814a28.239 28.239 0 002.816-3.006 18.326 18.326 0 001.774-2.586 4.139 4.139 0 00.609-1.584.191.191 0 00-.217-.217q-.65 0-1.489.988a15.2 15.2 0 00-1.733 2.667q-.89 1.679-1.756 3.737zm6.445 10.723a1.755 1.755 0 01-1.5-.853 3.4 3.4 0 01-.582-1.963 7.912 7.912 0 01.244-1.787 13.98 13.98 0 01.636-2 9.7 9.7 0 01.812-1.625q.42-.65.772-.65a1.473 1.473 0 01.582.2 2.765 2.765 0 01.69.5 9.952 9.952 0 00-.718 1.327 15.5 15.5 0 00-.745 1.923 6.263 6.263 0 00-.325 1.868q0 .108.041.515a2.356 2.356 0 00.2.758.576.576 0 00.569.352 1.5 1.5 0 00.988-.5 8.4 8.4 0 001.083-1.3q.555-.8 1.083-1.72t.948-1.787q.42-.867.691-1.462a4.306 4.306 0 01.636.135 2.833 2.833 0 01.69.284.553.553 0 01.3.5 3.654 3.654 0 01-.257.663q-.257.582-.6 1.395a17.363 17.363 0 00-.6 1.665 5.294 5.294 0 00-.257 1.5 1.41 1.41 0 00.149.663.6.6 0 00.582.284 2.6 2.6 0 001.354-.515 8.011 8.011 0 001.625-1.489 10.527 10.527 0 001.489-2.329l.406.325a10.268 10.268 0 01-1.544 2.627 8.106 8.106 0 01-2.031 1.828 4.039 4.039 0 01-2.112.663 1.674 1.674 0 01-1.178-.366 1.822 1.822 0 01-.528-.948 6.489 6.489 0 01-.162-1.178v-.542a16.859 16.859 0 01-1 1.422 6.306 6.306 0 01-1.151 1.151 2.1 2.1 0 01-1.277.466zm19.01-.271a2.25 2.25 0 01-1.611-.528 1.77 1.77 0 01-.555-1.34 3.878 3.878 0 01.19-1.151q.19-.609.379-1.232a4.091 4.091 0 00.19-1.191.9.9 0 00-.948-1.056 2.732 2.732 0 00-1.665.663 9.954 9.954 0 00-1.65 1.662q-.8 1-1.5 2.085t-1.219 1.95a2.706 2.706 0 01-.975-.176 1.76 1.76 0 01-.785-.609 7.658 7.658 0 01.311-.826q.284-.691.636-1.652t.623-2.017a7.8 7.8 0 00.271-1.923 2.16 2.16 0 01.582-.433 1.686 1.686 0 01.826-.217q.948 0 .948.812a5.594 5.594 0 01-.122.961q-.122.636-.339 1.449a16.114 16.114 0 011.544-1.787 8.6 8.6 0 011.747-1.368 3.6 3.6 0 011.828-.528 1.962 1.962 0 011.72.785 2.936 2.936 0 01.555 1.733 4.189 4.189 0 01-.271 1.516q-.271.7-.528 1.327a3.179 3.179 0 00-.257 1.219.774.774 0 00.2.609.667.667 0 00.447.176 2.092 2.092 0 001.354-.623 7.978 7.978 0 001.34-1.584A18.5 18.5 0 00266 14.863l.46.379a15.741 15.741 0 01-1.286 2.424 6.9 6.9 0 01-1.6 1.76 3.183 3.183 0 01-1.964.667zm5.633-.271a1.114 1.114 0 01-.921-.338 1.1 1.1 0 01-.271-.691 1.044 1.044 0 01.271-.636 2.319 2.319 0 01.677-.569 1.552 1.552 0 01.758-.23 1.162 1.162 0 01.6.176.705.705 0 01.3.663 1.746 1.746 0 01-.162.609 2.154 2.154 0 01-.474.7 1.048 1.048 0 01-.775.314z" fill="#fff"/></svg>