<svg xmlns="http://www.w3.org/2000/svg" width="205.045" height="21.111"><defs><clipPath id="a"><path data-name="Rectangle 24866" fill="none" d="M0 0h205.045v21.111H0z"/></clipPath></defs><g data-name="Group 20121" clip-path="url(#a)" fill="#06c755"><path data-name="Path 29742" d="M80.286 11.066a1 1 0 00-1.245-.226l-1.955 1.081a1 1 0 00-.5.689.983.983 0 00.208.815 22.183 22.183 0 011.706 2.443c-2.679.217-3.228.246-5.937.318a70.335 70.335 0 003.209-7.552 1 1 0 00-.758-1.325l-2.2-.407a1 1 0 00-1.132.68 78.627 78.627 0 01-3.413 8.7c-.749 0-1.272 0-1.642-.008a1.042 1.042 0 00-.755.335 1 1 0 00-.242.8l.273 2.051a.991.991 0 001.033.868l.222-.009c5.061-.209 9.842-.406 13.326-.889.15.31.281.589.4.855a1 1 0 00.912.586.975.975 0 00.4-.083l2.362-1.03a1 1 0 00.541-.577.981.981 0 00-.043-.779 35.2 35.2 0 00-4.763-7.33"/><path data-name="Path 29743" d="M80.46 1.078a1 1 0 00-1.18-.557l-2 .553a1 1 0 00-.661 1.335 22.1 22.1 0 005.826 8.341 1.015 1.015 0 00.668.25h.089a.992.992 0 00.689-.369l1.5-1.871a1 1 0 00-.131-1.389 18.545 18.545 0 01-4.8-6.293"/><path data-name="Path 29744" d="M67.165 11.054a.926.926 0 00.114.006 1.019 1.019 0 00.668-.249 21.235 21.235 0 005.836-8.458.973.973 0 00-.046-.8 1.012 1.012 0 00-.64-.513L71.083.518a.993.993 0 00-1.15.566 16.627 16.627 0 01-4.769 6.143.989.989 0 00-.18 1.359l1.491 2.062a.986.986 0 00.694.406"/><path data-name="Path 29745" d="M127.403 1.54h-17.11a.94.94 0 00-.939.939v2.073a.94.94 0 00.939.939h13a7.945 7.945 0 01-3.222 3.7c.033-.341.06-.652.08-1.084a.939.939 0 00-.933-.982l-2.333-.016a.939.939 0 00-.938.918c-.066 3.951-1.044 7-5.6 9.028a.94.94 0 00-.539.65.919.919 0 00.189.806l1.424 1.722a.937.937 0 00.722.344.911.911 0 00.406-.094c6.16-3.03 6.984-7.351 7.351-9.831l1.512 1.511a.951.951 0 001.187.117c3.383-2.216 5.043-5.309 5.732-9.643a.951.951 0 00-.216-.764.936.936 0 00-.713-.33"/><path data-name="Path 29746" d="M146.289 4.032h-6.671c.084-1.178.13-1.412.168-2.342a.891.891 0 00-.883-.925L136.475.75h-.006a1.078 1.078 0 00-1.076 1.058c-.01.749-.038 1.054-.1 2.224h-4.95a1.076 1.076 0 00-1.075 1.076v1.9a1.075 1.075 0 001.075 1.075h4.481a12.446 12.446 0 01-5.628 8.729 1.091 1.091 0 00-.493.771 1.066 1.066 0 00.262.857l1.444 1.612a1.085 1.085 0 001.423.162 17.837 17.837 0 007.32-12.13h3.962v1.27a45.641 45.641 0 01-.409 5.763c-.192.953-.381 1.195-1.675 1.195a15.72 15.72 0 01-1.74-.11 1.074 1.074 0 00-1.191 1.13l.119 2.076a1.072 1.072 0 00.954 1.008 23.261 23.261 0 002.5.126c1.366 0 3.651 0 4.7-2.533.923-2.244.994-8.489.994-10.22V5.107a1.077 1.077 0 00-1.076-1.076"/><path data-name="Path 29747" d="M166.902 3.339h-6.181V1.627a.878.878 0 00-.877-.872h-2.494a.878.878 0 00-.877.876v1.708h-5.91a.879.879 0 00-.877.877v7.032a.878.878 0 00.877.877h2.359a.878.878 0 00.877-.877V7.293h9.458c-.116 5.219-3.649 8.606-10.5 9.24a.876.876 0 00-.748 1.166l.8 2.25a.872.872 0 00.822.586h.091c9.463-.986 14.064-6.4 14.064-15.7v-.619a.878.878 0 00-.877-.877"/><path data-name="Path 29748" d="M175.969 8.71a.878.878 0 00.688.116.867.867 0 00.55-.41l1.337-2.3a.869.869 0 00.089-.666.881.881 0 00-.417-.54 29.5 29.5 0 00-6.2-2.681.875.875 0 00-1.04.431l-1.079 2.064a.877.877 0 00.47 1.229 27.784 27.784 0 015.6 2.757"/><path data-name="Path 29749" d="M188.276 5.076l-2.169-1.479a.871.871 0 00-.791-.1.862.862 0 00-.542.575c-1.081 3.706-2.756 6.691-4.713 8.406-2.135 1.893-5.336 3.081-9.511 3.529a.876.876 0 00-.76 1.059l.6 2.777a.88.88 0 00.857.693.913.913 0 00.133-.01c8-1.242 14-4.176 17.238-14.458a.886.886 0 00-.345-.992"/><path data-name="Path 29750" d="M204.592 10.065a50.1 50.1 0 00-9.795-4.147l-.029-4.287a.888.888 0 00-.891-.88l-2.836.02a.886.886 0 00-.88.891l.122 17.994a.886.886 0 00.892.879l2.836-.019a.886.886 0 00.879-.891l-.062-9.209a38.063 38.063 0 017.429 3.949.884.884 0 001.281-.338l1.408-2.789a.881.881 0 00-.357-1.172"/><path data-name="Path 29751" d="M102.465.936l2.228-.9a.506.506 0 01.516.078 11.2 11.2 0 011.607 2.028.515.515 0 01-.207.769L104.29 3.94a.51.51 0 01-.633-.183c-.35-.527-.875-1.372-1.4-2.032a.51.51 0 01.211-.791"/><path data-name="Path 29752" d="M103.769 21.111a3.973 3.973 0 01-2.763-1.275c-3.074-3.35-3.349-9.376-3.474-12.742h-9.984a.8.8 0 01-.8-.8V4.268a.8.8 0 01.8-.8h9.854c-.021-.513-.056-1.49-.076-2.1a.8.8 0 01.8-.826h2.328a.8.8 0 01.8.8v2.119h5.143a.8.8 0 01.8.8v2.03a.8.8 0 01-.8.8h-5.05a25.967 25.967 0 001.514 8.139c.354.766.675 1.112.974 1.146.352.04.975-.467 1.527-1.179a.693.693 0 01.656-.258.853.853 0 01.663.537s.6.95 1.048 1.73-.179 1.539-.474 1.887a6.209 6.209 0 01-3.481 2.014M97.526 6.906zm-9.864 13.667a.8.8 0 01-.8-.721l-.231-2.271a.8.8 0 01.737-.881c.4-.03.852-.071 1.3-.111.494-.044.982-.088 1.386-.117v-4.204h-2.107a.8.8 0 01-.8-.8V9.437a.8.8 0 01.8-.8h7.955a.8.8 0 01.8.8v2.031a.8.8 0 01-.8.8h-2.045v3.9c.8-.093 1.35-.141 1.8-.179s.755-.064 1.063-.115a.807.807 0 01.649.176.8.8 0 01.286.6l.028 1.965a.8.8 0 01-.641.8c-2.03.4-9 1.129-9.292 1.161h-.088"/><path data-name="Path 29753" d="M19.502.755h-2.918a.81.81 0 00-.81.809v18.125a.81.81 0 00.81.809h2.918a.81.81 0 00.81-.809V1.563a.81.81 0 00-.81-.808"/><path data-name="Path 29754" d="M39.587.755h-2.918a.81.81 0 00-.81.809v10.768L27.552 1.114a.912.912 0 00-.064-.082l-.006-.006a.73.73 0 00-.047-.049L27.42.963c-.015-.008-.029-.025-.044-.036l-.021-.016-.042-.03-.025-.015-.043-.023-.026-.013a.4.4 0 00-.046-.02l-.026-.009-.048-.016-.028-.006-.047-.01-.034-.007h-3.031a.81.81 0 00-.81.809v18.118a.81.81 0 00.81.809h2.918a.81.81 0 00.81-.809V8.924l8.319 11.231a.775.775 0 00.2.2l.008.007a.661.661 0 00.05.03l.024.013.038.018.04.017.025.009.055.018h.011a.841.841 0 00.208.027h2.918a.81.81 0 00.81-.809V1.563a.81.81 0 00-.806-.808"/><path data-name="Path 29755" d="M12.467 15.955H4.539V1.563a.809.809 0 00-.811-.808H.81a.809.809 0 00-.81.808v18.126a.8.8 0 00.227.559l.01.012.012.011a.806.806 0 00.56.226h11.658a.81.81 0 00.809-.81v-2.918a.81.81 0 00-.809-.81"/><path data-name="Path 29756" d="M55.703.755H44.044a.807.807 0 00-.564.229l-.008.008-.013.014a.81.81 0 00-.224.558v18.125a.8.8 0 00.226.56l.011.012.012.011a.8.8 0 00.56.226h11.659a.809.809 0 00.808-.81V16.77a.809.809 0 00-.808-.81h-7.929v-3.064h7.929a.809.809 0 00.808-.81V9.167a.809.809 0 00-.808-.81h-7.929V5.293h7.929a.809.809 0 00.808-.81V1.564a.809.809 0 00-.808-.809"/></g></svg>