<svg xmlns="http://www.w3.org/2000/svg" width="24" height="24"><g data-name="Group 12995" transform="translate(-360.945 -237.638)"><circle data-name="Ellipse 1" cx="12" cy="12" r="12" transform="translate(360.945 237.638)" fill="#00b900"/><g data-name="TYPE A"><g data-name="Group 12994"><path data-name="Path 7292" d="M380.928 248.918c0-3.572-3.581-6.477-7.982-6.477s-7.982 2.906-7.982 6.477c0 3.2 2.84 5.884 6.675 6.391.26.056.614.171.7.394a1.639 1.639 0 01.026.722l-.114.683c-.035.2-.16.789.691.43a25.777 25.777 0 006.272-4.634 5.763 5.763 0 001.714-3.986" fill="#fff"/><g data-name="Group 12993" fill="#00b900"><path data-name="Path 7293" d="M371.322 247.191h-.56a.155.155 0 00-.155.155v3.478a.155.155 0 00.155.155h.56a.155.155 0 00.155-.155v-3.478a.155.155 0 00-.155-.155"/><path data-name="Path 7294" d="M375.176 247.191h-.56a.155.155 0 00-.155.155v2.066l-1.594-2.152-.012-.016-.009-.01-.008-.007-.008-.005h-.633a.155.155 0 00-.155.155v3.478a.155.155 0 00.155.155h.56a.155.155 0 00.156-.155v-2.066l1.6 2.155a.155.155 0 00.039.038l.01.006h.026a.152.152 0 00.04.005h.56a.155.155 0 00.155-.155v-3.492a.155.155 0 00-.155-.155"/><path data-name="Path 7295" d="M369.973 250.109h-1.519v-2.762a.155.155 0 00-.155-.155h-.56a.156.156 0 00-.156.155v3.478a.155.155 0 00.044.107.155.155 0 00.107.043h2.237a.155.155 0 00.155-.155v-.56a.155.155 0 00-.155-.156"/><path data-name="Path 7296" d="M378.268 248.062a.155.155 0 00.155-.156v-.56a.155.155 0 00-.155-.156h-2.237a.155.155 0 00-.108.044.156.156 0 00-.043.107v3.477a.155.155 0 00.043.107.155.155 0 00.107.043h2.237a.155.155 0 00.155-.155v-.56a.155.155 0 00-.155-.155h-1.521v-.588h1.521a.155.155 0 00.155-.155v-.56a.155.155 0 00-.155-.156h-1.521v-.588z"/></g></g></g></g></svg>