<svg xmlns="http://www.w3.org/2000/svg" width="347.588" height="322"><defs><clipPath id="a"><path data-name="Rectangle 25435" fill="#fff" d="M0 0h250.012v225.703H0z"/></clipPath></defs><g data-name="Group 30844" fill="#fff"><g data-name="Group 22820"><g data-name="Group 22819" transform="translate(48.789)" clip-path="url(#a)"><path data-name="Path 15423" d="M177.114 91.939s7.163 11.886 18.9 15.391 15.7 5.524 16.725 6.667c0 0-9.994 2.682-24.124 14.04a90.32 90.32 0 00-6.582 5.863c-5.188 5.077-24.6 21.5-56.423 18.881 0 0 25.335-.648 43.565-17.41s20.782-19.569 25.125-22.566a40.015 40.015 0 01-17.182-20.865"/><path data-name="Path 15424" d="M168.983 147.547s-6.649 12.18-3.755 24.08 3.149 16.339 2.682 17.8c0 0-7.357-7.275-24.293-13.745a90.527 90.527 0 00-8.382-2.724c-7-1.918-30.97-10.393-44.769-39.191 0 0 13.341 21.548 37.012 28.83s27.38 8.071 32.159 10.308a40.013 40.013 0 019.347-25.362"/><path data-name="Path 15425" d="M117.237 168.184s-13.875.313-22.745 8.756-12.59 10.879-14.093 11.2c0 0 2.636-10.006-.2-27.911a90.807 90.807 0 00-1.819-8.624c-1.83-7.024-6.44-32.027 11.637-58.349 0 0-12.022 22.31-6.527 46.458s6.662 27.757 7.105 33.016a40.013 40.013 0 0126.644-4.549"/><path data-name="Path 15426" d="M72.837 133.493s-7.133-11.906-18.854-15.443-15.681-5.567-16.706-6.713c0 0 10-2.653 24.162-13.973a90.142 90.142 0 006.6-5.845c5.2-5.063 24.657-21.428 56.475-18.726 0 0-25.337.578-43.612 17.291s-20.836 19.51-25.187 22.5a40.014 40.014 0 0117.124 20.912"/><path data-name="Path 15427" d="M80.894 78.152s6.65-12.18 3.757-24.08-3.147-16.339-2.68-17.8c0 0 7.357 7.277 24.291 13.747a90.736 90.736 0 008.382 2.726c7 1.918 30.969 10.4 44.766 39.194 0 0-13.34-21.549-37.009-28.833s-27.38-8.073-32.159-10.311a40.012 40.012 0 01-9.348 25.357"/><path data-name="Path 15428" d="M133.014 57.061s13.875-.273 22.769-8.691 12.621-10.844 14.126-11.165c0 0-2.666 10 .123 27.911a90.32 90.32 0 001.795 8.63c1.811 7.029 6.349 32.044-11.8 58.316 0 0 12.084-22.276 6.658-46.44s-6.583-27.776-7.012-33.035a40.014 40.014 0 01-26.657 4.473"/><path data-name="Path 15429" d="M94.302 14.115l30.7 10.123 30.7-10.123s8.436 19.823 2.783 38.465c0 0-.337-20.245-5.651-26.993l-27.836 9.447-27.826-9.443c-5.314 6.748-5.651 26.993-5.651 26.993-5.652-18.642 2.784-38.465 2.784-38.465"/><path data-name="Path 15430" d="M90.225 0l34.782 10.684L159.789 0s7.2 10.572 4.274 34.3c0 0-3.712-19.232-6.3-25.08l-32.756 10.8L92.25 9.22c-2.587 5.848-6.3 25.08-6.3 25.08C83.026 10.569 90.224 0 90.224 0"/><path data-name="Path 15431" d="M14.294 99.246l23.925-21.744 6.3-31.709s21.407 2.415 34.851 16.51c0 0-17.787-9.672-26.277-8.367l-5.479 28.88-21.926 19.58c3.258 7.948 20.714 18.207 20.714 18.207-19.005-4.257-32.108-21.357-32.108-21.357"/><path data-name="Path 15432" d="M0 95.85l26.421-25.017 7.821-35.535s12.746-1.062 31.963 13.165c0 0-18.567-6.236-24.932-6.863l-6.726 33.828-25.523 23.2c3.818 5.13 18.732 17.828 18.732 17.828C5.659 107.319 0 95.85 0 95.85"/><path data-name="Path 15433" d="M88.7 212.03l-18.164-26.745-30.508-10.7s5.4-20.855 21.246-32.185c0 0-12.075 16.252-11.979 24.84l27.824 9.485 16.3 24.461c8.327-2.109 20.938-17.949 20.938-17.949C107.471 201.46 88.7 212.03 88.7 212.03"/><path data-name="Path 15434" d="M83.326 225.703l-21.053-29.675-34.083-12.739s.741-12.769 17.529-29.795c0 0-8.785 17.507-10.3 23.719l32.546 11.415 19.38 28.531c5.616-3.058 20.285-16.039 20.285-16.039-12.152 20.592-24.3 24.583-24.3 24.583"/><path data-name="Path 15435" d="M161.311 212.03l18.165-26.745 30.508-10.7s-5.4-20.855-21.246-32.185c0 0 12.076 16.252 11.979 24.84l-27.827 9.488-16.3 24.461c-8.327-2.109-20.938-17.949-20.938-17.949 6.887 18.222 25.659 28.79 25.659 28.79"/><path data-name="Path 15436" d="M166.685 225.703l21.054-29.676 34.083-12.739s-.741-12.768-17.529-29.794c0 0 8.785 17.507 10.3 23.719l-32.546 11.415-19.38 28.531c-5.616-3.058-20.285-16.039-20.285-16.039 12.152 20.592 24.3 24.583 24.3 24.583"/><path data-name="Path 15437" d="M235.719 99.246l-23.925-21.744-6.3-31.709s-21.407 2.415-34.851 16.51c0 0 17.787-9.672 26.277-8.367l5.479 28.88 21.926 19.58c-3.258 7.948-20.714 18.207-20.714 18.207 19.006-4.257 32.108-21.357 32.108-21.357"/><path data-name="Path 15438" d="M250.012 95.85l-26.421-25.017-7.821-35.535s-12.746-1.062-31.963 13.165c0 0 18.567-6.236 24.932-6.863l6.726 33.828 25.523 23.2c-3.818 5.13-18.732 17.828-18.732 17.828 22.1-9.137 27.756-20.606 27.756-20.606"/></g><path data-name="Union 3" d="M148.122 84.69a11.776 11.776 0 002.017 6.5 18.365 18.365 0 005.5 5.313 29.089 29.089 0 008.16 3.58 37.744 37.744 0 009.993 1.314 37.713 37.713 0 009.991-1.314 29.027 29.027 0 008.162-3.58 18.443 18.443 0 005.5-5.313 11.785 11.785 0 002.018-6.5 11.151 11.151 0 00-.231-2.246c-.822 3.676-3.836 7.057-8.479 9.523a36.81 36.81 0 01-16.961 3.86 36.841 36.841 0 01-16.966-3.858c-4.645-2.466-7.655-5.849-8.475-9.525a11.181 11.181 0 00-.229 2.246zm52.664 11.674a18.457 18.457 0 00-7.354 2.113 29.127 29.127 0 00-7.181 5.275 38.662 38.662 0 00-9.991 17.307 29.089 29.089 0 00-.979 8.855 18.354 18.354 0 001.849 7.42 11.77 11.77 0 004.618 5 10.873 10.873 0 002.061.926c-2.772-2.551-4.193-6.852-4.011-12.1a36.913 36.913 0 015.145-16.626 36.853 36.853 0 0111.823-12.762c4.461-2.795 8.9-3.709 12.49-2.578a11.247 11.247 0 00-1.832-1.32 11.616 11.616 0 00-5.9-1.523 9.599 9.599 0 00-.738.013zM140.16 97.87a11.206 11.206 0 00-1.828 1.32c3.592-1.123 8.027-.209 12.482 2.582a36.775 36.775 0 0111.825 12.762 36.8 36.8 0 015.142 16.619c.188 5.256-1.237 9.555-4.012 12.1a11.177 11.177 0 002.063-.926 11.83 11.83 0 004.622-5 18.514 18.514 0 001.849-7.42 29.082 29.082 0 00-.981-8.855 37.738 37.738 0 00-3.859-9.308 37.633 37.633 0 00-6.136-8 28.844 28.844 0 00-7.181-5.275 18.427 18.427 0 00-7.347-2.105c-.249-.012-.5-.018-.74-.018a11.614 11.614 0 00-5.899 1.524z"/></g><path data-name="Path 33391" d="M86.115 308.678l16.639-62c.362-1.287-.465-2.347-1.86-1.666l-3 1.666-57.666 44.288H4.108c-4.082 0-4.7 1.363-3.669 6.056l4.909 22.485c.827 3.861 2.377 2.725 5.788.076l32.144-25.217h41.494l-4.909 17.942c-.517 1.893.31 2.347 1.912 1.666l34.051-14.229c2.532-1.06 2.532-4.088 2.532-4.088zm-38.756-17.712l48.832-38.383-10.489 38.383zm-11.626 3.4l-25.579 19.3c-1.189.908-1.964 1.136-2.48-.454l-5.426-17.034c-.362-1.127 0-1.812 1.132-1.812zm97.613-5.148a46.84 46.84 0 0012.453-13.471l12.143-.076-8.01 14.157c-5.218 4.012-17.152 9.463-23.408 11.507zm16.226-27.632a55.36 55.36 0 01-3.877 10.38l-2.739.076 1.189-1.968c3.2-5.754 5.116-8.782 5.116-8.782.413-.762.568-.535.31.298zm22.168 0a54.618 54.618 0 01-3.876 10.3h-2.584l1.033-1.817c3.2-5.754 5.116-8.782 5.116-8.782.414-.757.569-.53.31.303zm-34.983 21.5s1.757-3.028 4.186-7.343l2.325-.076a33.255 33.255 0 01-6.512 7.423zm22.168 0s1.755-3.02 4.185-7.339h2.325a32.886 32.886 0 01-6.511 7.343zm-40.045 22.64c-.878 1.59.052 2.12 1.5 1.514 0 0 16.071-5.905 26.871-12.643l-6.2 11.129c-.878 1.59.052 2.12 1.5 1.514l17.923-7.574c2.48-1.06 2.48-4.012 2.48-4.012l-14.261 5.681 6.821-12.113a46.471 46.471 0 0012.453-13.4l29.971.681c4.6.076 5.012-4.694 5.012-4.694h-32.71a54.1 54.1 0 003.98-12.343c.723-3.861.568-5.981-.62-5.981-1.137 0-3.049.984-6.253 5.981-3 4.618-4.7 7.419-7.493 12.416l-11.782.076a55.467 55.467 0 003.979-12.492c.723-3.861.568-5.981-.62-5.981-1.137 0-3.049.984-6.253 5.981-3 4.618-4.806 7.722-7.6 12.719l-5.529.076c-2.635 0-3.152 2.953-3.152 2.953l6.873.379-8.01 14.233a69.68 69.68 0 01-14.727 8.1c-2.635 1.06-2.532 4.088-2.532 4.088 5.581-2.2 11.11-4.769 14.572-7.419zm90.116-10.069l-14.262 5.754 5.116-9.009c.723-1.287 0-2.271-1.447-1.666l-8.939 3.63c-.723-1.363-2.635-3.785-7.906-3.785-5.012 0-8.165.681-21.031 5.981l-3.152 1.363c-2.532 1.06-2.532 4.088-2.532 4.088l5.891-2.271a65.409 65.409 0 008.113-3.634c-4.186 3.634-5.219 7.722-5.219 9.615 0 1.59.878 2.12 3.2 1.211l25.32-10.22-5.012 8.933c-.878 1.59-.155 2.271 1.447 1.59l17.881-7.571a4.535 4.535 0 002.532-4.009zm-22.323-.3a134.5 134.5 0 01-13.384 5.524c-2.325.833-2.532.606-2.274-.379.673-2.725 4.91-6.736 10.542-6.736 3.463 0 4.444.907 5.116 1.588zm22.427 10.369c-.878 1.59.052 2.12 1.5 1.514l15.707-6.586c-.413 4.694 1.6 7.116 4.909 7.116 6.149 0 14.52-4.467 22.323-8.1a4.494 4.494 0 002.48-4.012c-8.113 3.482-17.724 8.4-22.323 8.4-3.1 0-2.377-3.861-2.17-5.375l10.387-4.691c3.824-1.59 2.532-4.769 2.532-4.769-4.341 1.665-12.919 5.828-12.919 5.828s-1.291-.454-3.046-.908c-1.705-.454-2.015 3.558-2.015 3.558l-9.717 3.634 6.821-12.113c9.766-8.176 20.153-21.2 23.305-37.853.723-3.861.568-5.981-.568-5.981-1.189 0-3.049 1.968-6.3 6.965-5.326 8.253-11.115 18.246-22.018 37.475a69.68 69.68 0 01-14.727 8.1c-2.636 1.06-2.532 4.088-2.532 4.088 5.581-2.2 11.11-4.769 14.572-7.419zm35.345-52.237a63.677 63.677 0 01-17.465 29.601s8.06-14.081 11.987-21.124c3.255-5.754 5.116-8.858 5.116-8.858.414-.679.569-.452.362.381zm57.772 42.168l-14.262 5.754 5.115-9.009c.723-1.287 0-2.271-1.447-1.666l-8.943 3.63c-.72-1.359-2.631-3.781-7.9-3.781-5.012 0-8.165.681-21.031 5.981l-3.155 1.362c-2.532 1.06-2.532 4.088-2.532 4.088l5.891-2.271a65.41 65.41 0 008.113-3.634c-4.186 3.634-5.219 7.722-5.219 9.615 0 1.59.878 2.12 3.2 1.211l25.32-10.22-5.012 8.933c-.878 1.59-.155 2.271 1.447 1.59l17.878-7.574a4.535 4.535 0 002.537-4.009zm-22.323-.3a134.494 134.494 0 01-13.384 5.524c-2.325.833-2.532.606-2.274-.379.672-2.725 4.909-6.736 10.544-6.736 3.46 0 4.442.907 5.113 1.588zm67.693.3l-14.262 5.754 4.237-7.495c1.6-2.877.982-3.785-2.429-2.8a157.555 157.555 0 00-25.217 10.22l5.064-8.859c.723-1.287.207-2.347-1.4-1.666l-17.1 7.117c-2.532 1.06-2.532 4.088-2.532 4.088l13.435-5.3-5.063 9.01c-.93 1.666-.517 2.5 1.4 1.59 12.66-5.905 19.74-8.63 25.527-10.447 1.137-.379 1.4 0 .568 1.514l-4.082 7.343c-.723 1.211-.207 2.271 1.4 1.59l17.931-7.571c2.523-1.06 2.523-4.088 2.523-4.088z"/></g></svg>