<svg xmlns="http://www.w3.org/2000/svg" width="240" height="222"><defs><clipPath id="a"><path data-name="Rectangle 25435" fill="#00c2e8" d="M0 0h172.626v155.609H0z"/></clipPath></defs><g data-name="Group 30831" fill="#00c2e8"><g data-name="Group 22820"><g data-name="Group 22819" transform="translate(33.687)" clip-path="url(#a)"><path data-name="Path 15423" d="M122.293 63.387s4.946 8.195 13.047 10.611 10.838 3.808 11.548 4.6c0 0-6.9 1.849-16.657 9.679a62.204 62.204 0 00-4.544 4.042c-3.582 3.5-16.984 14.82-38.959 13.017 0 0 17.493-.447 30.08-12s14.349-13.491 17.348-15.558a27.6 27.6 0 01-11.863-14.385"/><path data-name="Path 15424" d="M116.678 101.726s-4.591 8.4-2.593 16.6 2.175 11.265 1.852 12.275c0 0-5.08-5.016-16.774-9.477a62.778 62.778 0 00-5.788-1.878c-4.835-1.322-21.384-7.165-30.912-27.02 0 0 9.211 14.856 25.556 19.877s18.905 5.564 22.2 7.107a27.559 27.559 0 016.454-17.486"/><path data-name="Path 15425" d="M80.948 115.949s-9.58.216-15.7 6.037-8.693 7.5-9.731 7.724c0 0 1.82-6.9-.14-19.243-.318-2-.744-3.984-1.256-5.946-1.268-4.838-4.451-22.072 8.031-40.224 0 0-8.3 15.382-4.507 32.03s4.6 19.137 4.906 22.762a27.661 27.661 0 0118.4-3.137"/><path data-name="Path 15426" d="M50.292 92.035s-4.926-8.208-13.018-10.647-10.828-3.838-11.535-4.628c0 0 6.906-1.829 16.683-9.634a62.407 62.407 0 004.556-4.03c3.588-3.49 17.025-14.772 38.994-12.91 0 0-17.494.4-30.113 11.921S41.473 75.559 38.466 77.618A27.6 27.6 0 0150.29 92.036"/><path data-name="Path 15427" d="M55.855 53.887s4.592-8.4 2.594-16.6-2.173-11.265-1.85-12.275c0 0 5.08 5.017 16.772 9.478 1.9.724 3.83 1.344 5.788 1.879 4.835 1.322 21.383 7.167 30.909 27.022 0 0-9.211-14.857-25.553-19.879s-18.905-5.566-22.2-7.109a27.558 27.558 0 01-6.46 17.484"/><path data-name="Path 15428" d="M91.842 39.34s9.58-.188 15.722-5.992 8.715-7.476 9.753-7.7c0 0-1.841 6.893.085 19.243.312 2 .733 3.987 1.239 5.95 1.25 4.846 4.384 22.093-8.149 40.206 0 0 8.344-15.358 4.6-32.018s-4.545-19.15-4.842-22.776a27.662 27.662 0 01-18.406 3.084"/><path data-name="Path 15429" d="M65.113 9.732l21.2 6.979 21.2-6.979s5.825 13.667 1.922 26.519c0 0-.233-13.958-3.9-18.61l-19.22 6.513-19.221-6.513c-3.669 4.652-3.9 18.61-3.9 18.61-3.9-12.853 1.922-26.519 1.922-26.519"/><path data-name="Path 15430" d="M62.297 0l24.016 7.366L110.329 0s4.97 7.289 2.951 23.65c0 0-2.563-13.26-4.349-17.291l-22.617 7.444-22.618-7.444c-1.786 4.032-4.348 17.291-4.348 17.291C57.329 7.289 62.299 0 62.299 0"/><path data-name="Path 15431" d="M9.869 68.424l16.52-14.992 4.352-21.862s14.781 1.665 24.064 11.383c0 0-12.282-6.668-18.144-5.769l-3.783 19.911-15.139 13.5c2.25 5.48 14.3 12.552 14.3 12.552-13.123-2.932-22.17-14.723-22.17-14.723"/><path data-name="Path 15432" d="M0 66.083l18.243-17.247 5.4-24.5s8.8-.732 22.07 9.077c0 0-12.82-4.3-17.215-4.732l-4.644 23.323L6.231 67.998C8.867 71.535 19.165 80.29 19.165 80.29 3.908 73.991 0 66.083 0 66.083"/><path data-name="Path 15433" d="M61.245 146.182l-12.542-18.439-21.065-7.376s3.729-14.378 14.67-22.189c0 0-8.337 11.2-8.271 17.126l19.212 6.539 11.256 16.865c5.75-1.454 14.457-12.372 14.457-12.372-4.755 12.56-17.717 19.846-17.717 19.846"/><path data-name="Path 15434" d="M57.534 155.609l-14.537-20.46-23.533-8.782s.512-8.8 12.1-20.542c0 0-6.066 12.07-7.112 16.353l22.472 7.87 13.381 19.67c3.878-2.108 14.006-11.058 14.006-11.058-8.39 14.2-16.781 16.949-16.781 16.949"/><path data-name="Path 15435" d="M111.381 146.182l12.542-18.439 21.065-7.376s-3.729-14.378-14.67-22.189c0 0 8.338 11.2 8.271 17.126l-19.212 6.539-11.256 16.865c-5.75-1.454-14.457-12.375-14.457-12.375 4.755 12.563 17.717 19.849 17.717 19.849"/><path data-name="Path 15436" d="M115.092 155.609l14.537-20.46 23.533-8.783s-.512-8.8-12.1-20.542c0 0 6.066 12.07 7.112 16.353l-22.472 7.87-13.381 19.67c-3.878-2.108-14.006-11.058-14.006-11.058 8.39 14.2 16.781 16.949 16.781 16.949"/><path data-name="Path 15437" d="M162.757 68.424l-16.52-14.992-4.352-21.862s-14.781 1.665-24.064 11.383c0 0 12.282-6.668 18.144-5.769l3.783 19.911 15.139 13.5c-2.25 5.48-14.3 12.552-14.3 12.552 13.125-2.935 22.172-14.724 22.172-14.724"/><path data-name="Path 15438" d="M172.626 66.083l-18.242-17.247-5.4-24.5s-8.8-.732-22.07 9.077c0 0 12.82-4.3 17.215-4.732l4.644 23.323 17.623 15.994c-2.636 3.537-12.934 12.292-12.934 12.292 15.257-6.3 19.165-14.206 19.165-14.206"/></g><path data-name="Union 3" d="M102.274 58.389a8.111 8.111 0 001.392 4.481 12.672 12.672 0 003.8 3.663 20.1 20.1 0 005.634 2.468 26.1 26.1 0 006.9.906 26.076 26.076 0 006.9-.906 20.057 20.057 0 005.636-2.468 12.726 12.726 0 003.8-3.663 8.117 8.117 0 001.388-4.481 7.677 7.677 0 00-.159-1.549c-.568 2.536-2.651 4.866-5.851 6.567a25.447 25.447 0 01-11.716 2.66 25.469 25.469 0 01-11.714-2.66c-3.208-1.701-5.286-4.033-5.852-6.567a7.7 7.7 0 00-.158 1.549zm36.363 8.051a12.758 12.758 0 00-5.076 1.457 20.109 20.109 0 00-4.958 3.637 26.646 26.646 0 00-6.9 11.932 20.027 20.027 0 00-.676 6.105 12.639 12.639 0 001.276 5.116 8.12 8.12 0 003.189 3.445 7.513 7.513 0 001.423.638c-1.914-1.759-2.9-4.724-2.769-8.345a25.422 25.422 0 013.551-11.458 25.423 25.423 0 018.163-8.8c3.08-1.927 6.142-2.557 8.624-1.777a7.765 7.765 0 00-1.265-.91 8.03 8.03 0 00-4.072-1.05 5.484 5.484 0 00-.51.01zm-41.861 1.035a7.737 7.737 0 00-1.262.91c2.48-.774 5.543-.144 8.619 1.78a25.37 25.37 0 018.164 8.8 25.346 25.346 0 013.55 11.458c.129 3.624-.854 6.587-2.77 8.345a7.723 7.723 0 001.425-.638 8.161 8.161 0 003.191-3.447 12.749 12.749 0 001.276-5.116 20.022 20.022 0 00-.678-6.105 26 26 0 00-2.663-6.422 25.95 25.95 0 00-4.237-5.513 19.915 19.915 0 00-4.958-3.637 12.737 12.737 0 00-5.073-1.45 10.987 10.987 0 00-.511-.012 8.029 8.029 0 00-4.073 1.047z"/></g><path data-name="Path 33391" d="M59.46 212.816l11.489-42.747c.25-.887-.321-1.618-1.284-1.148l-2.069 1.148-39.816 30.533H2.84c-2.819 0-3.247.939-2.533 4.176l3.39 15.5c.571 2.662 1.641 1.879 4 .052l22.183-17.379h28.651l-3.39 12.37c-.357 1.3.214 1.618 1.32 1.148l23.513-9.813a3.186 3.186 0 001.748-2.818zM32.7 200.602l33.717-26.46-7.243 26.463zm-8.028 2.349l-17.661 13.31c-.821.626-1.356.783-1.713-.313l-3.746-11.744c-.25-.783 0-1.253.785-1.253zm67.4-3.549a32.313 32.313 0 008.6-9.291l8.385-.052-5.53 9.76c-3.6 2.766-11.846 6.524-16.163 7.934zm11.2-19.051a38.132 38.132 0 01-2.676 7.151l-1.891.052.821-1.357c2.214-3.967 3.534-6.055 3.534-6.055.286-.522.393-.366.215.209zm15.307 0a37.621 37.621 0 01-2.676 7.1h-1.784l.714-1.253c2.214-3.968 3.534-6.056 3.534-6.056.286-.522.393-.366.213.209zm-24.155 14.823s1.213-2.088 2.89-5.063l1.606-.052a22.938 22.938 0 01-4.494 5.115zm15.307 0s1.213-2.088 2.89-5.063h1.606a22.684 22.684 0 01-4.494 5.063zM82.08 210.78c-.607 1.1.036 1.461 1.035 1.044 0 0 11.1-4.071 18.553-8.716l-4.282 7.673c-.607 1.1.036 1.461 1.035 1.044l12.381-5.219a3.141 3.141 0 001.714-2.764l-9.848 3.915 4.71-8.351a32.058 32.058 0 008.6-9.238l20.694.47c3.175.052 3.461-3.236 3.461-3.236h-22.587a37.258 37.258 0 002.747-8.508c.5-2.662.392-4.123-.428-4.123-.785 0-2.105.679-4.317 4.123-2.069 3.184-3.247 5.115-5.174 8.56l-8.135.052a38.2 38.2 0 002.747-8.612c.5-2.662.392-4.123-.428-4.123-.785 0-2.105.679-4.317 4.123-2.069 3.184-3.318 5.324-5.245 8.769l-3.818.052c-1.82 0-2.176 2.036-2.176 2.036l4.745.261-5.53 9.813a48.134 48.134 0 01-10.169 5.585 3.031 3.031 0 00-1.748 2.818 44.987 44.987 0 0010.062-5.115zm62.226-6.938l-9.848 3.967 3.532-6.211c.5-.887 0-1.566-1-1.148l-6.173 2.505c-.5-.939-1.82-2.61-5.459-2.61-3.461 0-5.637.47-14.522 4.123l-2.176.94a3.186 3.186 0 00-1.746 2.814l4.067-1.566a45.2 45.2 0 005.6-2.505 9.5 9.5 0 00-3.6 6.629c0 1.1.607 1.461 2.212.835l17.483-7.046-3.461 6.159c-.607 1.1-.107 1.566 1 1.1l12.345-5.219a3.126 3.126 0 001.746-2.767zm-15.414-.209a92.941 92.941 0 01-9.241 3.81c-1.606.574-1.748.418-1.57-.261.464-1.879 3.39-4.645 7.279-4.645 2.391-.004 3.069.623 3.533 1.092zm15.488 7.147c-.607 1.1.036 1.461 1.035 1.044l10.847-4.541c-.285 3.236 1.106 4.906 3.39 4.906 4.246 0 10.026-3.079 15.414-5.585a3.1 3.1 0 001.709-2.762c-5.6 2.4-12.238 5.794-15.414 5.794-2.141 0-1.641-2.662-1.5-3.706l7.172-3.236c2.64-1.1 1.748-3.288 1.748-3.288-3 1.148-8.92 4.019-8.92 4.019s-.892-.313-2.105-.626c-1.177-.313-1.392 2.453-1.392 2.453l-6.708 2.505 4.71-8.351c6.743-5.637 13.915-14.614 16.092-26.1.5-2.662.392-4.123-.392-4.123-.821 0-2.105 1.357-4.353 4.8-3.675 5.689-7.671 12.579-15.2 25.836a48.134 48.134 0 01-10.169 5.585 3.031 3.031 0 00-1.747 2.818 44.987 44.987 0 0010.062-5.115zm24.4-36.014a43.888 43.888 0 01-12.06 20.408s5.566-9.708 8.278-14.562c2.248-3.967 3.532-6.107 3.532-6.107.288-.47.395-.313.25.261zm39.892 29.076l-9.847 3.963 3.532-6.211c.5-.887 0-1.566-1-1.148l-6.173 2.505c-.5-.939-1.82-2.61-5.459-2.61-3.461 0-5.637.47-14.522 4.123l-2.176.94a3.186 3.186 0 00-1.747 2.818l4.067-1.566a45.2 45.2 0 005.6-2.505 9.5 9.5 0 00-3.6 6.629c0 1.1.607 1.461 2.212.835l17.482-7.046-3.461 6.159c-.607 1.1-.107 1.566 1 1.1l12.344-5.224a3.126 3.126 0 001.748-2.762zm-15.414-.209a92.939 92.939 0 01-9.241 3.81c-1.606.574-1.748.418-1.57-.261.464-1.879 3.39-4.645 7.279-4.645 2.391-.004 3.069.623 3.533 1.092zm46.74.209l-9.848 3.967 2.93-5.167c1.106-1.983.678-2.61-1.677-1.931a108.882 108.882 0 00-17.412 7.046l3.5-6.107c.5-.887.143-1.618-.963-1.148l-11.816 4.902a3.186 3.186 0 00-1.748 2.818l9.277-3.654-3.5 6.211c-.642 1.148-.357 1.722.963 1.1a141.779 141.779 0 0117.626-7.2c.785-.261.963 0 .392 1.044l-2.815 5.057c-.5.835-.143 1.566.963 1.1l12.381-5.219a3.186 3.186 0 001.748-2.819z"/></g></svg>