<?xml version="1.0" encoding="utf-8"?><svg xmlns="http://www.w3.org/2000/svg" xmlns:xlink="http://www.w3.org/1999/xlink"><symbol viewBox="0 0 270 70.018" id="common-logo" xmlns="http://www.w3.org/2000/svg"><g clip-path="url(#a)"><path d="M54.945 28.522s2.222 3.687 5.862 4.775 4.869 1.714 5.188 2.068c0 0-3.1.832-7.484 4.355a27.94 27.94 0 00-2.042 1.819 22.4 22.4 0 01-17.5 5.857s7.86-.2 13.515-5.4 6.447-6.071 7.794-7a12.413 12.413 0 01-5.33-6.473"/><path d="M52.422 45.773s-2.063 3.779-1.165 7.47.977 5.069.832 5.523c0 0-2.282-2.257-7.536-4.264-.852-.325-1.721-.6-2.6-.845a22.4 22.4 0 01-13.889-12.158s4.139 6.685 11.482 8.944 8.494 2.5 9.976 3.2a12.413 12.413 0 012.9-7.868"/><path d="M36.369 52.174s-4.3.1-7.056 2.716-3.906 3.375-4.372 3.476c0 0 .818-3.1-.063-8.659-.143-.9-.334-1.793-.564-2.675a22.4 22.4 0 013.61-18.1s-3.729 6.92-2.021 14.411 2.063 8.611 2.2 10.24a12.413 12.413 0 018.266-1.411"/><path d="M22.591 41.415s-2.212-3.693-5.849-4.791-4.865-1.727-5.183-2.082c0 0 3.1-.823 7.5-4.335a28.144 28.144 0 002.047-1.813 22.4 22.4 0 0117.52-5.809s-7.86.179-13.529 5.364-6.464 6.052-7.813 6.979a12.413 12.413 0 015.307 6.487"/><path d="M25.095 24.245s2.063-3.779 1.166-7.47-.976-5.069-.831-5.523c0 0 2.282 2.257 7.536 4.265.852.326 1.721.6 2.6.846a22.4 22.4 0 0113.887 12.159s-4.138-6.685-11.481-8.945-8.494-2.5-9.976-3.2a12.412 12.412 0 01-2.9 7.868"/><path d="M41.264 17.702s4.3-.085 7.063-2.7 3.915-3.364 4.382-3.464c0 0-.827 3.1.038 8.659.14.9.329 1.794.557 2.677a22.4 22.4 0 01-3.661 18.091s3.749-6.911 2.066-14.407-2.042-8.617-2.175-10.248a12.413 12.413 0 01-8.269 1.388"/><path d="M29.254 4.379l9.525 3.14 9.525-3.14s2.617 6.149.863 11.933c0 0-.1-6.28-1.753-8.374l-8.635 2.931-8.636-2.931c-1.648 2.093-1.754 8.374-1.754 8.374-1.753-5.783.864-11.933.864-11.933"/><path d="M27.99 0l10.79 3.314L49.57 0s2.233 3.28 1.326 10.641a61.7 61.7 0 00-1.954-7.78L38.78 6.21 28.618 2.861a61.687 61.687 0 00-1.955 7.781C25.756 3.28 27.989.001 27.989.001M4.434 30.788l7.422-6.746 1.955-9.837s6.641.749 10.812 5.122c0 0-5.518-3-8.152-2.6l-1.7 8.959-6.8 6.074c1.011 2.466 6.426 5.648 6.426 5.648-5.9-1.321-9.962-6.625-9.962-6.625"/><path d="M0 29.735l8.2-7.761 2.422-11.027s3.954-.329 9.916 4.084a61.7 61.7 0 00-7.734-2.129l-2.087 10.494-7.918 7.2a61.707 61.707 0 005.811 5.531C1.756 33.293 0 29.735 0 29.735M27.516 65.776l-5.635-8.3-9.464-3.319s1.675-6.47 6.591-9.984c0 0-3.746 5.042-3.716 7.706l8.632 2.942 5.057 7.588c2.583-.654 6.5-5.568 6.5-5.568-2.136 5.653-7.96 8.931-7.96 8.931"/><path d="M25.849 70.017l-6.531-9.206L8.745 56.86s.23-3.961 5.438-9.243a61.7 61.7 0 00-3.2 7.358l10.1 3.541 6.012 8.851a61.7 61.7 0 006.293-4.976c-3.769 6.389-7.539 7.626-7.539 7.626M50.042 65.776l5.635-8.3 9.464-3.319s-1.675-6.47-6.591-9.984c0 0 3.746 5.042 3.716 7.706l-8.632 2.942-5.057 7.588c-2.583-.654-6.5-5.568-6.5-5.568 2.137 5.653 7.96 8.931 7.96 8.931"/><path d="M51.709 70.017l6.532-9.205 10.573-3.952s-.23-3.961-5.438-9.243a61.7 61.7 0 013.2 7.358l-10.1 3.541-6.012 8.851a61.7 61.7 0 01-6.293-4.976c3.77 6.388 7.539 7.626 7.539 7.626M73.125 30.788l-7.422-6.746-1.955-9.837s-6.641.749-10.812 5.122c0 0 5.518-3 8.152-2.6l1.7 8.959 6.8 6.074c-1.011 2.466-6.426 5.648-6.426 5.648 5.9-1.321 9.962-6.625 9.962-6.625"/><path d="M77.559 29.735l-8.2-7.761-2.422-11.027s-3.954-.329-9.916 4.084a61.7 61.7 0 017.734-2.129l2.087 10.494 7.918 7.2a61.709 61.709 0 01-5.811 5.531c6.855-2.834 8.611-6.392 8.611-6.392"/></g><path d="M30.815 26.276a3.653 3.653 0 00.626 2.016 5.7 5.7 0 001.706 1.645 9.024 9.024 0 002.531 1.111 11.709 11.709 0 003.1.408 11.7 11.7 0 003.1-.408 9 9 0 002.532-1.111 5.721 5.721 0 001.707-1.648 3.656 3.656 0 00.626-2.013 3.459 3.459 0 00-.072-.7 4.77 4.77 0 01-2.631 2.954 11.419 11.419 0 01-5.262 1.198 11.429 11.429 0 01-5.263-1.2 4.765 4.765 0 01-2.629-2.952 3.468 3.468 0 00-.071.7zm16.338 3.618a5.726 5.726 0 00-2.281.656 9.036 9.036 0 00-2.228 1.636 11.994 11.994 0 00-3.1 5.369 9.024 9.024 0 00-.3 2.747 5.694 5.694 0 00.573 2.3 3.651 3.651 0 001.433 1.55 3.373 3.373 0 00.639.287 4.774 4.774 0 01-1.244-3.755 11.451 11.451 0 011.6-5.156 11.433 11.433 0 013.66-3.952 4.758 4.758 0 013.873-.8 3.489 3.489 0 00-.568-.41 3.6 3.6 0 00-1.83-.473 2.46 2.46 0 00-.227.001zm-18.808.467a3.476 3.476 0 00-.567.41 4.767 4.767 0 013.872.805 11.408 11.408 0 013.668 3.955 11.417 11.417 0 011.6 5.156 4.764 4.764 0 01-1.245 3.755 3.467 3.467 0 00.64-.287 3.67 3.67 0 001.434-1.551 5.743 5.743 0 00.573-2.3 9.022 9.022 0 00-.3-2.747 11.707 11.707 0 00-1.2-2.888 11.674 11.674 0 00-1.9-2.481 8.948 8.948 0 00-2.236-1.638 5.716 5.716 0 00-2.279-.656c-.077 0-.154-.005-.23-.005a3.6 3.6 0 00-1.83.472zM128.246 48.711l9.021-33.614c.2-.7-.252-1.272-1.009-.9l-1.625.9-31.264 24.01H83.787c-2.213 0-2.549.739-1.989 3.283l2.661 12.19c.448 2.093 1.289 1.478 3.138.041l17.425-13.667h22.5l-2.661 9.727c-.28 1.026.168 1.272 1.037.9l18.462-7.716a2.506 2.506 0 001.373-2.216zm-21.011-9.6l26.474-20.809-5.687 20.809zm-6.3 1.847L87.068 51.424c-.644.493-1.065.616-1.345-.246l-2.942-9.235c-.2-.616 0-.985.616-.985zm52.919-2.791a25.394 25.394 0 006.751-7.306l6.583-.041-4.342 7.675c-2.829 2.175-9.3 5.13-12.691 6.238zm8.8-14.981a30.016 30.016 0 01-2.1 5.623l-1.485.041.644-1.067c1.737-3.119 2.773-4.761 2.773-4.761.218-.415.302-.291.162.16zm12.018 0a29.61 29.61 0 01-2.1 5.582h-1.4l.56-.985c1.737-3.119 2.773-4.761 2.773-4.761.217-.415.301-.291.161.16zM155.7 34.838s.952-1.642 2.269-3.981l1.261-.041a18.029 18.029 0 01-3.53 4.022zm12.018 0s.952-1.642 2.269-3.981h1.261a17.828 17.828 0 01-3.53 3.981zM146.007 47.11c-.476.862.028 1.149.812.821a95.682 95.682 0 0014.568-6.854l-3.362 6.033c-.476.862.028 1.149.812.821l9.721-4.1a2.47 2.47 0 001.345-2.175l-7.732 3.078 3.7-6.567a25.194 25.194 0 006.751-7.265l16.248.369a2.726 2.726 0 002.717-2.545h-17.733a29.329 29.329 0 002.157-6.69c.392-2.093.308-3.242-.336-3.242-.616 0-1.653.534-3.39 3.242a101.075 101.075 0 00-4.062 6.731l-6.387.041a30.072 30.072 0 002.157-6.772c.392-2.093.308-3.242-.336-3.242-.616 0-1.653.534-3.39 3.242-1.625 2.5-2.605 4.186-4.118 6.9l-3 .041c-1.429 0-1.709 1.6-1.709 1.6l3.726.205-4.342 7.716a37.777 37.777 0 01-7.984 4.392 2.384 2.384 0 00-1.373 2.216 35.3 35.3 0 007.9-4.022zm48.857-5.463l-7.732 3.119 2.773-4.884c.392-.7 0-1.231-.784-.9l-4.846 1.97c-.392-.739-1.429-2.052-4.286-2.052-2.717 0-4.426.369-11.4 3.242l-1.709.739a2.506 2.506 0 00-1.373 2.216l3.194-1.231a35.461 35.461 0 004.4-1.97 7.474 7.474 0 00-2.829 5.212c0 .862.476 1.149 1.737.657l13.727-5.541-2.717 4.843c-.476.862-.084 1.231.784.862l9.693-4.1a2.459 2.459 0 001.368-2.182zm-12.1-.164a72.914 72.914 0 01-7.256 3c-1.261.451-1.373.328-1.233-.205.364-1.478 2.661-3.653 5.715-3.653 1.875 0 2.408.493 2.772.862zm12.158 5.623c-.476.862.028 1.149.812.821l8.516-3.571c-.224 2.545.868 3.858 2.661 3.858 3.334 0 7.872-2.422 12.1-4.392a2.436 2.436 0 001.346-2.175c-4.4 1.888-9.609 4.556-12.1 4.556-1.681 0-1.289-2.093-1.177-2.914l5.631-2.545a1.984 1.984 0 001.373-2.586c-2.353.9-7 3.16-7 3.16s-.7-.246-1.653-.493c-.924-.246-1.093 1.929-1.093 1.929l-5.267 1.97 3.7-6.567c5.295-4.433 10.926-11.492 12.635-20.521.392-2.093.308-3.242-.308-3.242-.644 0-1.653 1.067-3.418 3.776-2.893 4.477-6.03 9.896-11.94 20.321a37.776 37.776 0 01-7.984 4.392 2.384 2.384 0 00-1.373 2.216 35.3 35.3 0 007.9-4.022zm19.162-28.319a34.522 34.522 0 01-9.469 16.048s4.37-7.634 6.5-11.451c1.765-3.119 2.773-4.8 2.773-4.8.222-.368.306-.245.194.206zm31.318 22.86l-7.732 3.119 2.77-4.88c.392-.7 0-1.231-.784-.9l-4.847 1.97c-.392-.739-1.429-2.052-4.286-2.052-2.717 0-4.426.369-11.4 3.242l-1.709.739a2.506 2.506 0 00-1.374 2.214l3.194-1.231a35.461 35.461 0 004.4-1.97 7.474 7.474 0 00-2.829 5.212c0 .862.476 1.149 1.737.657l13.727-5.541-2.717 4.843c-.476.862-.084 1.231.784.862l9.693-4.1a2.459 2.459 0 001.373-2.184zm-12.1-.164a72.914 72.914 0 01-7.256 3c-1.261.451-1.373.328-1.233-.205.364-1.478 2.661-3.653 5.715-3.653 1.876 0 2.412.493 2.772.862zm36.7.164l-7.732 3.119 2.3-4.063c.868-1.56.532-2.052-1.317-1.519a85.416 85.416 0 00-13.671 5.541l2.745-4.8c.392-.7.112-1.272-.756-.9l-9.273 3.858a2.506 2.506 0 00-1.373 2.216l7.284-2.873-2.745 4.884c-.5.9-.28 1.354.756.862a111.223 111.223 0 0113.839-5.664c.616-.205.756 0 .308.821l-2.213 3.981c-.392.657-.112 1.231.756.862l9.721-4.1a2.506 2.506 0 001.368-2.225z"/></symbol><symbol viewBox="0 0 427.531 396.059" id="favicon" xmlns="http://www.w3.org/2000/svg"><g clip-path="url(#a)" transform="translate(60.009)"><path d="M217.85 113.084s8.81 14.62 23.242 18.931 19.307 6.794 20.571 8.2c0 0-12.293 3.3-29.672 17.269a112.237 112.237 0 00-8.1 7.212c-6.381 6.245-30.255 26.439-69.4 23.223 0 0 31.162-.8 53.584-21.414s25.562-24.069 30.9-27.756a49.218 49.218 0 01-21.133-25.664"/><path d="M207.849 181.483s-8.179 14.982-4.619 29.618 3.874 20.1 3.3 21.9c0 0-9.05-8.949-29.88-16.907a109.89 109.89 0 00-10.31-3.351c-8.612-2.359-38.093-12.783-55.065-48.2 0 0 16.409 26.5 45.524 35.461s33.677 9.927 39.555 12.679a49.216 49.216 0 0111.5-31.2"/><path d="M144.2 206.861s-17.066.384-27.976 10.77-15.486 13.381-17.334 13.781c0 0 3.242-12.307-.25-34.33a111.3 111.3 0 00-2.238-10.608c-2.251-8.64-7.921-39.393 14.314-71.769 0 0-14.786 27.441-8.029 57.143s8.194 34.141 8.74 40.609a49.216 49.216 0 0132.772-5.6"/><path d="M89.59 164.193s-8.77-14.644-23.191-19-19.288-6.847-20.548-8.257c0 0 12.3-3.264 29.719-17.187a111.347 111.347 0 008.116-7.189c6.4-6.227 30.328-26.356 69.464-23.033 0 0-31.164.711-53.642 21.268s-25.629 24-30.98 27.671a49.217 49.217 0 0121.062 25.727"/><path d="M99.499 96.131s8.18-14.982 4.621-29.618-3.871-20.1-3.3-21.9c0 0 9.05 8.95 29.878 16.909 3.378 1.291 6.823 2.4 10.31 3.353 8.612 2.359 38.092 12.786 55.062 48.208 0 0-16.408-26.5-45.52-35.465s-33.674-9.924-39.552-12.681a49.214 49.214 0 01-11.5 31.194"/><path d="M163.606 70.184s17.066-.335 28.006-10.69 15.524-13.338 17.374-13.733c0 0-3.279 12.3.151 34.33a111.245 111.245 0 002.207 10.615c2.227 8.646 7.809 39.414-14.517 71.729 0 0 14.863-27.4 8.19-57.121s-8.1-34.164-8.625-40.633a49.217 49.217 0 01-32.787 5.5"/><path d="M115.991 17.362l37.767 12.451 37.765-12.451s10.376 24.382 3.424 47.312c0 0-.415-24.9-6.951-33.2l-34.238 11.62-34.24-11.62c-6.536 8.3-6.951 33.2-6.951 33.2-6.952-22.93 3.424-47.312 3.424-47.312"/><path d="M110.975 0l42.781 13.142L196.537.001s8.853 13 5.257 42.192c0 0-4.566-23.656-7.747-30.849l-40.29 13.28-40.292-13.282c-3.182 7.193-7.746 30.849-7.746 30.849-3.6-29.188 5.257-42.192 5.257-42.192M17.581 122.078l29.428-26.745 7.752-39s26.331 2.97 42.867 20.308c0 0-21.878-11.9-32.321-10.291l-6.739 35.523L31.6 125.949c4.007 9.776 25.479 22.394 25.479 22.394-23.381-5.236-39.5-26.269-39.5-26.269"/><path d="M0 117.896l32.5-30.77 9.619-43.708s15.678-1.306 39.315 16.193c0 0-22.838-7.671-30.666-8.442l-8.276 41.607L11.1 121.31c4.7 6.31 23.041 21.929 23.041 21.929C6.961 132.001 0 117.896 0 117.896M109.101 260.795l-22.342-32.9-37.525-13.155s6.643-25.651 26.133-39.587c0 0-14.852 19.99-14.734 30.554l34.223 11.666 20.052 30.087c10.242-2.594 25.753-22.078 25.753-22.078-8.471 22.413-31.561 35.412-31.561 35.412"/><path d="M102.49 277.613l-25.9-36.5-41.917-15.67s.911-15.705 21.561-36.647c0 0-10.806 21.533-12.67 29.175l40.032 14.04 23.837 35.093c6.908-3.762 24.95-19.728 24.95-19.728-14.946 25.328-29.893 30.237-29.893 30.237M198.412 260.795l22.342-32.9 37.525-13.155s-6.642-25.651-26.133-39.587c0 0 14.853 19.99 14.734 30.554l-34.224 11.666-20.052 30.087c-10.242-2.594-25.753-22.078-25.753-22.078 8.471 22.413 31.561 35.412 31.561 35.412"/><path d="M205.022 277.613l25.9-36.5 41.921-15.669s-.915-15.706-21.564-36.648c0 0 10.806 21.533 12.67 29.175l-40.032 14.04-23.838 35.093c-6.908-3.762-24.95-19.728-24.95-19.728 14.947 25.329 29.893 30.237 29.893 30.237M289.933 122.078l-29.428-26.749-7.752-39s-26.331 2.97-42.867 20.308c0 0 21.878-11.9 32.321-10.291l6.739 35.523 26.969 24.083c-4.007 9.776-25.479 22.394-25.479 22.394 23.381-5.236 39.5-26.269 39.5-26.269"/><path d="M307.512 117.896l-32.5-30.77-9.619-43.708s-15.678-1.306-39.315 16.193c0 0 22.838-7.671 30.666-8.442l8.273 41.609 31.393 28.534c-4.7 6.31-23.041 21.929-23.041 21.929 27.179-11.238 34.14-25.345 34.14-25.345"/></g><path d="M182.189 104.169a14.5 14.5 0 002.48 8 22.6 22.6 0 006.766 6.533 35.745 35.745 0 0010.037 4.4 46.368 46.368 0 0012.291 1.617 46.332 46.332 0 0012.285-1.614 35.658 35.658 0 0010.039-4.4 22.7 22.7 0 006.768-6.533 14.5 14.5 0 002.482-8 13.7 13.7 0 00-.281-2.767c-1.012 4.521-4.719 8.68-10.43 11.713a45.277 45.277 0 01-20.863 4.746 45.311 45.311 0 01-20.867-4.746c-5.715-3.029-9.416-7.192-10.426-11.713a13.767 13.767 0 00-.281 2.764zm64.777 14.359a22.685 22.685 0 00-9.043 2.6 35.825 35.825 0 00-8.832 6.49 47.545 47.545 0 00-12.289 21.287 35.758 35.758 0 00-1.2 10.893 22.572 22.572 0 002.273 9.125 14.487 14.487 0 005.68 6.146 13.489 13.489 0 002.532 1.136c-3.41-3.139-5.158-8.428-4.934-14.889a45.414 45.414 0 016.326-20.441 45.329 45.329 0 0114.541-15.7c5.486-3.436 10.941-4.561 15.363-3.17a13.744 13.744 0 00-2.254-1.625 14.278 14.278 0 00-7.252-1.875c-.301 0-.604.007-.911.023zm-74.57 1.852a13.763 13.763 0 00-2.248 1.625c4.418-1.383 9.873-.258 15.354 3.174a45.242 45.242 0 0114.546 15.697 45.265 45.265 0 016.324 20.441c.23 6.465-1.521 11.754-4.934 14.889a13.729 13.729 0 002.537-1.139 14.545 14.545 0 005.686-6.15 22.756 22.756 0 002.273-9.125 35.753 35.753 0 00-1.21-10.887 46.431 46.431 0 00-4.746-11.455 46.262 46.262 0 00-7.547-9.834 35.506 35.506 0 00-8.832-6.49 22.642 22.642 0 00-9.037-2.6 17.436 17.436 0 00-.91-.023 14.275 14.275 0 00-7.256 1.877zM105.921 379.669l20.466-76.263c.445-1.583-.572-2.887-2.288-2.049l-3.686 2.049-70.933 54.478H5.052c-5.021 0-5.784 1.676-4.513 7.449l6.038 27.656c1.017 4.749 2.924 3.352 7.119.093l39.534-31.008h51.038l-6.038 22.069c-.636 2.328.381 2.887 2.352 2.049l41.885-17.506c3.114-1.3 3.114-5.028 3.114-5.028zm-47.669-21.785l60.063-47.215-12.9 47.21zm-14.3 4.19L12.49 385.819c-1.462 1.117-2.415 1.4-3.051-.559l-6.674-20.951c-.445-1.4 0-2.235 1.4-2.235zm120.062-6.331a57.613 57.613 0 0015.318-16.574l14.936-.093-9.851 17.412c-6.419 4.935-21.1 11.64-28.792 14.154zm19.958-33.988a68.092 68.092 0 01-4.767 12.757l-3.369.093 1.462-2.421c3.941-7.077 6.292-10.8 6.292-10.8.509-.933.7-.653.382.371zm27.267 0a67.18 67.18 0 01-4.767 12.664h-3.178l1.271-2.235c3.941-7.077 6.292-10.8 6.292-10.8.509-.933.7-.653.382.371zm-43.03 26.445s2.161-3.725 5.148-9.032l2.86-.093a40.9 40.9 0 01-8.008 9.125zm27.267 0s2.161-3.724 5.148-9.031h2.856a40.449 40.449 0 01-8 9.031zm-49.258 27.842c-1.081 1.955.064 2.607 1.843 1.862 0 0 19.767-7.263 33.051-15.551l-7.632 13.689c-1.081 1.955.064 2.607 1.843 1.862l22.057-9.311c3.051-1.3 3.051-4.935 3.051-4.935l-17.542 6.984 8.39-14.9a57.159 57.159 0 0015.32-16.481l36.864.838c5.657.093 6.165-5.773 6.165-5.773h-40.232a66.54 66.54 0 004.894-15.178c.89-4.749.7-7.356-.763-7.356-1.4 0-3.75 1.211-7.691 7.356-3.686 5.68-5.784 9.121-9.216 15.271l-14.491.093a68.224 68.224 0 004.894-15.364c.89-4.749.7-7.356-.763-7.356-1.4 0-3.75 1.211-7.691 7.356-3.686 5.68-5.911 9.5-9.343 15.644l-6.8.093c-3.242 0-3.877 3.632-3.877 3.632l8.453.466-9.852 17.505a85.707 85.707 0 01-18.114 9.964c-3.242 1.3-3.114 5.028-3.114 5.028 6.864-2.7 13.665-5.866 17.924-9.125zm110.847-12.384l-17.542 7.077 6.292-11.081c.89-1.583 0-2.794-1.78-2.049l-11 4.47c-.885-1.676-3.237-4.656-9.72-4.656-6.165 0-10.042.838-25.869 7.356l-3.877 1.676c-3.114 1.3-3.114 5.028-3.114 5.028l7.246-2.794a80.454 80.454 0 009.979-4.469c-5.148 4.47-6.419 9.5-6.419 11.826 0 1.955 1.081 2.607 3.941 1.49l31.143-12.571-6.165 10.988c-1.081 1.955-.191 2.794 1.78 1.955l21.99-9.311c3.115-1.304 3.115-4.935 3.115-4.935zm-27.458-.372s-4.449 2.328-16.462 6.8c-2.86 1.024-3.114.745-2.8-.466.826-3.352 6.038-8.287 12.966-8.287 4.262-.003 5.469 1.114 6.296 1.952zm27.585 12.756c-1.081 1.955.064 2.607 1.843 1.862l19.322-8.1c-.508 5.773 1.97 8.753 6.038 8.753 7.564 0 17.86-5.494 27.458-9.964a5.528 5.528 0 003.051-4.935c-9.979 4.283-21.8 10.336-27.458 10.336-3.814 0-2.924-4.749-2.669-6.611l12.775-5.774c4.7-1.955 3.114-5.866 3.114-5.866-5.339 2.049-15.89 7.17-15.89 7.17s-1.589-.559-3.75-1.117c-2.1-.559-2.479 4.377-2.479 4.377l-11.949 4.47 8.39-14.9c12.013-10.057 24.792-26.074 28.666-46.559.89-4.749.7-7.356-.7-7.356-1.462 0-3.75 2.421-7.754 8.567-6.546 10.149-13.665 22.441-27.076 46.093a85.707 85.707 0 01-18.114 9.963c-3.242 1.3-3.114 5.028-3.114 5.028 6.864-2.7 13.665-5.866 17.924-9.125zm43.474-64.251A78.322 78.322 0 01279.18 348.2s9.915-17.32 14.746-25.98c4-7.077 6.292-10.895 6.292-10.895.512-.837.703-.556.448.466zm71.059 51.866l-17.545 7.078 6.3-11.081c.89-1.583 0-2.794-1.78-2.049l-11 4.47c-.89-1.676-3.242-4.656-9.725-4.656-6.165 0-10.042.838-25.869 7.356l-3.877 1.676c-3.114 1.3-3.114 5.028-3.114 5.028l7.246-2.794a80.454 80.454 0 009.979-4.47c-5.148 4.47-6.419 9.5-6.419 11.826 0 1.955 1.081 2.607 3.941 1.49l31.144-12.571-6.166 10.989c-1.081 1.955-.191 2.794 1.78 1.955l21.991-9.312c3.114-1.303 3.114-4.934 3.114-4.934zm-27.458-.372s-4.449 2.328-16.462 6.8c-2.86 1.024-3.114.745-2.8-.466.826-3.352 6.038-8.287 12.966-8.287 4.263-.002 5.471 1.115 6.297 1.953zm83.262.372l-17.542 7.077 5.212-9.219c1.97-3.538 1.208-4.656-2.987-3.445a193.792 193.792 0 00-31.017 12.571l6.229-10.895c.89-1.583.254-2.887-1.716-2.049l-21.038 8.754c-3.114 1.3-3.114 5.028-3.114 5.028l16.524-6.518-6.229 11.081c-1.144 2.049-.636 3.073 1.716 1.955 15.572-7.263 24.28-10.615 31.4-12.85 1.4-.466 1.716 0 .7 1.862l-5.021 9.032c-.89 1.49-.254 2.794 1.716 1.955l22.055-9.312c3.113-1.302 3.113-5.026 3.113-5.026z"/></symbol><symbol viewBox="0 0 28 28" id="insta" xmlns="http://www.w3.org/2000/svg"><g clip-path="url(#a)"><path d="M14 2.523c3.738 0 4.181.014 5.657.082a7.745 7.745 0 012.6.482 4.338 4.338 0 011.61 1.047 4.338 4.338 0 011.047 1.61 7.746 7.746 0 01.482 2.6c.067 1.476.082 1.919.082 5.657s-.014 4.181-.082 5.657a7.746 7.746 0 01-.482 2.6 4.636 4.636 0 01-2.657 2.657 7.746 7.746 0 01-2.6.482c-1.476.067-1.919.082-5.657.082s-4.181-.014-5.657-.082a7.746 7.746 0 01-2.6-.482 4.339 4.339 0 01-1.61-1.047 4.338 4.338 0 01-1.047-1.61 7.748 7.748 0 01-.482-2.6c-.067-1.476-.082-1.919-.082-5.657s.014-4.181.082-5.657a7.748 7.748 0 01.482-2.6 4.338 4.338 0 011.047-1.61 4.339 4.339 0 011.61-1.047 7.746 7.746 0 012.6-.482c1.476-.067 1.919-.082 5.657-.082M14 0c-3.8 0-4.28.016-5.773.084a10.277 10.277 0 00-3.4.651A6.863 6.863 0 002.349 2.35 6.863 6.863 0 00.734 4.829a10.276 10.276 0 00-.651 3.4C.015 9.721 0 10.2 0 14s.016 4.279.084 5.772a10.276 10.276 0 00.651 3.4 6.863 6.863 0 001.615 2.48 6.863 6.863 0 002.48 1.615 10.277 10.277 0 003.4.651C9.72 27.984 10.2 28 14 28s4.279-.016 5.772-.084a10.277 10.277 0 003.4-.651 7.159 7.159 0 004.094-4.095 10.276 10.276 0 00.651-3.4C27.983 18.279 28 17.8 28 14s-.016-4.279-.084-5.772a10.276 10.276 0 00-.651-3.4 6.864 6.864 0 00-1.615-2.48A6.863 6.863 0 0023.17.735a10.277 10.277 0 00-3.4-.651C18.278.016 17.8 0 14 0"/><path d="M14 6.81a7.189 7.189 0 107.189 7.189A7.189 7.189 0 0014 6.81m0 11.856a4.667 4.667 0 114.667-4.667A4.667 4.667 0 0114 18.666M23.153 6.526a1.68 1.68 0 11-1.68-1.68 1.68 1.68 0 011.68 1.68"/></g></symbol><symbol viewBox="0 0 268.654 27.133" id="lead-title-sp" xmlns="http://www.w3.org/2000/svg"><path d="M0 21.934a2.354 2.354 0 01.758-1.692 3.466 3.466 0 011.679-.691 14.258 14.258 0 012.22-.162 18.767 18.767 0 00.934-2.478q.447-1.449.867-3.1t.812-3.371q.393-1.72.745-3.331t.677-2.938q.325-1.327.623-2.193-1.381.027-2.451.108t-2.017.217q-.948.135-1.95.325A2.679 2.679 0 014.603.678a11.693 11.693 0 014.306-.6q1.435 0 2.979.108t2.843.244q1.3.135 2.031.244a4.1 4.1 0 01-1.733 1.07 5.928 5.928 0 01-1.408.2h-1.584q-.691 0-1.34.027-.19.921-.42 2.248t-.514 2.843q-.284 1.516-.555 3.033t-.542 2.83q-.271 1.313-.487 2.18a17.924 17.924 0 01-.839 2.573 5.185 5.185 0 01-1.11 1.76q1.435.108 2.9.271t3.222.217a5.053 5.053 0 01-2.058 1.259 6.543 6.543 0 01-1.6.257q-1.814 0-3.019.014t-2.1.054q-.894.041-1.72.149T0 21.934zm16-1.137a2.655 2.655 0 01-1.923-.7 2.843 2.843 0 01-.731-2.139 11.607 11.607 0 01.42-2.762 34.146 34.146 0 011.07-3.412 3.807 3.807 0 00-.447-.095 2 2 0 01-.5-.149v-.839q.433.054.718.081l.582.054q.569-1.435 1.232-2.776a27.2 27.2 0 011.327-2.4 10.052 10.052 0 011.259-1.665 1.628 1.628 0 011.056-.609.793.793 0 01.515.2.715.715 0 01.244.582 3.588 3.588 0 01-.555 1.544q-.555 1-1.368 2.342t-1.571 2.857h.839q1.191 0 2.153-.041t1.963-.149v.899q-1.489.135-2.735.217t-2.383.108h-.325a25.718 25.718 0 00-.988 2.721 9.418 9.418 0 00-.42 2.721 2.652 2.652 0 00.352 1.571 1.309 1.309 0 001.11.46 4.3 4.3 0 002.776-1.232 10.66 10.66 0 002.478-3.344l.379.271a12.953 12.953 0 01-1.747 2.9 8.822 8.822 0 01-2.261 2.044 4.767 4.767 0 01-2.515.74zM26.182 3.954a1.4 1.4 0 01-.582-.528 1.327 1.327 0 01-.176-.663 3.313 3.313 0 01.244-1.178 3.922 3.922 0 01.636-1.11 1.1 1.1 0 01.826-.474.828.828 0 01.6.271 1.083 1.083 0 01.3.731 7.728 7.728 0 00-1.11 1.435 7.142 7.142 0 00-.734 1.516zm2.275 16.979a3.844 3.844 0 01-2.18-.555 3.107 3.107 0 01-1.178-1.408 4.539 4.539 0 01-.352-1.747 2.778 2.778 0 01.217-1.219 1.53 1.53 0 01.542-.636 3.548 3.548 0 01.609-.311 1.2 1.2 0 00.42-.244 19.542 19.542 0 001.395-1.638 10.467 10.467 0 001.232-2.072v-.271a2.453 2.453 0 01.366-1.53 1.079 1.079 0 01.853-.447.615.615 0 01.474.162.672.672 0 01.176.379 1.3 1.3 0 01-.068.379 2.076 2.076 0 00-.068.6 5.35 5.35 0 00.393 1.855q.393 1.043.785 2.207a7.41 7.41 0 01.393 2.383q0 .325-.027.6a4.382 4.382 0 01-.081.515 4.05 4.05 0 001.652-.934 7.31 7.31 0 001.544-2.126l.325.244a5.973 5.973 0 01-1.489 2.478 4.227 4.227 0 01-2.275 1.151 3.1 3.1 0 01-1.422 1.652 4.572 4.572 0 01-2.233.532zm-.19-1.191A1.919 1.919 0 0030 18.686a5.546 5.546 0 01-2-.867 5.979 5.979 0 01-1.381-1.273q-.379.081-.379.731a3.009 3.009 0 00.514 1.679 1.7 1.7 0 001.517.785zm1.95-1.868a2.027 2.027 0 00.068-.447q.014-.257.014-.393a10.907 10.907 0 00-.325-2.41q-.3-1.191-.6-2.437-.487.839-1.137 1.814a11.677 11.677 0 01-1.219 1.571 5.013 5.013 0 001.273 1.381 5.136 5.136 0 001.929.919zm20.743 2.221a2.25 2.25 0 01-1.611-.528 1.77 1.77 0 01-.555-1.34 3.879 3.879 0 01.19-1.151q.19-.609.379-1.232a4.09 4.09 0 00.19-1.191.9.9 0 00-.948-1.056 2.732 2.732 0 00-1.665.663 9.955 9.955 0 00-1.65 1.66q-.8 1-1.5 2.085t-1.219 1.95a2.706 2.706 0 01-.975-.176 1.76 1.76 0 01-.785-.609 7.643 7.643 0 01.311-.826q.284-.691.636-1.652a21.107 21.107 0 00.623-2.017 7.8 7.8 0 00.271-1.923 2.161 2.161 0 01.582-.433 1.685 1.685 0 01.826-.217q.948 0 .948.812a5.594 5.594 0 01-.122.961q-.122.636-.338 1.449a16.114 16.114 0 011.544-1.787 8.6 8.6 0 011.747-1.368 3.6 3.6 0 011.828-.528 1.962 1.962 0 011.72.785 2.936 2.936 0 01.555 1.733 4.189 4.189 0 01-.271 1.516q-.271.7-.528 1.327a3.179 3.179 0 00-.257 1.219.773.773 0 00.2.609.667.667 0 00.447.176 2.092 2.092 0 001.354-.623 7.977 7.977 0 001.34-1.584 18.489 18.489 0 001.124-1.936l.46.379a15.741 15.741 0 01-1.286 2.424 6.9 6.9 0 01-1.6 1.76 3.183 3.183 0 01-1.962.667zm5.47.325a1.738 1.738 0 01-1.665-.8 3.518 3.518 0 01-.447-1.747 6.184 6.184 0 01.271-1.774 7.305 7.305 0 01.745-1.692 4.793 4.793 0 011.056-1.259 1.861 1.861 0 011.178-.474 1.792 1.792 0 01.447.068.673.673 0 01.366.2 7.709 7.709 0 00-.663 1 12.575 12.575 0 00-.623 1.259 8.343 8.343 0 00-.447 1.34 5.369 5.369 0 00-.162 1.246 1.769 1.769 0 00.2.894.758.758 0 00.718.352 2.117 2.117 0 001.232-.582 10.61 10.61 0 001.367-1.34 4.729 4.729 0 01-1.246-1.72 6.015 6.015 0 01-.379-2.261 3.648 3.648 0 01.284-1.3 3.162 3.162 0 01.921-1.273 2.566 2.566 0 011.72-.542 1.9 1.9 0 011.638.65 2.549 2.549 0 01.474 1.544 5.839 5.839 0 01-.528 2.248 14.716 14.716 0 01-1.259 2.356 1.675 1.675 0 00.758.162 3.169 3.169 0 00.975-.19 3.484 3.484 0 001.11-.636 3.119 3.119 0 00.867-1.205l.487.352a4.358 4.358 0 01-1.579 2.024 3.572 3.572 0 01-1.936.636 3.72 3.72 0 01-.7-.068 4.251 4.251 0 01-.65-.176 10.579 10.579 0 01-2.112 1.9 4.243 4.243 0 01-2.415.808zm4.28-4.172a11.611 11.611 0 001.11-2.031 5.158 5.158 0 00.46-2 1.677 1.677 0 00-.19-.907.638.638 0 00-.569-.284q-.514 0-1.056.731a3.01 3.01 0 00-.542 1.841 5.853 5.853 0 00.2 1.381 3.209 3.209 0 00.587 1.269zm6.472 4.549a2.655 2.655 0 01-1.923-.7 2.843 2.843 0 01-.731-2.139 11.607 11.607 0 01.42-2.762 34.15 34.15 0 011.07-3.412 3.808 3.808 0 00-.447-.095 2 2 0 01-.5-.149v-.839q.433.054.718.081l.582.054q.569-1.435 1.232-2.776a27.2 27.2 0 011.327-2.4 10.051 10.051 0 011.259-1.665 1.628 1.628 0 011.056-.609.793.793 0 01.515.2.715.715 0 01.244.582 3.588 3.588 0 01-.555 1.544q-.555 1-1.367 2.342t-1.572 2.859h.839q1.191 0 2.153-.041t1.963-.149v.897q-1.489.135-2.735.217t-2.383.108h-.325a25.718 25.718 0 00-.988 2.721 9.418 9.418 0 00-.42 2.721 2.652 2.652 0 00.352 1.571 1.309 1.309 0 001.11.46 4.3 4.3 0 002.776-1.232 10.66 10.66 0 002.478-3.344l.379.271a12.953 12.953 0 01-1.747 2.9 8.822 8.822 0 01-2.261 2.044 4.767 4.767 0 01-2.517.74zm20.255-.217a1.2 1.2 0 01-1.232-.8 6.082 6.082 0 01-.366-1.909q.027-.325.041-.894t.041-.948q-.569 1.029-1.246 2.031a8.211 8.211 0 01-1.435 1.652 2.425 2.425 0 01-1.6.65 1.8 1.8 0 01-1.516-.826 3.311 3.311 0 01-.6-1.99 7.6 7.6 0 01.257-1.814 15.263 15.263 0 01.65-2 9.7 9.7 0 01.812-1.625q.42-.65.745-.65a1.965 1.965 0 01.663.217.975.975 0 01.582.569 9.952 9.952 0 00-.718 1.327 14.452 14.452 0 00-.731 1.909 6.377 6.377 0 00-.311 1.855q0 .162.041.555a1.767 1.767 0 00.23.718.617.617 0 00.569.325 1.812 1.812 0 001.259-.731 12.189 12.189 0 001.34-1.841q.677-1.11 1.273-2.275.244-1.164.406-1.679a1.388 1.388 0 01.339-.65.668.668 0 01.42-.135 1.357 1.357 0 01.8.2.672.672 0 01.284.582 1.918 1.918 0 01-.054.23 1.765 1.765 0 01-.081.257 12.908 12.908 0 00-.3 1.368q-.135.8-.217 1.706t-.072 1.827a4.926 4.926 0 00.081 1.015.4.4 0 00.406.366 1.413 1.413 0 00.88-.46 8.4 8.4 0 001.056-1.219 18.987 18.987 0 001.083-1.665q.528-.907.961-1.828a8.507 8.507 0 01.2-2.139 2.01 2.01 0 01.542-1.015 1.132 1.132 0 01.745-.284 1 1 0 01.934.433 1.516 1.516 0 01.257.731.971.971 0 01-.135.5 3.765 3.765 0 00-.217.42 7.742 7.742 0 00-.366.975 4.938 4.938 0 00-.176 1.435 4.756 4.756 0 00.095.934 1.652 1.652 0 00.352.772.93.93 0 00.745.3 1.526 1.526 0 00.988-.433 5.437 5.437 0 001.1-1.625l.514.406a4.383 4.383 0 01-1.354 1.936 2.573 2.573 0 01-1.462.528 2.021 2.021 0 01-1.516-.65 4.578 4.578 0 01-.975-1.6q-.677 1.164-1.5 2.315a10.154 10.154 0 01-1.72 1.9 2.8 2.8 0 01-1.789.741zm11.346-.162a2.216 2.216 0 01-1.841-.745 2.833 2.833 0 01-.6-1.828 6.84 6.84 0 01.5-2.627 9.325 9.325 0 011.273-2.207 9.878 9.878 0 011.672-1.691 9.061 9.061 0 011.692-1.083 3.248 3.248 0 011.313-.379 1.877 1.877 0 01.379.054.493.493 0 01.352.271.625.625 0 01.176-.081.736.736 0 01.2-.027 1.016 1.016 0 01.988.433 1.989 1.989 0 01.23.948 2.717 2.717 0 01-.257 1.056q-.257.6-.514 1.313a4.838 4.838 0 00-.257 1.638.929.929 0 00.948 1 2.955 2.955 0 001.733-.474 3.671 3.671 0 001.11-1.259 9.561 9.561 0 00.731-1.72q.3-.934.569-1.855a1.04 1.04 0 01-.244-.677 2.144 2.144 0 01.244-1.043 2.371 2.371 0 01.555-.7.9.9 0 01.5-.257q.433 0 .515.325a2.256 2.256 0 01.081.515 1.554 1.554 0 01-.149.487 1.553 1.553 0 00-.149.487q0 .271.447.555t1.015.663a4.255 4.255 0 011.015.961 2.309 2.309 0 01.447 1.449 4.346 4.346 0 01-.325 1.625q-.325.812-.65 1.516a3 3 0 00-.325 1.219q0 .406.2.528a.9.9 0 00.474.122 2.667 2.667 0 001.313-.393 6.816 6.816 0 001.34-1.015 10.551 10.551 0 001.164-1.313 6.365 6.365 0 00.758-1.259l.542.379a11.782 11.782 0 01-1.435 2.3 8.882 8.882 0 01-2.017 1.9 4.129 4.129 0 01-2.342.758 2.44 2.44 0 01-1.638-.542 1.733 1.733 0 01-.636-1.381 4.389 4.389 0 01.352-1.652q.352-.867.7-1.679a3.733 3.733 0 00.352-1.462 1.533 1.533 0 00-.46-1.151 4.234 4.234 0 00-.975-.718q-.325.975-.718 2a9.454 9.454 0 01-.961 1.882 4.556 4.556 0 01-1.435 1.381 4.1 4.1 0 01-2.166.528 3.431 3.431 0 01-.8-.108 7.171 7.171 0 01-.745-.217 6.8 6.8 0 01-1.909 2.342 3.84 3.84 0 01-2.33.91zm.514-1.354a1.711 1.711 0 00.88-.352 5.77 5.77 0 001.056-.934 4.832 4.832 0 00.826-1.232 3.771 3.771 0 01-.569-2.275 5.3 5.3 0 01.095-.867 9.619 9.619 0 01.271-1.124 4.4 4.4 0 01.42-.988q-.542.515-1.1 1.151a16.434 16.434 0 00-1.043 1.327 14.488 14.488 0 00-.867 1.381 7.947 7.947 0 00-.6 1.354 4.059 4.059 0 00-.217 1.259 1.663 1.663 0 00.23 1.015.745.745 0 00.621.285zm26.132 1.516a2.158 2.158 0 01-1.462-.542 4.017 4.017 0 01-1-1.354 8.067 8.067 0 01-.569-1.665 6.946 6.946 0 01-.19-1.476q.379-.081.948-.244a7.482 7.482 0 001.164-.447 3.252 3.252 0 00.988-.7 1.433 1.433 0 00.393-1.015 1.037 1.037 0 00-.311-.785 1.222 1.222 0 00-.88-.3 2.373 2.373 0 00-1.435.5 5.854 5.854 0 00-1.259 1.313 12.979 12.979 0 00-1.056 1.76q-.474.948-.839 1.841t-.611 1.544a3.382 3.382 0 01-.569 1.1 1.034 1.034 0 01-.785.284 1.183 1.183 0 01-.447-.108.918.918 0 01-.433-.542 3.951 3.951 0 01-.176-1.381 16.1 16.1 0 01.46-3.629 31.847 31.847 0 011.232-4.021q.772-2.044 1.692-3.913a35.465 35.465 0 011.868-3.358 15.571 15.571 0 011.774-2.356q.826-.867 1.368-.867a.9.9 0 01.772.555 2.884 2.884 0 01.311 1.422 6.073 6.073 0 01-.406 2.044 11.234 11.234 0 01-1.151 2.275 13.309 13.309 0 01-1.774 2.18 11.281 11.281 0 01-2.275 1.76 21.739 21.739 0 00-1.679 6.526q.487-1.11 1.11-2.275a17.177 17.177 0 011.381-2.18 7.41 7.41 0 011.638-1.638 3.2 3.2 0 011.882-.623 2.691 2.691 0 011.9.758 2.485 2.485 0 01.812 1.9 2.329 2.329 0 01-.434 1.397 3.731 3.731 0 01-1.07.988 5.25 5.25 0 01-1.286.582 5.162 5.162 0 01-1.11.217q.081.352.23.894a6.473 6.473 0 00.393 1.056 2.8 2.8 0 00.623.867 1.27 1.27 0 00.894.352 2.164 2.164 0 001.395-.623 8.29 8.29 0 001.408-1.652 14.314 14.314 0 001.232-2.275l.379.46a11.9 11.9 0 01-1.259 2.6 8.147 8.147 0 01-1.774 2.017 3.2 3.2 0 01-2.005.777zm-3.872-11.969A15.837 15.837 0 00123.101 7a11.629 11.629 0 001.395-2.058 4.761 4.761 0 00.609-2.1v-.081a2.92 2.92 0 00-.853.934 23.2 23.2 0 00-1.286 2.1q-.703 1.273-1.407 2.816zm17.006 11.752a2.21 2.21 0 01-1.787-.7 2.553 2.553 0 01-.6-1.706 7.315 7.315 0 01.217-1.571 15.412 15.412 0 01.609-1.99 14.477 14.477 0 01.907-1.963 6.562 6.562 0 011.11-1.5 1.732 1.732 0 011.191-.582.9.9 0 01.569.19.708.708 0 01.244.6 2.407 2.407 0 01-.42 1.056l-.975 1.625a15.2 15.2 0 00-.975 1.909 4.817 4.817 0 00-.42 1.882 1.567 1.567 0 00.311 1.151 1.3 1.3 0 00.907.284 3.216 3.216 0 002-.921 10.522 10.522 0 002.259-3.233l.406.433a9.8 9.8 0 01-2.41 3.71 4.6 4.6 0 01-3.141 1.327zm3.2-12.213a1.752 1.752 0 01-.934-.257.87.87 0 01-.42-.8 1.321 1.321 0 01.7-1.11 2.635 2.635 0 011.462-.46 1.5 1.5 0 01.826.217.86.86 0 01.338.785 1.471 1.471 0 01-.623 1.1 2.052 2.052 0 01-1.352.526zm1.219 18.983a1.807 1.807 0 01-.718-.19 1.663 1.663 0 01-.731-.745 3.5 3.5 0 01-.311-1.665 15.642 15.642 0 01.393-3.046q.393-1.882 1.083-4.17t1.625-4.7q.934-2.41 2-4.644a36.735 36.735 0 012.221-4.021 14.837 14.837 0 012.288-2.843 3.313 3.313 0 012.193-1.056.936.936 0 01.921.42 2.066 2.066 0 01.217.961 6.136 6.136 0 01-.636 2.545 15.067 15.067 0 01-1.692 2.776 21.66 21.66 0 01-2.369 2.64 18.651 18.651 0 01-2.694 2.139l-.217.542-.217.542a.933.933 0 01.474.379 1.239 1.239 0 01.2.569q.217 1.164.433 2.072a3.31 3.31 0 00.663 1.422 1.611 1.611 0 001.286.515 2.352 2.352 0 001.679-.7 9.509 9.509 0 001.489-1.977l.6.433a6.917 6.917 0 01-1.95 2.532 3.414 3.414 0 01-1.95.8 2.713 2.713 0 01-.961-.19 3.788 3.788 0 01-.961-.542 16.4 16.4 0 01-.393 3.317 14.286 14.286 0 01-.988 2.965 7.816 7.816 0 01-1.395 2.126 2.226 2.226 0 01-1.585.794zm.758-1.679q.3 0 .636-.515a7.28 7.28 0 00.663-1.354 18 18 0 00.6-1.855q.271-1.015.433-2a11.181 11.181 0 00.162-1.8 5.032 5.032 0 00-.176-1.395 6.408 6.408 0 00-.609-1.368q-.623 1.868-1.11 3.6t-.758 3.155a13.093 13.093 0 00-.271 2.369q-.006 1.164.427 1.164zm3.818-15.814a28.236 28.236 0 002.816-3.006 18.327 18.327 0 001.774-2.586 4.139 4.139 0 00.609-1.584.191.191 0 00-.217-.217q-.65 0-1.489.988a15.2 15.2 0 00-1.733 2.667q-.896 1.68-1.763 3.738zm13.594 10.723a2.21 2.21 0 01-1.787-.7 2.553 2.553 0 01-.6-1.706 7.314 7.314 0 01.217-1.571 15.412 15.412 0 01.609-1.99 14.477 14.477 0 01.907-1.963 6.56 6.56 0 011.11-1.5 1.732 1.732 0 011.191-.582.9.9 0 01.569.19.708.708 0 01.244.6 2.407 2.407 0 01-.42 1.056l-.975 1.625a15.2 15.2 0 00-.975 1.909 4.817 4.817 0 00-.42 1.882 1.568 1.568 0 00.311 1.151 1.3 1.3 0 00.907.284 3.216 3.216 0 002-.921 10.523 10.523 0 002.248-3.222l.406.433a9.8 9.8 0 01-2.41 3.71 4.6 4.6 0 01-3.135 1.316zm3.2-12.213a1.753 1.753 0 01-.934-.257.87.87 0 01-.42-.8 1.321 1.321 0 01.7-1.11 2.636 2.636 0 011.462-.46 1.5 1.5 0 01.826.217.86.86 0 01.339.785 1.471 1.471 0 01-.623 1.1 2.052 2.052 0 01-1.358.526zm3.71 12.646a2.655 2.655 0 01-1.923-.7 2.843 2.843 0 01-.731-2.139 11.607 11.607 0 01.42-2.762 34.15 34.15 0 011.07-3.412 3.807 3.807 0 00-.447-.095 2 2 0 01-.5-.149V10.7q.433.054.718.081l.582.054q.569-1.435 1.232-2.776a27.2 27.2 0 011.327-2.4 10.051 10.051 0 011.259-1.665 1.628 1.628 0 011.056-.609.793.793 0 01.514.2.715.715 0 01.244.582 3.588 3.588 0 01-.555 1.544q-.555 1-1.367 2.342t-1.571 2.857h.839q1.192 0 2.153-.041t1.963-.149v.9q-1.489.135-2.735.217t-2.383.108h-.325a25.718 25.718 0 00-.988 2.721 9.418 9.418 0 00-.42 2.721 2.652 2.652 0 00.352 1.571 1.309 1.309 0 001.11.46 4.3 4.3 0 002.776-1.232 10.659 10.659 0 002.478-3.344l.379.271a12.954 12.954 0 01-1.747 2.9 8.822 8.822 0 01-2.261 2.044 4.767 4.767 0 01-2.527.74zm10.182-16.843a1.4 1.4 0 01-.582-.528 1.327 1.327 0 01-.176-.663 3.313 3.313 0 01.244-1.178 3.922 3.922 0 01.636-1.11 1.1 1.1 0 01.826-.474.828.828 0 01.6.271 1.083 1.083 0 01.3.731 7.731 7.731 0 00-1.11 1.435 7.143 7.143 0 00-.746 1.517zm2.266 16.979a3.844 3.844 0 01-2.18-.555 3.107 3.107 0 01-1.178-1.408 4.539 4.539 0 01-.352-1.747 2.778 2.778 0 01.217-1.219 1.53 1.53 0 01.542-.636 3.549 3.549 0 01.609-.311 1.2 1.2 0 00.42-.244 19.539 19.539 0 001.395-1.638 10.468 10.468 0 001.232-2.072v-.271a2.453 2.453 0 01.366-1.53 1.079 1.079 0 01.853-.447.615.615 0 01.474.162.672.672 0 01.176.379 1.3 1.3 0 01-.068.379 2.076 2.076 0 00-.068.6 5.35 5.35 0 00.393 1.855q.393 1.043.785 2.207a7.409 7.409 0 01.393 2.383q0 .325-.027.6a4.373 4.373 0 01-.081.515 4.05 4.05 0 001.652-.934 7.31 7.31 0 001.544-2.126l.325.244a5.973 5.973 0 01-1.489 2.478 4.227 4.227 0 01-2.275 1.151 3.1 3.1 0 01-1.422 1.652 4.572 4.572 0 01-2.236.533zm-.19-1.191a1.919 1.919 0 001.733-1.056 5.545 5.545 0 01-2-.867 5.978 5.978 0 01-1.381-1.273q-.379.081-.379.731a3.009 3.009 0 00.514 1.679 1.7 1.7 0 001.514.786zm1.95-1.868a2.028 2.028 0 00.068-.447q.014-.257.014-.393a10.9 10.9 0 00-.325-2.41q-.3-1.191-.6-2.437-.487.839-1.137 1.814a11.68 11.68 0 01-1.219 1.571 5.014 5.014 0 001.273 1.381 5.136 5.136 0 001.927.92zm20.74 2.22a2.25 2.25 0 01-1.611-.528 1.77 1.77 0 01-.555-1.34 3.879 3.879 0 01.19-1.151q.19-.609.379-1.232a4.09 4.09 0 00.19-1.191.9.9 0 00-.948-1.056 2.732 2.732 0 00-1.665.663 9.954 9.954 0 00-1.65 1.662q-.8 1-1.5 2.085t-1.219 1.95a2.706 2.706 0 01-.975-.176 1.761 1.761 0 01-.785-.609 7.661 7.661 0 01.311-.826q.284-.691.636-1.652t.623-2.017a7.8 7.8 0 00.271-1.923 2.16 2.16 0 01.582-.433 1.685 1.685 0 01.826-.217q.948 0 .948.812a5.6 5.6 0 01-.122.961q-.122.636-.339 1.449a16.114 16.114 0 011.544-1.787 8.6 8.6 0 011.747-1.368 3.6 3.6 0 011.822-.525 1.962 1.962 0 011.72.785 2.936 2.936 0 01.555 1.733 4.189 4.189 0 01-.271 1.516q-.271.7-.528 1.327a3.179 3.179 0 00-.257 1.219.774.774 0 00.2.609.667.667 0 00.447.176 2.092 2.092 0 001.354-.623 7.977 7.977 0 001.34-1.584 18.489 18.489 0 001.124-1.936l.46.379a15.739 15.739 0 01-1.286 2.424 6.9 6.9 0 01-1.6 1.76 3.183 3.183 0 01-1.958.664zm5.47.325a1.738 1.738 0 01-1.665-.8 3.518 3.518 0 01-.447-1.747 6.184 6.184 0 01.271-1.774 7.3 7.3 0 01.745-1.692 4.793 4.793 0 011.056-1.259 1.861 1.861 0 011.178-.474 1.792 1.792 0 01.447.068.673.673 0 01.366.2 7.709 7.709 0 00-.663 1 12.569 12.569 0 00-.623 1.259 8.34 8.34 0 00-.447 1.34 5.367 5.367 0 00-.162 1.246 1.769 1.769 0 00.2.894.758.758 0 00.718.352 2.117 2.117 0 001.232-.582 10.612 10.612 0 001.368-1.34 4.729 4.729 0 01-1.246-1.72 6.015 6.015 0 01-.379-2.261 3.648 3.648 0 01.284-1.3 3.162 3.162 0 01.921-1.273 2.566 2.566 0 011.72-.542 1.9 1.9 0 011.638.65 2.549 2.549 0 01.474 1.544 5.839 5.839 0 01-.528 2.248 14.716 14.716 0 01-1.259 2.356 1.675 1.675 0 00.758.162 3.169 3.169 0 00.975-.19 3.484 3.484 0 001.11-.636 3.119 3.119 0 00.867-1.205l.487.352a4.357 4.357 0 01-1.58 2.026 3.572 3.572 0 01-1.936.636 3.721 3.721 0 01-.7-.068 4.253 4.253 0 01-.65-.176 10.578 10.578 0 01-2.112 1.9 4.243 4.243 0 01-2.414.808zm4.279-4.17a11.613 11.613 0 001.11-2.031 5.158 5.158 0 00.46-2 1.677 1.677 0 00-.19-.907.638.638 0 00-.569-.284q-.515 0-1.056.731a3.01 3.01 0 00-.542 1.841 5.855 5.855 0 00.2 1.381 3.209 3.209 0 00.59 1.269zm6.472 4.549a2.655 2.655 0 01-1.923-.7 2.843 2.843 0 01-.731-2.139 11.607 11.607 0 01.42-2.762 34.142 34.142 0 011.07-3.412 3.808 3.808 0 00-.447-.095 2 2 0 01-.5-.149v-.839q.433.054.718.081l.582.054q.569-1.435 1.232-2.776a27.2 27.2 0 011.327-2.4 10.051 10.051 0 011.259-1.665 1.628 1.628 0 011.056-.609.793.793 0 01.514.2.715.715 0 01.244.582 3.588 3.588 0 01-.555 1.544q-.555 1-1.367 2.342t-1.571 2.857h.839q1.191 0 2.153-.041t1.963-.149v.899q-1.489.135-2.735.217t-2.383.108h-.325a25.717 25.717 0 00-.988 2.721 9.417 9.417 0 00-.42 2.721 2.652 2.652 0 00.352 1.571 1.309 1.309 0 001.11.46 4.3 4.3 0 002.776-1.232 10.66 10.66 0 002.478-3.344l.379.271a12.952 12.952 0 01-1.747 2.9 8.822 8.822 0 01-2.261 2.044 4.767 4.767 0 01-2.516.74zm12.348 6.337a1.807 1.807 0 01-.718-.19 1.663 1.663 0 01-.731-.745 3.5 3.5 0 01-.311-1.665 15.64 15.64 0 01.393-3.046q.393-1.882 1.083-4.17t1.625-4.7q.934-2.41 2-4.644a36.735 36.735 0 012.221-4.021 14.835 14.835 0 012.288-2.843 3.313 3.313 0 012.193-1.056.936.936 0 01.921.42 2.066 2.066 0 01.217.961 6.136 6.136 0 01-.636 2.545 15.067 15.067 0 01-1.692 2.776 21.663 21.663 0 01-2.369 2.64 18.651 18.651 0 01-2.694 2.139l-.217.542-.217.542a.932.932 0 01.474.379 1.239 1.239 0 01.2.569q.217 1.164.433 2.072a3.311 3.311 0 00.668 1.421 1.611 1.611 0 001.286.515 2.352 2.352 0 001.679-.7 9.51 9.51 0 001.489-1.977l.6.433a6.916 6.916 0 01-1.95 2.532 3.415 3.415 0 01-1.95.8 2.713 2.713 0 01-.961-.19 3.788 3.788 0 01-.961-.542 16.406 16.406 0 01-.393 3.317 14.288 14.288 0 01-.988 2.965 7.817 7.817 0 01-1.395 2.126 2.226 2.226 0 01-1.584.794zm.758-1.679q.3 0 .636-.515a7.282 7.282 0 00.663-1.354 18 18 0 00.6-1.855q.271-1.015.433-2a11.184 11.184 0 00.162-1.8 5.033 5.033 0 00-.176-1.395 6.408 6.408 0 00-.609-1.368q-.623 1.868-1.11 3.6t-.758 3.155a13.093 13.093 0 00-.271 2.369q.003 1.163.433 1.163zm3.818-15.814a28.239 28.239 0 002.816-3.006 18.326 18.326 0 001.774-2.586 4.139 4.139 0 00.609-1.584.191.191 0 00-.217-.217q-.65 0-1.489.988a15.2 15.2 0 00-1.733 2.667q-.89 1.679-1.756 3.737zm6.445 10.723a1.755 1.755 0 01-1.5-.853 3.4 3.4 0 01-.582-1.963 7.912 7.912 0 01.244-1.787 13.98 13.98 0 01.636-2 9.7 9.7 0 01.812-1.625q.42-.65.772-.65a1.473 1.473 0 01.582.2 2.765 2.765 0 01.69.5 9.952 9.952 0 00-.718 1.327 15.5 15.5 0 00-.745 1.923 6.263 6.263 0 00-.325 1.868q0 .108.041.515a2.356 2.356 0 00.2.758.576.576 0 00.569.352 1.5 1.5 0 00.988-.5 8.4 8.4 0 001.083-1.3q.555-.8 1.083-1.72t.948-1.787q.42-.867.691-1.462a4.306 4.306 0 01.636.135 2.833 2.833 0 01.69.284.553.553 0 01.3.5 3.654 3.654 0 01-.257.663q-.257.582-.6 1.395a17.363 17.363 0 00-.6 1.665 5.294 5.294 0 00-.257 1.5 1.41 1.41 0 00.149.663.6.6 0 00.582.284 2.6 2.6 0 001.354-.515 8.011 8.011 0 001.625-1.489 10.527 10.527 0 001.489-2.329l.406.325a10.268 10.268 0 01-1.544 2.627 8.106 8.106 0 01-2.031 1.828 4.039 4.039 0 01-2.112.663 1.674 1.674 0 01-1.178-.366 1.822 1.822 0 01-.528-.948 6.489 6.489 0 01-.162-1.178v-.542a16.859 16.859 0 01-1 1.422 6.306 6.306 0 01-1.151 1.151 2.1 2.1 0 01-1.277.466zm19.01-.271a2.25 2.25 0 01-1.611-.528 1.77 1.77 0 01-.555-1.34 3.878 3.878 0 01.19-1.151q.19-.609.379-1.232a4.091 4.091 0 00.19-1.191.9.9 0 00-.948-1.056 2.732 2.732 0 00-1.665.663 9.954 9.954 0 00-1.65 1.662q-.8 1-1.5 2.085t-1.219 1.95a2.706 2.706 0 01-.975-.176 1.76 1.76 0 01-.785-.609 7.658 7.658 0 01.311-.826q.284-.691.636-1.652t.623-2.017a7.8 7.8 0 00.271-1.923 2.16 2.16 0 01.582-.433 1.686 1.686 0 01.826-.217q.948 0 .948.812a5.594 5.594 0 01-.122.961q-.122.636-.339 1.449a16.114 16.114 0 011.544-1.787 8.6 8.6 0 011.747-1.368 3.6 3.6 0 011.828-.528 1.962 1.962 0 011.72.785 2.936 2.936 0 01.555 1.733 4.189 4.189 0 01-.271 1.516q-.271.7-.528 1.327a3.179 3.179 0 00-.257 1.219.774.774 0 00.2.609.667.667 0 00.447.176 2.092 2.092 0 001.354-.623 7.978 7.978 0 001.34-1.584A18.5 18.5 0 00266 14.863l.46.379a15.741 15.741 0 01-1.286 2.424 6.9 6.9 0 01-1.6 1.76 3.183 3.183 0 01-1.964.667zm5.633-.271a1.114 1.114 0 01-.921-.338 1.1 1.1 0 01-.271-.691 1.044 1.044 0 01.271-.636 2.319 2.319 0 01.677-.569 1.552 1.552 0 01.758-.23 1.162 1.162 0 01.6.176.705.705 0 01.3.663 1.746 1.746 0 01-.162.609 2.154 2.154 0 01-.474.7 1.048 1.048 0 01-.775.314z"/></symbol><symbol viewBox="0 0 205.045 21.111" id="line" xmlns="http://www.w3.org/2000/svg"><g clip-path="url(#a)"><path d="M80.286 11.066a1 1 0 00-1.245-.226l-1.955 1.081a1 1 0 00-.5.689.983.983 0 00.208.815 22.183 22.183 0 011.706 2.443c-2.679.217-3.228.246-5.937.318a70.335 70.335 0 003.209-7.552 1 1 0 00-.758-1.325l-2.2-.407a1 1 0 00-1.132.68 78.627 78.627 0 01-3.413 8.7c-.749 0-1.272 0-1.642-.008a1.042 1.042 0 00-.755.335 1 1 0 00-.242.8l.273 2.051a.991.991 0 001.033.868l.222-.009c5.061-.209 9.842-.406 13.326-.889.15.31.281.589.4.855a1 1 0 00.912.586.975.975 0 00.4-.083l2.362-1.03a1 1 0 00.541-.577.981.981 0 00-.043-.779 35.2 35.2 0 00-4.763-7.33M80.46 1.078a1 1 0 00-1.18-.557l-2 .553a1 1 0 00-.661 1.335 22.1 22.1 0 005.826 8.341 1.015 1.015 0 00.668.25h.089a.992.992 0 00.689-.369l1.5-1.871a1 1 0 00-.131-1.389 18.545 18.545 0 01-4.8-6.293M67.165 11.054a.926.926 0 00.114.006 1.019 1.019 0 00.668-.249 21.235 21.235 0 005.836-8.458.973.973 0 00-.046-.8 1.012 1.012 0 00-.64-.513L71.083.518a.993.993 0 00-1.15.566 16.627 16.627 0 01-4.769 6.143.989.989 0 00-.18 1.359l1.491 2.062a.986.986 0 00.694.406M127.403 1.54h-17.11a.94.94 0 00-.939.939v2.073a.94.94 0 00.939.939h13a7.945 7.945 0 01-3.222 3.7c.033-.341.06-.652.08-1.084a.939.939 0 00-.933-.982l-2.333-.016a.939.939 0 00-.938.918c-.066 3.951-1.044 7-5.6 9.028a.94.94 0 00-.539.65.919.919 0 00.189.806l1.424 1.722a.937.937 0 00.722.344.911.911 0 00.406-.094c6.16-3.03 6.984-7.351 7.351-9.831l1.512 1.511a.951.951 0 001.187.117c3.383-2.216 5.043-5.309 5.732-9.643a.951.951 0 00-.216-.764.936.936 0 00-.713-.33M146.289 4.032h-6.671c.084-1.178.13-1.412.168-2.342a.891.891 0 00-.883-.925L136.475.75h-.006a1.078 1.078 0 00-1.076 1.058c-.01.749-.038 1.054-.1 2.224h-4.95a1.076 1.076 0 00-1.075 1.076v1.9a1.075 1.075 0 001.075 1.075h4.481a12.446 12.446 0 01-5.628 8.729 1.091 1.091 0 00-.493.771 1.066 1.066 0 00.262.857l1.444 1.612a1.085 1.085 0 001.423.162 17.837 17.837 0 007.32-12.13h3.962v1.27a45.641 45.641 0 01-.409 5.763c-.192.953-.381 1.195-1.675 1.195a15.72 15.72 0 01-1.74-.11 1.074 1.074 0 00-1.191 1.13l.119 2.076a1.072 1.072 0 00.954 1.008 23.261 23.261 0 002.5.126c1.366 0 3.651 0 4.7-2.533.923-2.244.994-8.489.994-10.22V5.107a1.077 1.077 0 00-1.076-1.076M166.902 3.339h-6.181V1.627a.878.878 0 00-.877-.872h-2.494a.878.878 0 00-.877.876v1.708h-5.91a.879.879 0 00-.877.877v7.032a.878.878 0 00.877.877h2.359a.878.878 0 00.877-.877V7.293h9.458c-.116 5.219-3.649 8.606-10.5 9.24a.876.876 0 00-.748 1.166l.8 2.25a.872.872 0 00.822.586h.091c9.463-.986 14.064-6.4 14.064-15.7v-.619a.878.878 0 00-.877-.877M175.969 8.71a.878.878 0 00.688.116.867.867 0 00.55-.41l1.337-2.3a.869.869 0 00.089-.666.881.881 0 00-.417-.54 29.5 29.5 0 00-6.2-2.681.875.875 0 00-1.04.431l-1.079 2.064a.877.877 0 00.47 1.229 27.784 27.784 0 015.6 2.757M188.276 5.076l-2.169-1.479a.871.871 0 00-.791-.1.862.862 0 00-.542.575c-1.081 3.706-2.756 6.691-4.713 8.406-2.135 1.893-5.336 3.081-9.511 3.529a.876.876 0 00-.76 1.059l.6 2.777a.88.88 0 00.857.693.913.913 0 00.133-.01c8-1.242 14-4.176 17.238-14.458a.886.886 0 00-.345-.992M204.592 10.065a50.1 50.1 0 00-9.795-4.147l-.029-4.287a.888.888 0 00-.891-.88l-2.836.02a.886.886 0 00-.88.891l.122 17.994a.886.886 0 00.892.879l2.836-.019a.886.886 0 00.879-.891l-.062-9.209a38.063 38.063 0 017.429 3.949.884.884 0 001.281-.338l1.408-2.789a.881.881 0 00-.357-1.172M102.465.936l2.228-.9a.506.506 0 01.516.078 11.2 11.2 0 011.607 2.028.515.515 0 01-.207.769L104.29 3.94a.51.51 0 01-.633-.183c-.35-.527-.875-1.372-1.4-2.032a.51.51 0 01.211-.791"/><path d="M103.769 21.111a3.973 3.973 0 01-2.763-1.275c-3.074-3.35-3.349-9.376-3.474-12.742h-9.984a.8.8 0 01-.8-.8V4.268a.8.8 0 01.8-.8h9.854c-.021-.513-.056-1.49-.076-2.1a.8.8 0 01.8-.826h2.328a.8.8 0 01.8.8v2.119h5.143a.8.8 0 01.8.8v2.03a.8.8 0 01-.8.8h-5.05a25.967 25.967 0 001.514 8.139c.354.766.675 1.112.974 1.146.352.04.975-.467 1.527-1.179a.693.693 0 01.656-.258.853.853 0 01.663.537s.6.95 1.048 1.73-.179 1.539-.474 1.887a6.209 6.209 0 01-3.481 2.014M97.526 6.906zm-9.864 13.667a.8.8 0 01-.8-.721l-.231-2.271a.8.8 0 01.737-.881c.4-.03.852-.071 1.3-.111.494-.044.982-.088 1.386-.117v-4.204h-2.107a.8.8 0 01-.8-.8V9.437a.8.8 0 01.8-.8h7.955a.8.8 0 01.8.8v2.031a.8.8 0 01-.8.8h-2.045v3.9c.8-.093 1.35-.141 1.8-.179s.755-.064 1.063-.115a.807.807 0 01.649.176.8.8 0 01.286.6l.028 1.965a.8.8 0 01-.641.8c-2.03.4-9 1.129-9.292 1.161h-.088M19.502.755h-2.918a.81.81 0 00-.81.809v18.125a.81.81 0 00.81.809h2.918a.81.81 0 00.81-.809V1.563a.81.81 0 00-.81-.808M39.587.755h-2.918a.81.81 0 00-.81.809v10.768L27.552 1.114a.912.912 0 00-.064-.082l-.006-.006a.73.73 0 00-.047-.049L27.42.963c-.015-.008-.029-.025-.044-.036l-.021-.016-.042-.03-.025-.015-.043-.023-.026-.013a.4.4 0 00-.046-.02l-.026-.009-.048-.016-.028-.006-.047-.01-.034-.007h-3.031a.81.81 0 00-.81.809v18.118a.81.81 0 00.81.809h2.918a.81.81 0 00.81-.809V8.924l8.319 11.231a.775.775 0 00.2.2l.008.007a.661.661 0 00.05.03l.024.013.038.018.04.017.025.009.055.018h.011a.841.841 0 00.208.027h2.918a.81.81 0 00.81-.809V1.563a.81.81 0 00-.806-.808M12.467 15.955H4.539V1.563a.809.809 0 00-.811-.808H.81a.809.809 0 00-.81.808v18.126a.8.8 0 00.227.559l.01.012.012.011a.806.806 0 00.56.226h11.658a.81.81 0 00.809-.81v-2.918a.81.81 0 00-.809-.81M55.703.755H44.044a.807.807 0 00-.564.229l-.008.008-.013.014a.81.81 0 00-.224.558v18.125a.8.8 0 00.226.56l.011.012.012.011a.8.8 0 00.56.226h11.659a.809.809 0 00.808-.81V16.77a.809.809 0 00-.808-.81h-7.929v-3.064h7.929a.809.809 0 00.808-.81V9.167a.809.809 0 00-.808-.81h-7.929V5.293h7.929a.809.809 0 00.808-.81V1.564a.809.809 0 00-.808-.809"/></g></symbol><symbol viewBox="0 0 24 24" id="line-icon" xmlns="http://www.w3.org/2000/svg"><g transform="translate(-360.945 -237.638)"><circle cx="12" cy="12" r="12" transform="translate(360.945 237.638)"/><path d="M380.928 248.918c0-3.572-3.581-6.477-7.982-6.477s-7.982 2.906-7.982 6.477c0 3.2 2.84 5.884 6.675 6.391.26.056.614.171.7.394a1.639 1.639 0 01.026.722l-.114.683c-.035.2-.16.789.691.43a25.777 25.777 0 006.272-4.634 5.763 5.763 0 001.714-3.986"/><path d="M371.322 247.191h-.56a.155.155 0 00-.155.155v3.478a.155.155 0 00.155.155h.56a.155.155 0 00.155-.155v-3.478a.155.155 0 00-.155-.155M375.176 247.191h-.56a.155.155 0 00-.155.155v2.066l-1.594-2.152-.012-.016-.009-.01-.008-.007-.008-.005h-.633a.155.155 0 00-.155.155v3.478a.155.155 0 00.155.155h.56a.155.155 0 00.156-.155v-2.066l1.6 2.155a.155.155 0 00.039.038l.01.006h.026a.152.152 0 00.04.005h.56a.155.155 0 00.155-.155v-3.492a.155.155 0 00-.155-.155M369.973 250.109h-1.519v-2.762a.155.155 0 00-.155-.155h-.56a.156.156 0 00-.156.155v3.478a.155.155 0 00.044.107.155.155 0 00.107.043h2.237a.155.155 0 00.155-.155v-.56a.155.155 0 00-.155-.156M378.268 248.062a.155.155 0 00.155-.156v-.56a.155.155 0 00-.155-.156h-2.237a.155.155 0 00-.108.044.156.156 0 00-.043.107v3.477a.155.155 0 00.043.107.155.155 0 00.107.043h2.237a.155.155 0 00.155-.155v-.56a.155.155 0 00-.155-.155h-1.521v-.588h1.521a.155.155 0 00.155-.155v-.56a.155.155 0 00-.155-.156h-1.521v-.588z"/></g></symbol><symbol viewBox="0 0 347.588 322" id="logo" xmlns="http://www.w3.org/2000/svg"><g transform="translate(48.789)" clip-path="url(#a)"><path d="M177.114 91.939s7.163 11.886 18.9 15.391 15.7 5.524 16.725 6.667c0 0-9.994 2.682-24.124 14.04a90.32 90.32 0 00-6.582 5.863c-5.188 5.077-24.6 21.5-56.423 18.881 0 0 25.335-.648 43.565-17.41s20.782-19.569 25.125-22.566a40.015 40.015 0 01-17.182-20.865"/><path d="M168.983 147.547s-6.649 12.18-3.755 24.08 3.149 16.339 2.682 17.8c0 0-7.357-7.275-24.293-13.745a90.527 90.527 0 00-8.382-2.724c-7-1.918-30.97-10.393-44.769-39.191 0 0 13.341 21.548 37.012 28.83s27.38 8.071 32.159 10.308a40.013 40.013 0 019.347-25.362"/><path d="M117.237 168.184s-13.875.313-22.745 8.756-12.59 10.879-14.093 11.2c0 0 2.636-10.006-.2-27.911a90.807 90.807 0 00-1.819-8.624c-1.83-7.024-6.44-32.027 11.637-58.349 0 0-12.022 22.31-6.527 46.458s6.662 27.757 7.105 33.016a40.013 40.013 0 0126.644-4.549"/><path d="M72.837 133.493s-7.133-11.906-18.854-15.443-15.681-5.567-16.706-6.713c0 0 10-2.653 24.162-13.973a90.142 90.142 0 006.6-5.845c5.2-5.063 24.657-21.428 56.475-18.726 0 0-25.337.578-43.612 17.291s-20.836 19.51-25.187 22.5a40.014 40.014 0 0117.124 20.912"/><path d="M80.894 78.152s6.65-12.18 3.757-24.08-3.147-16.339-2.68-17.8c0 0 7.357 7.277 24.291 13.747a90.736 90.736 0 008.382 2.726c7 1.918 30.969 10.4 44.766 39.194 0 0-13.34-21.549-37.009-28.833s-27.38-8.073-32.159-10.311a40.012 40.012 0 01-9.348 25.357"/><path d="M133.014 57.061s13.875-.273 22.769-8.691 12.621-10.844 14.126-11.165c0 0-2.666 10 .123 27.911a90.32 90.32 0 001.795 8.63c1.811 7.029 6.349 32.044-11.8 58.316 0 0 12.084-22.276 6.658-46.44s-6.583-27.776-7.012-33.035a40.014 40.014 0 01-26.657 4.473"/><path d="M94.302 14.115l30.7 10.123 30.7-10.123s8.436 19.823 2.783 38.465c0 0-.337-20.245-5.651-26.993l-27.836 9.447-27.826-9.443c-5.314 6.748-5.651 26.993-5.651 26.993-5.652-18.642 2.784-38.465 2.784-38.465"/><path d="M90.225 0l34.782 10.684L159.789 0s7.2 10.572 4.274 34.3c0 0-3.712-19.232-6.3-25.08l-32.756 10.8L92.25 9.22c-2.587 5.848-6.3 25.08-6.3 25.08C83.026 10.569 90.224 0 90.224 0M14.294 99.246l23.925-21.744 6.3-31.709s21.407 2.415 34.851 16.51c0 0-17.787-9.672-26.277-8.367l-5.479 28.88-21.926 19.58c3.258 7.948 20.714 18.207 20.714 18.207-19.005-4.257-32.108-21.357-32.108-21.357"/><path d="M0 95.85l26.421-25.017 7.821-35.535s12.746-1.062 31.963 13.165c0 0-18.567-6.236-24.932-6.863l-6.726 33.828-25.523 23.2c3.818 5.13 18.732 17.828 18.732 17.828C5.659 107.319 0 95.85 0 95.85M88.7 212.03l-18.164-26.745-30.508-10.7s5.4-20.855 21.246-32.185c0 0-12.075 16.252-11.979 24.84l27.824 9.485 16.3 24.461c8.327-2.109 20.938-17.949 20.938-17.949C107.471 201.46 88.7 212.03 88.7 212.03"/><path d="M83.326 225.703l-21.053-29.675-34.083-12.739s.741-12.769 17.529-29.795c0 0-8.785 17.507-10.3 23.719l32.546 11.415 19.38 28.531c5.616-3.058 20.285-16.039 20.285-16.039-12.152 20.592-24.3 24.583-24.3 24.583M161.311 212.03l18.165-26.745 30.508-10.7s-5.4-20.855-21.246-32.185c0 0 12.076 16.252 11.979 24.84l-27.827 9.488-16.3 24.461c-8.327-2.109-20.938-17.949-20.938-17.949 6.887 18.222 25.659 28.79 25.659 28.79"/><path d="M166.685 225.703l21.054-29.676 34.083-12.739s-.741-12.768-17.529-29.794c0 0 8.785 17.507 10.3 23.719l-32.546 11.415-19.38 28.531c-5.616-3.058-20.285-16.039-20.285-16.039 12.152 20.592 24.3 24.583 24.3 24.583M235.719 99.246l-23.925-21.744-6.3-31.709s-21.407 2.415-34.851 16.51c0 0 17.787-9.672 26.277-8.367l5.479 28.88 21.926 19.58c-3.258 7.948-20.714 18.207-20.714 18.207 19.006-4.257 32.108-21.357 32.108-21.357"/><path d="M250.012 95.85l-26.421-25.017-7.821-35.535s-12.746-1.062-31.963 13.165c0 0 18.567-6.236 24.932-6.863l6.726 33.828 25.523 23.2c-3.818 5.13-18.732 17.828-18.732 17.828 22.1-9.137 27.756-20.606 27.756-20.606"/></g><path d="M148.122 84.69a11.776 11.776 0 002.017 6.5 18.365 18.365 0 005.5 5.313 29.089 29.089 0 008.16 3.58 37.744 37.744 0 009.993 1.314 37.713 37.713 0 009.991-1.314 29.027 29.027 0 008.162-3.58 18.443 18.443 0 005.5-5.313 11.785 11.785 0 002.018-6.5 11.151 11.151 0 00-.231-2.246c-.822 3.676-3.836 7.057-8.479 9.523a36.81 36.81 0 01-16.961 3.86 36.841 36.841 0 01-16.966-3.858c-4.645-2.466-7.655-5.849-8.475-9.525a11.181 11.181 0 00-.229 2.246zm52.664 11.674a18.457 18.457 0 00-7.354 2.113 29.127 29.127 0 00-7.181 5.275 38.662 38.662 0 00-9.991 17.307 29.089 29.089 0 00-.979 8.855 18.354 18.354 0 001.849 7.42 11.77 11.77 0 004.618 5 10.873 10.873 0 002.061.926c-2.772-2.551-4.193-6.852-4.011-12.1a36.913 36.913 0 015.145-16.626 36.853 36.853 0 0111.823-12.762c4.461-2.795 8.9-3.709 12.49-2.578a11.247 11.247 0 00-1.832-1.32 11.616 11.616 0 00-5.9-1.523 9.599 9.599 0 00-.738.013zM140.16 97.87a11.206 11.206 0 00-1.828 1.32c3.592-1.123 8.027-.209 12.482 2.582a36.775 36.775 0 0111.825 12.762 36.8 36.8 0 015.142 16.619c.188 5.256-1.237 9.555-4.012 12.1a11.177 11.177 0 002.063-.926 11.83 11.83 0 004.622-5 18.514 18.514 0 001.849-7.42 29.082 29.082 0 00-.981-8.855 37.738 37.738 0 00-3.859-9.308 37.633 37.633 0 00-6.136-8 28.844 28.844 0 00-7.181-5.275 18.427 18.427 0 00-7.347-2.105c-.249-.012-.5-.018-.74-.018a11.614 11.614 0 00-5.899 1.524zM86.115 308.678l16.639-62c.362-1.287-.465-2.347-1.86-1.666l-3 1.666-57.666 44.288H4.108c-4.082 0-4.7 1.363-3.669 6.056l4.909 22.485c.827 3.861 2.377 2.725 5.788.076l32.144-25.217h41.494l-4.909 17.942c-.517 1.893.31 2.347 1.912 1.666l34.051-14.229c2.532-1.06 2.532-4.088 2.532-4.088zm-38.756-17.712l48.832-38.383-10.489 38.383zm-11.626 3.4l-25.579 19.3c-1.189.908-1.964 1.136-2.48-.454l-5.426-17.034c-.362-1.127 0-1.812 1.132-1.812zm97.613-5.148a46.84 46.84 0 0012.453-13.471l12.143-.076-8.01 14.157c-5.218 4.012-17.152 9.463-23.408 11.507zm16.226-27.632a55.36 55.36 0 01-3.877 10.38l-2.739.076 1.189-1.968c3.2-5.754 5.116-8.782 5.116-8.782.413-.762.568-.535.31.298zm22.168 0a54.618 54.618 0 01-3.876 10.3h-2.584l1.033-1.817c3.2-5.754 5.116-8.782 5.116-8.782.414-.757.569-.53.31.303zm-34.983 21.5s1.757-3.028 4.186-7.343l2.325-.076a33.255 33.255 0 01-6.512 7.423zm22.168 0s1.755-3.02 4.185-7.339h2.325a32.886 32.886 0 01-6.511 7.343zm-40.045 22.64c-.878 1.59.052 2.12 1.5 1.514 0 0 16.071-5.905 26.871-12.643l-6.2 11.129c-.878 1.59.052 2.12 1.5 1.514l17.923-7.574c2.48-1.06 2.48-4.012 2.48-4.012l-14.261 5.681 6.821-12.113a46.471 46.471 0 0012.453-13.4l29.971.681c4.6.076 5.012-4.694 5.012-4.694h-32.71a54.1 54.1 0 003.98-12.343c.723-3.861.568-5.981-.62-5.981-1.137 0-3.049.984-6.253 5.981-3 4.618-4.7 7.419-7.493 12.416l-11.782.076a55.467 55.467 0 003.979-12.492c.723-3.861.568-5.981-.62-5.981-1.137 0-3.049.984-6.253 5.981-3 4.618-4.806 7.722-7.6 12.719l-5.529.076c-2.635 0-3.152 2.953-3.152 2.953l6.873.379-8.01 14.233a69.68 69.68 0 01-14.727 8.1c-2.635 1.06-2.532 4.088-2.532 4.088 5.581-2.2 11.11-4.769 14.572-7.419zm90.116-10.069l-14.262 5.754 5.116-9.009c.723-1.287 0-2.271-1.447-1.666l-8.939 3.63c-.723-1.363-2.635-3.785-7.906-3.785-5.012 0-8.165.681-21.031 5.981l-3.152 1.363c-2.532 1.06-2.532 4.088-2.532 4.088l5.891-2.271a65.409 65.409 0 008.113-3.634c-4.186 3.634-5.219 7.722-5.219 9.615 0 1.59.878 2.12 3.2 1.211l25.32-10.22-5.012 8.933c-.878 1.59-.155 2.271 1.447 1.59l17.881-7.571a4.535 4.535 0 002.532-4.009zm-22.323-.3a134.5 134.5 0 01-13.384 5.524c-2.325.833-2.532.606-2.274-.379.673-2.725 4.91-6.736 10.542-6.736 3.463 0 4.444.907 5.116 1.588zm22.427 10.369c-.878 1.59.052 2.12 1.5 1.514l15.707-6.586c-.413 4.694 1.6 7.116 4.909 7.116 6.149 0 14.52-4.467 22.323-8.1a4.494 4.494 0 002.48-4.012c-8.113 3.482-17.724 8.4-22.323 8.4-3.1 0-2.377-3.861-2.17-5.375l10.387-4.691c3.824-1.59 2.532-4.769 2.532-4.769-4.341 1.665-12.919 5.828-12.919 5.828s-1.291-.454-3.046-.908c-1.705-.454-2.015 3.558-2.015 3.558l-9.717 3.634 6.821-12.113c9.766-8.176 20.153-21.2 23.305-37.853.723-3.861.568-5.981-.568-5.981-1.189 0-3.049 1.968-6.3 6.965-5.326 8.253-11.115 18.246-22.018 37.475a69.68 69.68 0 01-14.727 8.1c-2.636 1.06-2.532 4.088-2.532 4.088 5.581-2.2 11.11-4.769 14.572-7.419zm35.345-52.237a63.677 63.677 0 01-17.465 29.601s8.06-14.081 11.987-21.124c3.255-5.754 5.116-8.858 5.116-8.858.414-.679.569-.452.362.381zm57.772 42.168l-14.262 5.754 5.115-9.009c.723-1.287 0-2.271-1.447-1.666l-8.943 3.63c-.72-1.359-2.631-3.781-7.9-3.781-5.012 0-8.165.681-21.031 5.981l-3.155 1.362c-2.532 1.06-2.532 4.088-2.532 4.088l5.891-2.271a65.41 65.41 0 008.113-3.634c-4.186 3.634-5.219 7.722-5.219 9.615 0 1.59.878 2.12 3.2 1.211l25.32-10.22-5.012 8.933c-.878 1.59-.155 2.271 1.447 1.59l17.878-7.574a4.535 4.535 0 002.537-4.009zm-22.323-.3a134.494 134.494 0 01-13.384 5.524c-2.325.833-2.532.606-2.274-.379.672-2.725 4.909-6.736 10.544-6.736 3.46 0 4.442.907 5.113 1.588zm67.693.3l-14.262 5.754 4.237-7.495c1.6-2.877.982-3.785-2.429-2.8a157.555 157.555 0 00-25.217 10.22l5.064-8.859c.723-1.287.207-2.347-1.4-1.666l-17.1 7.117c-2.532 1.06-2.532 4.088-2.532 4.088l13.435-5.3-5.063 9.01c-.93 1.666-.517 2.5 1.4 1.59 12.66-5.905 19.74-8.63 25.527-10.447 1.137-.379 1.4 0 .568 1.514l-4.082 7.343c-.723 1.211-.207 2.271 1.4 1.59l17.931-7.571c2.523-1.06 2.523-4.088 2.523-4.088z"/></symbol><symbol viewBox="0 0 347.588 322" id="logo-g" xmlns="http://www.w3.org/2000/svg"><g transform="translate(48.789)" clip-path="url(#a)"><path d="M177.114 91.939s7.163 11.886 18.9 15.391 15.7 5.524 16.725 6.667c0 0-9.994 2.682-24.124 14.04a90.32 90.32 0 00-6.582 5.863c-5.188 5.077-24.6 21.5-56.423 18.881 0 0 25.335-.648 43.565-17.41s20.782-19.569 25.125-22.566a40.015 40.015 0 01-17.182-20.865"/><path d="M168.983 147.547s-6.649 12.18-3.755 24.08 3.149 16.339 2.682 17.8c0 0-7.357-7.275-24.293-13.745a90.527 90.527 0 00-8.382-2.724c-7-1.918-30.97-10.393-44.769-39.191 0 0 13.341 21.548 37.012 28.83s27.38 8.071 32.159 10.308a40.013 40.013 0 019.347-25.362"/><path d="M117.237 168.184s-13.875.313-22.745 8.756-12.59 10.879-14.093 11.2c0 0 2.636-10.006-.2-27.911a90.807 90.807 0 00-1.819-8.624c-1.83-7.024-6.44-32.027 11.637-58.349 0 0-12.022 22.31-6.527 46.458s6.662 27.757 7.105 33.016a40.013 40.013 0 0126.644-4.549"/><path d="M72.837 133.493s-7.133-11.906-18.854-15.443-15.681-5.567-16.706-6.713c0 0 10-2.653 24.162-13.973a90.142 90.142 0 006.6-5.845c5.2-5.063 24.657-21.428 56.475-18.726 0 0-25.337.578-43.612 17.291s-20.836 19.51-25.187 22.5a40.014 40.014 0 0117.124 20.912"/><path d="M80.894 78.152s6.65-12.18 3.757-24.08-3.147-16.339-2.68-17.8c0 0 7.357 7.277 24.291 13.747a90.736 90.736 0 008.382 2.726c7 1.918 30.969 10.4 44.766 39.194 0 0-13.34-21.549-37.009-28.833s-27.38-8.073-32.159-10.311a40.012 40.012 0 01-9.348 25.357"/><path d="M133.014 57.061s13.875-.273 22.769-8.691 12.621-10.844 14.126-11.165c0 0-2.666 10 .123 27.911a90.32 90.32 0 001.795 8.63c1.811 7.029 6.349 32.044-11.8 58.316 0 0 12.084-22.276 6.658-46.44s-6.583-27.776-7.012-33.035a40.014 40.014 0 01-26.657 4.473"/><path d="M94.302 14.115l30.7 10.123 30.7-10.123s8.436 19.823 2.783 38.465c0 0-.337-20.245-5.651-26.993l-27.836 9.447-27.826-9.443c-5.314 6.748-5.651 26.993-5.651 26.993-5.652-18.642 2.784-38.465 2.784-38.465"/><path d="M90.225 0l34.782 10.684L159.789 0s7.2 10.572 4.274 34.3c0 0-3.712-19.232-6.3-25.08l-32.756 10.8L92.25 9.22c-2.587 5.848-6.3 25.08-6.3 25.08C83.026 10.569 90.224 0 90.224 0M14.294 99.246l23.925-21.744 6.3-31.709s21.407 2.415 34.851 16.51c0 0-17.787-9.672-26.277-8.367l-5.479 28.88-21.926 19.58c3.258 7.948 20.714 18.207 20.714 18.207-19.005-4.257-32.108-21.357-32.108-21.357"/><path d="M0 95.85l26.421-25.017 7.821-35.535s12.746-1.062 31.963 13.165c0 0-18.567-6.236-24.932-6.863l-6.726 33.828-25.523 23.2c3.818 5.13 18.732 17.828 18.732 17.828C5.659 107.319 0 95.85 0 95.85M88.7 212.03l-18.164-26.745-30.508-10.7s5.4-20.855 21.246-32.185c0 0-12.075 16.252-11.979 24.84l27.824 9.485 16.3 24.461c8.327-2.109 20.938-17.949 20.938-17.949C107.471 201.46 88.7 212.03 88.7 212.03"/><path d="M83.326 225.703l-21.053-29.675-34.083-12.739s.741-12.769 17.529-29.795c0 0-8.785 17.507-10.3 23.719l32.546 11.415 19.38 28.531c5.616-3.058 20.285-16.039 20.285-16.039-12.152 20.592-24.3 24.583-24.3 24.583M161.311 212.03l18.165-26.745 30.508-10.7s-5.4-20.855-21.246-32.185c0 0 12.076 16.252 11.979 24.84l-27.827 9.488-16.3 24.461c-8.327-2.109-20.938-17.949-20.938-17.949 6.887 18.222 25.659 28.79 25.659 28.79"/><path d="M166.685 225.703l21.054-29.676 34.083-12.739s-.741-12.768-17.529-29.794c0 0 8.785 17.507 10.3 23.719l-32.546 11.415-19.38 28.531c-5.616-3.058-20.285-16.039-20.285-16.039 12.152 20.592 24.3 24.583 24.3 24.583M235.719 99.246l-23.925-21.744-6.3-31.709s-21.407 2.415-34.851 16.51c0 0 17.787-9.672 26.277-8.367l5.479 28.88 21.926 19.58c-3.258 7.948-20.714 18.207-20.714 18.207 19.006-4.257 32.108-21.357 32.108-21.357"/><path d="M250.012 95.85l-26.421-25.017-7.821-35.535s-12.746-1.062-31.963 13.165c0 0 18.567-6.236 24.932-6.863l6.726 33.828 25.523 23.2c-3.818 5.13-18.732 17.828-18.732 17.828 22.1-9.137 27.756-20.606 27.756-20.606"/></g><path d="M148.122 84.69a11.776 11.776 0 002.017 6.5 18.365 18.365 0 005.5 5.313 29.089 29.089 0 008.16 3.58 37.744 37.744 0 009.993 1.314 37.713 37.713 0 009.991-1.314 29.027 29.027 0 008.162-3.58 18.443 18.443 0 005.5-5.313 11.785 11.785 0 002.018-6.5 11.151 11.151 0 00-.231-2.246c-.822 3.676-3.836 7.057-8.479 9.523a36.81 36.81 0 01-16.961 3.86 36.841 36.841 0 01-16.966-3.858c-4.645-2.466-7.655-5.849-8.475-9.525a11.181 11.181 0 00-.229 2.246zm52.664 11.674a18.457 18.457 0 00-7.354 2.113 29.127 29.127 0 00-7.181 5.275 38.662 38.662 0 00-9.991 17.307 29.089 29.089 0 00-.979 8.855 18.354 18.354 0 001.849 7.42 11.77 11.77 0 004.618 5 10.873 10.873 0 002.061.926c-2.772-2.551-4.193-6.852-4.011-12.1a36.913 36.913 0 015.145-16.626 36.853 36.853 0 0111.823-12.762c4.461-2.795 8.9-3.709 12.49-2.578a11.247 11.247 0 00-1.832-1.32 11.616 11.616 0 00-5.9-1.523 9.599 9.599 0 00-.738.013zM140.16 97.87a11.206 11.206 0 00-1.828 1.32c3.592-1.123 8.027-.209 12.482 2.582a36.775 36.775 0 0111.825 12.762 36.8 36.8 0 015.142 16.619c.188 5.256-1.237 9.555-4.012 12.1a11.177 11.177 0 002.063-.926 11.83 11.83 0 004.622-5 18.514 18.514 0 001.849-7.42 29.082 29.082 0 00-.981-8.855 37.738 37.738 0 00-3.859-9.308 37.633 37.633 0 00-6.136-8 28.844 28.844 0 00-7.181-5.275 18.427 18.427 0 00-7.347-2.105c-.249-.012-.5-.018-.74-.018a11.614 11.614 0 00-5.899 1.524zM86.115 308.678l16.639-62c.362-1.287-.465-2.347-1.86-1.666l-3 1.666-57.666 44.288H4.108c-4.082 0-4.7 1.363-3.669 6.056l4.909 22.485c.827 3.861 2.377 2.725 5.788.076l32.144-25.217h41.494l-4.909 17.942c-.517 1.893.31 2.347 1.912 1.666l34.051-14.229c2.532-1.06 2.532-4.088 2.532-4.088zm-38.756-17.712l48.832-38.383-10.489 38.383zm-11.626 3.4l-25.579 19.3c-1.189.908-1.964 1.136-2.48-.454l-5.426-17.034c-.362-1.127 0-1.812 1.132-1.812zm97.613-5.148a46.84 46.84 0 0012.453-13.471l12.143-.076-8.01 14.157c-5.218 4.012-17.152 9.463-23.408 11.507zm16.226-27.632a55.36 55.36 0 01-3.877 10.38l-2.739.076 1.189-1.968c3.2-5.754 5.116-8.782 5.116-8.782.413-.762.568-.535.31.298zm22.168 0a54.618 54.618 0 01-3.876 10.3h-2.584l1.033-1.817c3.2-5.754 5.116-8.782 5.116-8.782.414-.757.569-.53.31.303zm-34.983 21.5s1.757-3.028 4.186-7.343l2.325-.076a33.255 33.255 0 01-6.512 7.423zm22.168 0s1.755-3.02 4.185-7.339h2.325a32.886 32.886 0 01-6.511 7.343zm-40.045 22.64c-.878 1.59.052 2.12 1.5 1.514 0 0 16.071-5.905 26.871-12.643l-6.2 11.129c-.878 1.59.052 2.12 1.5 1.514l17.923-7.574c2.48-1.06 2.48-4.012 2.48-4.012l-14.261 5.681 6.821-12.113a46.471 46.471 0 0012.453-13.4l29.971.681c4.6.076 5.012-4.694 5.012-4.694h-32.71a54.1 54.1 0 003.98-12.343c.723-3.861.568-5.981-.62-5.981-1.137 0-3.049.984-6.253 5.981-3 4.618-4.7 7.419-7.493 12.416l-11.782.076a55.467 55.467 0 003.979-12.492c.723-3.861.568-5.981-.62-5.981-1.137 0-3.049.984-6.253 5.981-3 4.618-4.806 7.722-7.6 12.719l-5.529.076c-2.635 0-3.152 2.953-3.152 2.953l6.873.379-8.01 14.233a69.68 69.68 0 01-14.727 8.1c-2.635 1.06-2.532 4.088-2.532 4.088 5.581-2.2 11.11-4.769 14.572-7.419zm90.116-10.069l-14.262 5.754 5.116-9.009c.723-1.287 0-2.271-1.447-1.666l-8.939 3.63c-.723-1.363-2.635-3.785-7.906-3.785-5.012 0-8.165.681-21.031 5.981l-3.152 1.363c-2.532 1.06-2.532 4.088-2.532 4.088l5.891-2.271a65.409 65.409 0 008.113-3.634c-4.186 3.634-5.219 7.722-5.219 9.615 0 1.59.878 2.12 3.2 1.211l25.32-10.22-5.012 8.933c-.878 1.59-.155 2.271 1.447 1.59l17.881-7.571a4.535 4.535 0 002.532-4.009zm-22.323-.3a134.5 134.5 0 01-13.384 5.524c-2.325.833-2.532.606-2.274-.379.673-2.725 4.91-6.736 10.542-6.736 3.463 0 4.444.907 5.116 1.588zm22.427 10.369c-.878 1.59.052 2.12 1.5 1.514l15.707-6.586c-.413 4.694 1.6 7.116 4.909 7.116 6.149 0 14.52-4.467 22.323-8.1a4.494 4.494 0 002.48-4.012c-8.113 3.482-17.724 8.4-22.323 8.4-3.1 0-2.377-3.861-2.17-5.375l10.387-4.691c3.824-1.59 2.532-4.769 2.532-4.769-4.341 1.665-12.919 5.828-12.919 5.828s-1.291-.454-3.046-.908c-1.705-.454-2.015 3.558-2.015 3.558l-9.717 3.634 6.821-12.113c9.766-8.176 20.153-21.2 23.305-37.853.723-3.861.568-5.981-.568-5.981-1.189 0-3.049 1.968-6.3 6.965-5.326 8.253-11.115 18.246-22.018 37.475a69.68 69.68 0 01-14.727 8.1c-2.636 1.06-2.532 4.088-2.532 4.088 5.581-2.2 11.11-4.769 14.572-7.419zm35.345-52.237a63.677 63.677 0 01-17.465 29.601s8.06-14.081 11.987-21.124c3.255-5.754 5.116-8.858 5.116-8.858.414-.679.569-.452.362.381zm57.772 42.168l-14.262 5.754 5.115-9.009c.723-1.287 0-2.271-1.447-1.666l-8.943 3.63c-.72-1.359-2.631-3.781-7.9-3.781-5.012 0-8.165.681-21.031 5.981l-3.155 1.362c-2.532 1.06-2.532 4.088-2.532 4.088l5.891-2.271a65.41 65.41 0 008.113-3.634c-4.186 3.634-5.219 7.722-5.219 9.615 0 1.59.878 2.12 3.2 1.211l25.32-10.22-5.012 8.933c-.878 1.59-.155 2.271 1.447 1.59l17.878-7.574a4.535 4.535 0 002.537-4.009zm-22.323-.3a134.494 134.494 0 01-13.384 5.524c-2.325.833-2.532.606-2.274-.379.672-2.725 4.909-6.736 10.544-6.736 3.46 0 4.442.907 5.113 1.588zm67.693.3l-14.262 5.754 4.237-7.495c1.6-2.877.982-3.785-2.429-2.8a157.555 157.555 0 00-25.217 10.22l5.064-8.859c.723-1.287.207-2.347-1.4-1.666l-17.1 7.117c-2.532 1.06-2.532 4.088-2.532 4.088l13.435-5.3-5.063 9.01c-.93 1.666-.517 2.5 1.4 1.59 12.66-5.905 19.74-8.63 25.527-10.447 1.137-.379 1.4 0 .568 1.514l-4.082 7.343c-.723 1.211-.207 2.271 1.4 1.59l17.931-7.571c2.523-1.06 2.523-4.088 2.523-4.088z"/></symbol><symbol viewBox="0 0 30.156 30.155" id="tel" xmlns="http://www.w3.org/2000/svg"><path d="M21.607 16.569a25.523 25.523 0 00-3.706 4.664s-1.473.061-5.256-3.723-3.722-5.256-3.722-5.256a25.584 25.584 0 004.663-3.706L5.038-.003C.733 4.302-.562 9.997.212 12.14s3.31 6.149 7.481 10.319 8.173 6.706 10.319 7.481 7.837-.52 12.143-4.827z"/></symbol><symbol viewBox="0 0 27.398 28" id="x" xmlns="http://www.w3.org/2000/svg"><path d="M12.995 15.7l-1.084-1.55L3.288 1.82H7l6.959 9.954 1.084 1.55 9.046 12.939h-3.712zM24.088 0l-8.856 10.294L8.158 0H0l10.7 15.567L0 28h2.417l9.352-10.871L19.24 28h8.16L16.3 11.856 26.5 0z"/></symbol></svg>