<svg xmlns="http://www.w3.org/2000/svg" xmlns:xlink="http://www.w3.org/1999/xlink" width="427.531" height="396.059" viewBox="0 0 427.531 396.059">
  <defs>
    <clipPath id="clip-path">
      <rect id="Rectangle_25435" data-name="Rectangle 25435" width="307.513" height="277.613" fill="#00c2e8"/>
    </clipPath>
  </defs>
  <g id="Group_30819" data-name="Group 30819" transform="translate(-525.059 -300.004)">
    <g id="Group_22820" data-name="Group 22820" transform="translate(585.068 300.004)">
      <g id="Group_22819" data-name="Group 22819" clip-path="url(#clip-path)">
        <path id="Path_15423" data-name="Path 15423" d="M185.915,70.881s8.81,14.62,23.242,18.931,19.307,6.794,20.571,8.2c0,0-12.293,3.3-29.672,17.269-2.817,2.265-5.511,4.682-8.1,7.212-6.381,6.245-30.255,26.439-69.4,23.223,0,0,31.162-.8,53.584-21.414s25.562-24.069,30.9-27.756a49.218,49.218,0,0,1-21.133-25.664" transform="translate(31.935 42.203)" fill="#00c2e8"/>
        <path id="Path_15424" data-name="Path 15424" d="M184.848,52.337s-8.179,14.982-4.619,29.618,3.874,20.1,3.3,21.9c0,0-9.05-8.949-29.88-16.907-3.377-1.29-6.822-2.4-10.31-3.351-8.612-2.359-38.093-12.783-55.065-48.2,0,0,16.409,26.5,45.524,35.461s33.677,9.927,39.555,12.679a49.216,49.216,0,0,1,11.5-31.2" transform="translate(23.001 129.146)" fill="#00c2e8"/>
        <path id="Path_15425" data-name="Path 15425" d="M124.756,128.8s-17.066.384-27.976,10.77-15.486,13.381-17.334,13.781c0,0,3.242-12.307-.25-34.33-.567-3.571-1.326-7.108-2.238-10.608-2.251-8.64-7.921-39.393,14.314-71.769,0,0-14.786,27.441-8.029,57.143s8.194,34.141,8.74,40.609a49.216,49.216,0,0,1,32.772-5.6" transform="translate(19.444 78.061)" fill="#00c2e8"/>
        <path id="Path_15426" data-name="Path 15426" d="M80.112,165s-8.77-14.644-23.191-19-19.288-6.847-20.548-8.257c0,0,12.3-3.264,29.719-17.187,2.825-2.258,5.524-4.667,8.116-7.189,6.4-6.227,30.328-26.356,69.464-23.033,0,0-31.164.711-53.642,21.268s-25.629,24-30.98,27.671A49.217,49.217,0,0,1,80.112,165" transform="translate(9.478 -0.807)" fill="#00c2e8"/>
        <path id="Path_15427" data-name="Path 15427" d="M78.932,182.037s8.18-14.982,4.621-29.618-3.871-20.1-3.3-21.9c0,0,9.05,8.95,29.878,16.909,3.378,1.291,6.823,2.4,10.31,3.353,8.612,2.359,38.092,12.786,55.062,48.208,0,0-16.408-26.5-45.52-35.465S96.309,153.6,90.431,150.843a49.214,49.214,0,0,1-11.5,31.194" transform="translate(20.567 -85.906)" fill="#00c2e8"/>
        <path id="Path_15428" data-name="Path 15428" d="M129.788,115.791s17.066-.335,28.006-10.69,15.524-13.338,17.374-13.733c0,0-3.279,12.3.151,34.33.556,3.574,1.306,7.113,2.207,10.615,2.227,8.646,7.809,39.414-14.517,71.729,0,0,14.863-27.4,8.19-57.121s-8.1-34.164-8.625-40.633a49.217,49.217,0,0,1-32.787,5.5" transform="translate(33.818 -45.607)" fill="#00c2e8"/>
        <path id="Path_15429" data-name="Path 15429" d="M93.218,168.924l37.767,12.451,37.765-12.451s10.376,24.382,3.424,47.312c0,0-.415-24.9-6.951-33.2l-34.238,11.62-34.24-11.62c-6.536,8.3-6.951,33.2-6.951,33.2-6.952-22.93,3.424-47.312,3.424-47.312" transform="translate(22.773 -151.562)" fill="#00c2e8"/>
        <path id="Path_15430" data-name="Path 15430" d="M89.3,186.758,132.081,199.9l42.781-13.141s8.853,13,5.257,42.192c0,0-4.566-23.656-7.747-30.849l-40.29,13.28L91.79,198.1c-3.182,7.193-7.746,30.849-7.746,30.849-3.6-29.188,5.257-42.192,5.257-42.192" transform="translate(21.675 -186.758)" fill="#00c2e8"/>
        <path id="Path_15431" data-name="Path 15431" d="M13.947,168.3l29.428-26.745,7.752-39s26.331,2.97,42.867,20.308c0,0-21.878-11.9-32.321-10.291l-6.739,35.523L27.966,172.171c4.007,9.776,25.479,22.394,25.479,22.394-23.381-5.236-39.5-26.269-39.5-26.269" transform="translate(3.634 -46.222)" fill="#00c2e8"/>
        <path id="Path_15432" data-name="Path 15432" d="M0,181.1l32.5-30.77,9.619-43.708s15.678-1.306,39.315,16.193c0,0-22.838-7.671-30.666-8.442L42.492,155.98,11.1,184.514c4.7,6.31,23.041,21.929,23.041,21.929C6.961,195.205,0,181.1,0,181.1" transform="translate(0 -63.204)" fill="#00c2e8"/>
        <path id="Path_15433" data-name="Path 15433" d="M98.924,98.984l-22.342-32.9L39.057,52.929S45.7,27.278,65.19,13.342c0,0-14.852,19.99-14.734,30.554L84.679,55.562l20.052,30.087c10.242-2.594,25.753-22.078,25.753-22.078-8.471,22.413-31.561,35.412-31.561,35.412" transform="translate(10.177 161.811)" fill="#00c2e8"/>
        <path id="Path_15434" data-name="Path 15434" d="M95.323,88.817l-25.9-36.5L27.506,36.647S28.417,20.942,49.067,0c0,0-10.806,21.533-12.67,29.175l40.032,14.04,23.837,35.093c6.908-3.762,24.95-19.728,24.95-19.728C110.27,83.908,95.323,88.817,95.323,88.817" transform="translate(7.167 188.796)" fill="#00c2e8"/>
        <path id="Path_15435" data-name="Path 15435" d="M163.923,98.984l22.342-32.9L223.79,52.929s-6.642-25.651-26.133-39.587c0,0,14.853,19.99,14.734,30.554L178.167,55.562,158.115,85.649c-10.242-2.594-25.753-22.078-25.753-22.078,8.471,22.413,31.561,35.412,31.561,35.412" transform="translate(34.489 161.811)" fill="#00c2e8"/>
        <path id="Path_15436" data-name="Path 15436" d="M168.822,88.817l25.9-36.5,41.921-15.669S235.728,20.942,215.079,0c0,0,10.806,21.533,12.67,29.175l-40.032,14.04L163.879,78.308c-6.908-3.762-24.95-19.728-24.95-19.728,14.947,25.329,29.893,30.237,29.893,30.237" transform="translate(36.2 188.796)" fill="#00c2e8"/>
        <path id="Path_15437" data-name="Path 15437" d="M246.548,168.3,217.12,141.551l-7.752-39s-26.331,2.97-42.867,20.308c0,0,21.878-11.9,32.321-10.291l6.739,35.523,26.969,24.083c-4.007,9.776-25.479,22.394-25.479,22.394,23.381-5.236,39.5-26.269,39.5-26.269" transform="translate(43.385 -46.222)" fill="#00c2e8"/>
        <path id="Path_15438" data-name="Path 15438" d="M260.78,181.1l-32.5-30.77-9.619-43.708s-15.678-1.306-39.315,16.193c0,0,22.838-7.671,30.666-8.442l8.273,41.609,31.393,28.534c-4.7,6.31-23.041,21.929-23.041,21.929,27.179-11.238,34.14-25.345,34.14-25.345" transform="translate(46.732 -63.204)" fill="#00c2e8"/>
      </g>
      <path id="Union_3" data-name="Union 3" d="M12.041,2.764a14.5,14.5,0,0,0,2.48,8,22.6,22.6,0,0,0,6.766,6.533,35.745,35.745,0,0,0,10.037,4.4,46.368,46.368,0,0,0,12.291,1.617A46.332,46.332,0,0,0,55.9,21.7a35.658,35.658,0,0,0,10.039-4.4,22.7,22.7,0,0,0,6.768-6.533,14.5,14.5,0,0,0,2.482-8A13.7,13.7,0,0,0,74.908,0c-1.012,4.521-4.719,8.68-10.43,11.713a45.277,45.277,0,0,1-20.863,4.746,45.311,45.311,0,0,1-20.867-4.746C17.033,8.684,13.332,4.521,12.322,0A13.767,13.767,0,0,0,12.041,2.764ZM76.818,17.123a22.685,22.685,0,0,0-9.043,2.6,35.825,35.825,0,0,0-8.832,6.49A47.545,47.545,0,0,0,46.654,47.5a35.758,35.758,0,0,0-1.2,10.893,22.572,22.572,0,0,0,2.273,9.125,14.487,14.487,0,0,0,5.68,6.146A13.489,13.489,0,0,0,55.939,74.8c-3.41-3.139-5.158-8.428-4.934-14.889a45.414,45.414,0,0,1,6.326-20.441,45.329,45.329,0,0,1,14.541-15.7c5.486-3.436,10.941-4.561,15.363-3.17v0a13.744,13.744,0,0,0-2.254-1.625A14.278,14.278,0,0,0,77.729,17.1C77.428,17.1,77.125,17.107,76.818,17.123ZM2.248,18.975A13.763,13.763,0,0,0,0,20.6c4.418-1.383,9.873-.258,15.354,3.174A45.242,45.242,0,0,1,29.9,39.471a45.265,45.265,0,0,1,6.324,20.441c.23,6.465-1.521,11.754-4.934,14.889v0a13.729,13.729,0,0,0,2.537-1.139,14.545,14.545,0,0,0,5.686-6.15,22.756,22.756,0,0,0,2.273-9.125A35.753,35.753,0,0,0,40.576,47.5,46.431,46.431,0,0,0,35.83,36.045a46.262,46.262,0,0,0-7.547-9.834,35.506,35.506,0,0,0-8.832-6.49,22.642,22.642,0,0,0-9.037-2.6c-.307-.016-.609-.023-.91-.023A14.275,14.275,0,0,0,2.248,18.975Z" transform="translate(110.139 101.405)" fill="#00c2e8"/>
    </g>
    <path id="Path_33391" data-name="Path 33391" d="M-91.959,29.2l20.466-76.263c.445-1.583-.572-2.887-2.288-2.049l-3.686,2.049L-148.4,7.415h-44.428c-5.021,0-5.784,1.676-4.513,7.449l6.038,27.656c1.017,4.749,2.924,3.352,7.119.093l39.534-31.008h51.038l-6.038,22.069c-.636,2.328.381,2.887,2.352,2.049l41.885-17.506c3.114-1.3,3.114-5.028,3.114-5.028ZM-139.628,7.415-79.565-39.8l-12.9,47.21Zm-14.3,4.19-31.462,23.745c-1.462,1.117-2.415,1.4-3.051-.559l-6.674-20.951c-.445-1.4,0-2.235,1.4-2.235ZM-33.866,5.274A57.613,57.613,0,0,0-18.548-11.3l14.936-.093L-13.463,6.019c-6.419,4.935-21.1,11.64-28.792,14.154Zm19.958-33.988a68.092,68.092,0,0,1-4.767,12.757l-3.369.093,1.462-2.421c3.941-7.077,6.292-10.8,6.292-10.8C-13.781-30.018-13.59-29.738-13.908-28.714Zm27.267,0A67.18,67.18,0,0,1,8.592-16.05H5.414l1.271-2.235c3.941-7.077,6.292-10.8,6.292-10.8C13.486-30.018,13.677-29.738,13.359-28.714ZM-29.671-2.269s2.161-3.725,5.148-9.032l2.86-.093A40.9,40.9,0,0,1-29.671-2.269Zm27.267,0S-.243-5.993,2.744-11.3H5.6A40.449,40.449,0,0,1-2.4-2.269ZM-51.662,25.573c-1.081,1.955.064,2.607,1.843,1.862,0,0,19.767-7.263,33.051-15.551L-24.4,25.573c-1.081,1.955.064,2.607,1.843,1.862L-.5,18.124c3.051-1.3,3.051-4.935,3.051-4.935l-17.542,6.984,8.39-14.9A57.159,57.159,0,0,0,8.719-11.208l36.864.838c5.657.093,6.165-5.773,6.165-5.773H11.516A66.54,66.54,0,0,0,16.41-31.321c.89-4.749.7-7.356-.763-7.356-1.4,0-3.75,1.211-7.691,7.356C4.27-25.641,2.172-22.2-1.26-16.05l-14.491.093a68.224,68.224,0,0,0,4.894-15.364c.89-4.749.7-7.356-.763-7.356-1.4,0-3.75,1.211-7.691,7.356-3.686,5.68-5.911,9.5-9.343,15.644l-6.8.093c-3.242,0-3.877,3.632-3.877,3.632l8.453.466L-40.73,6.019a85.707,85.707,0,0,1-18.114,9.964c-3.242,1.3-3.114,5.028-3.114,5.028,6.864-2.7,13.665-5.866,17.924-9.125ZM59.185,13.189,41.643,20.266,47.935,9.185c.89-1.583,0-2.794-1.78-2.049l-11,4.47C34.27,9.93,31.918,6.95,25.435,6.95c-6.165,0-10.042.838-25.869,7.356l-3.877,1.676c-3.114,1.3-3.114,5.028-3.114,5.028l7.246-2.794A80.454,80.454,0,0,0,9.8,13.747c-5.148,4.47-6.419,9.5-6.419,11.826,0,1.955,1.081,2.607,3.941,1.49L38.465,14.492,32.3,25.48c-1.081,1.955-.191,2.794,1.78,1.955L56.07,18.124C59.185,16.82,59.185,13.189,59.185,13.189Zm-27.458-.372s-4.449,2.328-16.462,6.8c-2.86,1.024-3.114.745-2.8-.466.826-3.352,6.038-8.287,12.966-8.287C29.693,10.861,30.9,11.978,31.727,12.816ZM59.312,25.573c-1.081,1.955.064,2.607,1.843,1.862l19.322-8.1c-.508,5.773,1.97,8.753,6.038,8.753,7.564,0,17.86-5.494,27.458-9.964a5.528,5.528,0,0,0,3.051-4.935c-9.979,4.283-21.8,10.336-27.458,10.336-3.814,0-2.924-4.749-2.669-6.611L99.672,11.14c4.7-1.955,3.114-5.866,3.114-5.866-5.339,2.049-15.89,7.17-15.89,7.17s-1.589-.559-3.75-1.117c-2.1-.559-2.479,4.377-2.479,4.377l-11.949,4.47,8.39-14.9C89.121-4.783,101.9-20.8,105.774-41.285c.89-4.749.7-7.356-.7-7.356-1.462,0-3.75,2.421-7.754,8.567C90.774-29.925,83.655-17.633,70.244,6.019A85.707,85.707,0,0,1,52.13,15.982c-3.242,1.3-3.114,5.028-3.114,5.028,6.864-2.7,13.665-5.866,17.924-9.125Zm43.474-64.251A78.322,78.322,0,0,1,81.3-2.269s9.915-17.32,14.746-25.98c4-7.077,6.292-10.895,6.292-10.895C102.85-39.981,103.041-39.7,102.786-38.678Zm71.059,51.866L156.3,20.266,162.6,9.185c.89-1.583,0-2.794-1.78-2.049l-11,4.47c-.89-1.676-3.242-4.656-9.725-4.656-6.165,0-10.042.838-25.869,7.356l-3.877,1.676c-3.114,1.3-3.114,5.028-3.114,5.028l7.246-2.794a80.454,80.454,0,0,0,9.979-4.47c-5.148,4.47-6.419,9.5-6.419,11.826,0,1.955,1.081,2.607,3.941,1.49l31.144-12.571L146.96,25.48c-1.081,1.955-.191,2.794,1.78,1.955l21.991-9.312C173.845,16.82,173.845,13.189,173.845,13.189Zm-27.458-.372s-4.449,2.328-16.462,6.8c-2.86,1.024-3.114.745-2.8-.466.826-3.352,6.038-8.287,12.966-8.287C144.354,10.861,145.562,11.978,146.388,12.816Zm83.262.372-17.542,7.077,5.212-9.219c1.97-3.538,1.208-4.656-2.987-3.445a193.792,193.792,0,0,0-31.017,12.571l6.229-10.895c.89-1.583.254-2.887-1.716-2.049L166.79,15.982c-3.114,1.3-3.114,5.028-3.114,5.028L180.2,14.492l-6.229,11.081c-1.144,2.049-.636,3.073,1.716,1.955,15.572-7.263,24.28-10.615,31.4-12.85,1.4-.466,1.716,0,.7,1.862l-5.021,9.032c-.89,1.49-.254,2.794,1.716,1.955l22.055-9.312C229.65,16.913,229.65,13.189,229.65,13.189Z" transform="translate(722.939 650.473)" fill="#00c2e8"/>
  </g>
</svg>
