<svg xmlns="http://www.w3.org/2000/svg" xmlns:xlink="http://www.w3.org/1999/xlink" width="205.045" height="21.111" viewBox="0 0 205.045 21.111">
  <defs>
    <clipPath id="clip-path">
      <rect id="Rectangle_24866" data-name="Rectangle 24866" width="205.045" height="21.111" fill="none"/>
    </clipPath>
  </defs>
  <g id="Group_20121" data-name="Group 20121" clip-path="url(#clip-path)">
    <path id="Path_29742" data-name="Path 29742" d="M84.152,11.472a1,1,0,0,0-1.245-.226l-1.955,1.081a1,1,0,0,0-.5.689.983.983,0,0,0,.208.815,22.183,22.183,0,0,1,1.706,2.443c-2.679.217-3.228.246-5.937.318A70.335,70.335,0,0,0,79.638,9.04a1,1,0,0,0-.758-1.325l-2.2-.407a1,1,0,0,0-1.132.68,78.627,78.627,0,0,1-3.413,8.7c-.749,0-1.272,0-1.642-.008a1.042,1.042,0,0,0-.755.335,1,1,0,0,0-.242.8l.273,2.051a.991.991,0,0,0,1.033.868l.222-.009c5.061-.209,9.842-.406,13.326-.889.15.31.281.589.4.855a1,1,0,0,0,.912.586.975.975,0,0,0,.4-.083l2.362-1.03a1,1,0,0,0,.541-.577.981.981,0,0,0-.043-.779,35.2,35.2,0,0,0-4.763-7.33" transform="translate(-3.866 -0.406)" fill="#06c755"/>
    <path id="Path_29743" data-name="Path 29743" d="M84.97,1.107A1,1,0,0,0,83.79.55l-2,.553a1,1,0,0,0-.661,1.335,22.1,22.1,0,0,0,5.826,8.341,1.015,1.015,0,0,0,.668.25l.089,0a.992.992,0,0,0,.689-.369l1.5-1.871A1,1,0,0,0,89.77,7.4a18.545,18.545,0,0,1-4.8-6.293" transform="translate(-4.51 -0.029)" fill="#06c755"/>
    <path id="Path_29744" data-name="Path 29744" d="M70.982,11.083a.926.926,0,0,0,.114.006,1.019,1.019,0,0,0,.668-.249A21.235,21.235,0,0,0,77.6,2.382a.973.973,0,0,0-.046-.8,1.012,1.012,0,0,0-.64-.513L74.9.547a.993.993,0,0,0-1.15.566,16.627,16.627,0,0,1-4.769,6.143.989.989,0,0,0-.18,1.359l1.491,2.062a.986.986,0,0,0,.694.406" transform="translate(-3.817 -0.029)" fill="#06c755"/>
    <path id="Path_29745" data-name="Path 29745" d="M133.845,1.631h-17.11a.94.94,0,0,0-.939.939V4.643a.94.94,0,0,0,.939.939h13a7.945,7.945,0,0,1-3.222,3.7c.033-.341.06-.652.08-1.084a.939.939,0,0,0-.933-.982L123.327,7.2h0a.939.939,0,0,0-.938.918c-.066,3.951-1.044,7-5.6,9.028a.94.94,0,0,0-.539.65.919.919,0,0,0,.189.806l1.424,1.722a.937.937,0,0,0,.722.344.911.911,0,0,0,.406-.094c6.16-3.03,6.984-7.351,7.351-9.831l1.512,1.511a.951.951,0,0,0,1.187.117c3.383-2.216,5.043-5.309,5.732-9.643a.951.951,0,0,0-.216-.764.936.936,0,0,0-.713-.33" transform="translate(-6.442 -0.091)" fill="#06c755"/>
    <path id="Path_29746" data-name="Path 29746" d="M153.871,4.077H147.2c.084-1.178.13-1.412.168-2.342a.891.891,0,0,0-.883-.925L144.057.795h-.006a1.078,1.078,0,0,0-1.076,1.058c-.01.749-.038,1.054-.1,2.224h-4.95a1.076,1.076,0,0,0-1.075,1.076v1.9a1.075,1.075,0,0,0,1.075,1.075h4.481a12.446,12.446,0,0,1-5.628,8.729,1.091,1.091,0,0,0-.493.771,1.066,1.066,0,0,0,.262.857l1.444,1.612a1.085,1.085,0,0,0,1.423.162,17.837,17.837,0,0,0,7.32-12.13h3.962v1.27a45.641,45.641,0,0,1-.409,5.763c-.192.953-.381,1.195-1.675,1.195a15.72,15.72,0,0,1-1.74-.11,1.074,1.074,0,0,0-1.191,1.13l.119,2.076a1.072,1.072,0,0,0,.954,1.008,23.261,23.261,0,0,0,2.5.126c1.366,0,3.651,0,4.7-2.533.923-2.244.994-8.489.994-10.22V5.152a1.077,1.077,0,0,0-1.076-1.076" transform="translate(-7.582 -0.045)" fill="#06c755"/>
    <path id="Path_29747" data-name="Path 29747" d="M175.72,3.384h-6.181V1.672A.878.878,0,0,0,168.662.8h-2.494a.878.878,0,0,0-.877.876V3.384h-5.91a.879.879,0,0,0-.877.877v7.032a.878.878,0,0,0,.877.877h2.359a.878.878,0,0,0,.877-.877V7.338h9.458c-.116,5.219-3.649,8.606-10.5,9.24a.876.876,0,0,0-.748,1.166l.8,2.25a.872.872,0,0,0,.822.586c.029,0,.059,0,.091,0,9.463-.986,14.064-6.4,14.064-15.7V4.261a.878.878,0,0,0-.877-.877" transform="translate(-8.818 -0.045)" fill="#06c755"/>
    <path id="Path_29748" data-name="Path 29748" d="M185.972,8.839a.878.878,0,0,0,.688.116.867.867,0,0,0,.55-.41l1.337-2.3a.869.869,0,0,0,.089-.666.881.881,0,0,0-.417-.54,29.5,29.5,0,0,0-6.2-2.681.875.875,0,0,0-1.04.431L179.9,4.853a.877.877,0,0,0,.47,1.229,27.784,27.784,0,0,1,5.6,2.757" transform="translate(-10.003 -0.129)" fill="#06c755"/>
    <path id="Path_29749" data-name="Path 29749" d="M198.278,5.279,196.109,3.8a.871.871,0,0,0-.791-.1.862.862,0,0,0-.542.575c-1.081,3.706-2.756,6.691-4.713,8.406-2.135,1.893-5.336,3.081-9.511,3.529a.876.876,0,0,0-.76,1.059l.6,2.777a.88.88,0,0,0,.857.693.913.913,0,0,0,.133-.01c8-1.242,14-4.176,17.238-14.458a.886.886,0,0,0-.345-.992" transform="translate(-10.002 -0.203)" fill="#06c755"/>
    <path id="Path_29750" data-name="Path 29750" d="M215.795,10.11A50.1,50.1,0,0,0,206,5.963l-.029-4.287a.888.888,0,0,0-.891-.88l-2.836.02a.886.886,0,0,0-.88.891l.122,17.994a.886.886,0,0,0,.892.879l2.836-.019a.886.886,0,0,0,.879-.891l-.062-9.209a38.063,38.063,0,0,1,7.429,3.949.884.884,0,0,0,1.281-.338l1.408-2.789a.881.881,0,0,0-.357-1.172" transform="translate(-11.203 -0.045)" fill="#06c755"/>
    <path id="Path_29751" data-name="Path 29751" d="M108.483.936l2.228-.9a.506.506,0,0,1,.516.078,11.2,11.2,0,0,1,1.607,2.028.515.515,0,0,1-.207.769l-2.319,1.029a.51.51,0,0,1-.633-.183c-.35-.527-.875-1.372-1.4-2.032a.51.51,0,0,1,.211-.791" transform="translate(-6.018 0)" fill="#06c755"/>
    <path id="Path_29752" data-name="Path 29752" d="M108.872,21.143a3.973,3.973,0,0,1-2.763-1.275c-3.074-3.35-3.349-9.376-3.474-12.742H92.651a.8.8,0,0,1-.8-.8V4.3a.8.8,0,0,1,.8-.8h9.854c-.021-.513-.056-1.49-.076-2.1a.8.8,0,0,1,.8-.826h2.328a.8.8,0,0,1,.8.8V3.493H111.5a.8.8,0,0,1,.8.8V6.323a.8.8,0,0,1-.8.8h-5.05a25.967,25.967,0,0,0,1.514,8.139c.354.766.675,1.112.974,1.146.352.04.975-.467,1.527-1.179a.693.693,0,0,1,.656-.258.853.853,0,0,1,.663.537s.6.95,1.048,1.73-.179,1.539-.474,1.887a6.209,6.209,0,0,1-3.481,2.014M102.629,6.938v0ZM92.765,20.605a.8.8,0,0,1-.8-.721l-.231-2.271a.8.8,0,0,1,.737-.881c.4-.03.852-.071,1.3-.111.494-.044.982-.088,1.386-.117V12.3H93.05a.8.8,0,0,1-.8-.8V9.469a.8.8,0,0,1,.8-.8h7.955a.8.8,0,0,1,.8.8V11.5a.8.8,0,0,1-.8.8H98.96v3.9c.8-.093,1.35-.141,1.8-.179s.755-.064,1.063-.115a.807.807,0,0,1,.649.176.8.8,0,0,1,.286.6l.028,1.965a.8.8,0,0,1-.641.8c-2.03.4-9,1.129-9.292,1.161-.029,0-.059,0-.088,0" transform="translate(-5.103 -0.032)" fill="#06c755"/>
    <path id="Path_29753" data-name="Path 29753" d="M20.431.8H17.513a.81.81,0,0,0-.81.809V19.734a.81.81,0,0,0,.81.809h2.918a.81.81,0,0,0,.81-.809V1.608A.81.81,0,0,0,20.431.8" transform="translate(-0.929 -0.045)" fill="#06c755"/>
    <path id="Path_29754" data-name="Path 29754" d="M40.951.8H38.033a.81.81,0,0,0-.81.809V12.377L28.916,1.159a.912.912,0,0,0-.064-.082l-.006-.006c-.015-.017-.031-.034-.047-.049l-.015-.014C28.769,1,28.755.983,28.74.972L28.719.956,28.677.926,28.652.911,28.609.888,28.583.875a.4.4,0,0,0-.046-.02L28.511.846,28.463.83,28.435.824l-.047-.01L28.354.807l-.042,0-.042,0H25.323a.81.81,0,0,0-.81.809V19.734a.81.81,0,0,0,.81.809h2.918a.81.81,0,0,0,.81-.809V8.969L37.37,20.2a.775.775,0,0,0,.2.2l.008.007c.017.011.033.021.05.03l.024.013.038.018.04.017.025.009.055.018.011,0a.841.841,0,0,0,.208.027h2.918a.81.81,0,0,0,.81-.809V1.608A.81.81,0,0,0,40.951.8" transform="translate(-1.364 -0.045)" fill="#06c755"/>
    <path id="Path_29755" data-name="Path 29755" d="M12.467,16H4.539V1.608A.809.809,0,0,0,3.728.8H.81A.809.809,0,0,0,0,1.608V19.734a.8.8,0,0,0,.227.559l.01.012.012.011a.806.806,0,0,0,.56.226H12.467a.81.81,0,0,0,.809-.81V16.814a.81.81,0,0,0-.809-.81" transform="translate(0 -0.045)" fill="#06c755"/>
    <path id="Path_29756" data-name="Path 29756" d="M58.25.8H46.591a.807.807,0,0,0-.564.229l-.008.008-.013.014a.81.81,0,0,0-.224.558h0V19.734h0a.8.8,0,0,0,.226.56l.011.012.012.011a.8.8,0,0,0,.56.226H58.25a.809.809,0,0,0,.808-.81V16.815a.809.809,0,0,0-.808-.81H50.321V12.941H58.25a.809.809,0,0,0,.808-.81V9.212a.809.809,0,0,0-.808-.81H50.321V5.338H58.25a.809.809,0,0,0,.808-.81V1.609A.809.809,0,0,0,58.25.8" transform="translate(-2.547 -0.045)" fill="#06c755"/>
  </g>
</svg>
