<svg xmlns="http://www.w3.org/2000/svg" width="24" height="24" viewBox="0 0 24 24">
  <g id="Group_12995" data-name="Group 12995" transform="translate(-360.945 -237.638)">
    <circle id="Ellipse_1" data-name="Ellipse 1" cx="12" cy="12" r="12" transform="translate(360.945 237.638)" fill="#00b900"/>
    <g id="TYPE_A" data-name="TYPE A" transform="translate(364.963 242.44)">
      <g id="Group_12994" data-name="Group 12994">
        <path id="Path_7292" data-name="Path 7292" d="M397,268.126c0-3.572-3.581-6.477-7.982-6.477s-7.982,2.906-7.982,6.477c0,3.2,2.84,5.884,6.675,6.391.26.056.614.171.7.394a1.639,1.639,0,0,1,.026.722s-.094.563-.114.683c-.035.2-.16.789.691.43a25.777,25.777,0,0,0,6.272-4.634h0A5.763,5.763,0,0,0,397,268.126" transform="translate(-381.035 -261.648)" fill="#fff"/>
        <g id="Group_12993" data-name="Group 12993" transform="translate(2.618 4.751)">
          <path id="Path_7293" data-name="Path 7293" d="M409.974,285.405h-.56a.155.155,0,0,0-.155.155v3.478a.155.155,0,0,0,.155.155h.56a.155.155,0,0,0,.155-.155V285.56a.155.155,0,0,0-.155-.155" transform="translate(-406.233 -285.405)" fill="#00b900"/>
          <path id="Path_7294" data-name="Path 7294" d="M419.489,285.405h-.56a.155.155,0,0,0-.155.155v2.066l-1.594-2.152-.012-.016h0l-.009-.01,0,0-.008-.007,0,0-.008-.005,0,0-.008,0-.005,0-.009,0,0,0-.009,0h-.005l-.009,0h-.588a.155.155,0,0,0-.155.155v3.478a.155.155,0,0,0,.155.155h.56a.155.155,0,0,0,.156-.155v-2.066l1.6,2.155a.155.155,0,0,0,.039.038h0l.01.006,0,0,.008,0,.007,0,0,0,.011,0h0a.152.152,0,0,0,.04.005h.56a.155.155,0,0,0,.155-.155V285.56a.155.155,0,0,0-.155-.155" transform="translate(-411.894 -285.405)" fill="#00b900"/>
          <path id="Path_7295" data-name="Path 7295" d="M396.519,288.323H395v-2.762a.155.155,0,0,0-.155-.155h-.56a.156.156,0,0,0-.156.155v3.478h0a.155.155,0,0,0,.044.107l0,0,0,0a.155.155,0,0,0,.107.043h2.237a.155.155,0,0,0,.155-.155v-.56a.155.155,0,0,0-.155-.156" transform="translate(-394.127 -285.405)" fill="#00b900"/>
          <path id="Path_7296" data-name="Path 7296" d="M437.995,286.276a.155.155,0,0,0,.155-.156v-.56a.155.155,0,0,0-.155-.156h-2.237a.155.155,0,0,0-.108.044l0,0,0,0a.156.156,0,0,0-.043.107h0v3.477h0a.155.155,0,0,0,.043.107l0,0,0,0a.155.155,0,0,0,.107.043h2.237a.155.155,0,0,0,.155-.155v-.56a.155.155,0,0,0-.155-.155h-1.521v-.588h1.521a.155.155,0,0,0,.155-.155v-.56a.155.155,0,0,0-.155-.156h-1.521v-.588Z" transform="translate(-427.308 -285.405)" fill="#00b900"/>
        </g>
      </g>
    </g>
  </g>
</svg>
