<svg xmlns="http://www.w3.org/2000/svg" xmlns:xlink="http://www.w3.org/1999/xlink" width="240" height="222" viewBox="0 0 240 222">
  <defs>
    <clipPath id="clip-path">
      <rect id="Rectangle_25435" data-name="Rectangle 25435" width="172.626" height="155.609" fill="#00c2e8"/>
    </clipPath>
  </defs>
  <g id="Group_30831" data-name="Group 30831" transform="translate(-525.059 -300.004)">
    <g id="Group_22820" data-name="Group 22820" transform="translate(558.746 300.004)">
      <g id="Group_22819" data-name="Group 22819" transform="translate(0)" clip-path="url(#clip-path)">
        <path id="Path_15423" data-name="Path 15423" d="M158.125,70.881s4.946,8.195,13.047,10.611,10.838,3.808,11.548,4.6c0,0-6.9,1.849-16.657,9.679-1.582,1.27-3.094,2.624-4.544,4.042-3.582,3.5-16.984,14.82-38.959,13.017,0,0,17.493-.447,30.08-12s14.349-13.491,17.348-15.558a27.6,27.6,0,0,1-11.863-14.385" transform="translate(-35.832 -7.494)" fill="#00c2e8"/>
        <path id="Path_15424" data-name="Path 15424" d="M142.486,44.89s-4.591,8.4-2.593,16.6,2.175,11.265,1.852,12.275c0,0-5.08-5.016-16.774-9.477-1.9-.723-3.83-1.343-5.788-1.878-4.835-1.322-21.384-7.165-30.912-27.02,0,0,9.211,14.856,25.556,19.877s18.905,5.564,22.2,7.107a27.559,27.559,0,0,1,6.454-17.486" transform="translate(-25.808 56.836)" fill="#00c2e8"/>
        <path id="Path_15425" data-name="Path 15425" d="M102.765,88.3s-9.58.216-15.7,6.037-8.693,7.5-9.731,7.724c0,0,1.82-6.9-.14-19.243-.318-2-.744-3.984-1.256-5.946C74.67,72.034,71.487,54.8,83.969,36.648c0,0-8.3,15.382-4.507,32.03s4.6,19.137,4.906,22.762a27.661,27.661,0,0,1,18.4-3.137" transform="translate(-21.817 27.649)" fill="#00c2e8"/>
        <path id="Path_15426" data-name="Path 15426" d="M60.926,132.029S56,123.821,47.908,121.382s-10.828-3.838-11.535-4.628c0,0,6.906-1.829,16.683-9.634,1.586-1.265,3.1-2.616,4.556-4.03C61.2,99.6,74.637,88.318,96.606,90.18c0,0-17.494.4-30.113,11.921S52.107,115.553,49.1,117.612a27.6,27.6,0,0,1,11.824,14.418" transform="translate(-10.634 -39.994)" fill="#00c2e8"/>
        <path id="Path_15427" data-name="Path 15427" d="M78.932,159.4s4.592-8.4,2.594-16.6-2.173-11.265-1.85-12.275c0,0,5.08,5.017,16.772,9.478,1.9.724,3.83,1.344,5.788,1.879,4.835,1.322,21.383,7.167,30.909,27.022,0,0-9.211-14.857-25.553-19.879s-18.905-5.566-22.2-7.109A27.558,27.558,0,0,1,78.932,159.4" transform="translate(-23.077 -105.513)" fill="#00c2e8"/>
        <path id="Path_15428" data-name="Path 15428" d="M129.788,105.058s9.58-.188,15.722-5.992,8.715-7.476,9.753-7.7c0,0-1.841,6.893.085,19.243.312,2,.733,3.987,1.239,5.95,1.25,4.846,4.384,22.093-8.149,40.206,0,0,8.344-15.358,4.6-32.018s-4.545-19.15-4.842-22.776a27.662,27.662,0,0,1-18.406,3.084" transform="translate(-37.946 -65.718)" fill="#00c2e8"/>
        <path id="Path_15429" data-name="Path 15429" d="M90.665,168.924l21.2,6.979,21.2-6.979s5.825,13.667,1.922,26.519c0,0-.233-13.958-3.9-18.61l-19.22,6.513-19.221-6.513c-3.669,4.652-3.9,18.61-3.9,18.61-3.9-12.853,1.922-26.519,1.922-26.519" transform="translate(-25.552 -159.192)" fill="#00c2e8"/>
        <path id="Path_15430" data-name="Path 15430" d="M86.617,186.758l24.016,7.366,24.016-7.366s4.97,7.289,2.951,23.65c0,0-2.563-13.26-4.349-17.291l-22.617,7.444-22.618-7.444c-1.786,4.032-4.348,17.291-4.348,17.291-2.019-16.361,2.951-23.65,2.951-23.65" transform="translate(-24.32 -186.758)" fill="#00c2e8"/>
        <path id="Path_15431" data-name="Path 15431" d="M13.947,139.4l16.52-14.992,4.352-21.862s14.781,1.665,24.064,11.383c0,0-12.282-6.668-18.144-5.769l-3.783,19.911-15.139,13.5c2.25,5.48,14.3,12.552,14.3,12.552C22.994,151.191,13.947,139.4,13.947,139.4" transform="translate(-4.078 -70.976)" fill="#00c2e8"/>
        <path id="Path_15432" data-name="Path 15432" d="M0,148.357,18.243,131.11l5.4-24.5s8.8-.732,22.07,9.077c0,0-12.82-4.3-17.215-4.732l-4.644,23.323L6.231,150.272c2.636,3.537,12.934,12.292,12.934,12.292C3.908,156.265,0,148.357,0,148.357" transform="translate(0 -82.274)" fill="#00c2e8"/>
        <path id="Path_15433" data-name="Path 15433" d="M72.664,61.346,60.122,42.907,39.057,35.531s3.729-14.378,14.67-22.189c0,0-8.337,11.2-8.271,17.126l19.212,6.539L75.924,53.872C81.674,52.418,90.381,41.5,90.381,41.5,85.626,54.06,72.664,61.346,72.664,61.346" transform="translate(-11.419 84.836)" fill="#00c2e8"/>
        <path id="Path_15434" data-name="Path 15434" d="M65.576,49.784,51.039,29.324,27.506,20.542s.512-8.8,12.1-20.542c0,0-6.066,12.07-7.112,16.353l22.472,7.87,13.381,19.67c3.878-2.108,14.006-11.058,14.006-11.058-8.39,14.2-16.781,16.949-16.781,16.949" transform="translate(-8.042 105.825)" fill="#00c2e8"/>
        <path id="Path_15435" data-name="Path 15435" d="M150.079,61.346l12.542-18.439,21.065-7.376s-3.729-14.378-14.67-22.189c0,0,8.338,11.2,8.271,17.126l-19.212,6.539L146.819,53.872c-5.75-1.454-14.457-12.375-14.457-12.375,4.755,12.563,17.717,19.849,17.717,19.849" transform="translate(-38.698 84.836)" fill="#00c2e8"/>
        <path id="Path_15436" data-name="Path 15436" d="M155.71,49.784l14.537-20.46,23.533-8.783s-.512-8.8-12.1-20.542c0,0,6.066,12.07,7.112,16.353l-22.472,7.87-13.381,19.67c-3.878-2.108-14.006-11.058-14.006-11.058,8.39,14.2,16.781,16.949,16.781,16.949" transform="translate(-40.618 105.825)" fill="#00c2e8"/>
        <path id="Path_15437" data-name="Path 15437" d="M211.436,139.4l-16.52-14.992-4.352-21.862s-14.781,1.665-24.064,11.383c0,0,12.282-6.668,18.144-5.769l3.783,19.911,15.139,13.5c-2.25,5.48-14.3,12.552-14.3,12.552,13.125-2.935,22.172-14.724,22.172-14.724" transform="translate(-48.679 -70.976)" fill="#00c2e8"/>
        <path id="Path_15438" data-name="Path 15438" d="M225.061,148.357,206.819,131.11l-5.4-24.5s-8.8-.732-22.07,9.077c0,0,12.82-4.3,17.215-4.732l4.644,23.323,17.623,15.994c-2.636,3.537-12.934,12.292-12.934,12.292,15.257-6.3,19.165-14.206,19.165-14.206" transform="translate(-52.435 -82.274)" fill="#00c2e8"/>
      </g>
      <path id="Union_3" data-name="Union 3" d="M6.76,1.549A8.111,8.111,0,0,0,8.152,6.03a12.672,12.672,0,0,0,3.8,3.663,20.1,20.1,0,0,0,5.634,2.468,26.1,26.1,0,0,0,6.9.906,26.076,26.076,0,0,0,6.9-.906,20.057,20.057,0,0,0,5.636-2.468,12.726,12.726,0,0,0,3.8-3.663A8.117,8.117,0,0,0,42.21,1.549,7.677,7.677,0,0,0,42.051,0C41.483,2.536,39.4,4.866,36.2,6.567A25.447,25.447,0,0,1,24.484,9.227,25.469,25.469,0,0,1,12.77,6.567C9.562,4.866,7.484,2.534,6.918,0A7.7,7.7,0,0,0,6.76,1.549ZM43.123,9.6a12.758,12.758,0,0,0-5.076,1.457,20.109,20.109,0,0,0-4.958,3.637,26.646,26.646,0,0,0-6.9,11.932,20.027,20.027,0,0,0-.676,6.105,12.639,12.639,0,0,0,1.276,5.116,8.12,8.12,0,0,0,3.189,3.445,7.513,7.513,0,0,0,1.423.638c-1.914-1.759-2.9-4.724-2.769-8.345a25.422,25.422,0,0,1,3.551-11.458,25.423,25.423,0,0,1,8.163-8.8c3.08-1.927,6.142-2.557,8.624-1.777v0a7.765,7.765,0,0,0-1.265-.91,8.03,8.03,0,0,0-4.072-1.05C43.465,9.585,43.3,9.589,43.123,9.6ZM1.262,10.635A7.737,7.737,0,0,0,0,11.545c2.48-.774,5.543-.144,8.619,1.78a25.37,25.37,0,0,1,8.164,8.8,25.346,25.346,0,0,1,3.55,11.458c.129,3.624-.854,6.587-2.77,8.345v0a7.723,7.723,0,0,0,1.425-.638,8.161,8.161,0,0,0,3.191-3.447,12.749,12.749,0,0,0,1.276-5.116,20.022,20.022,0,0,0-.678-6.105A26,26,0,0,0,20.114,20.2a25.95,25.95,0,0,0-4.237-5.513,19.915,19.915,0,0,0-4.958-3.637A12.737,12.737,0,0,0,5.846,9.6c-.172-.008-.342-.012-.511-.012A8.029,8.029,0,0,0,1.262,10.635Z" transform="translate(61.827 56.84)" fill="#00c2e8"/>
    </g>
    <path id="Path_33391" data-name="Path 33391" d="M-138.42-5.326l11.489-42.747c.25-.887-.321-1.618-1.284-1.148l-2.069,1.148L-170.1-17.54h-24.94c-2.819,0-3.247.939-2.533,4.176l3.39,15.5c.571,2.662,1.641,1.879,4,.052L-168-15.191h28.651l-3.39,12.37c-.357,1.3.214,1.618,1.32,1.148l23.513-9.813a3.186,3.186,0,0,0,1.748-2.818ZM-165.18-17.54-131.463-44l-7.243,26.463Zm-8.028,2.349-17.661,13.31c-.821.626-1.356.783-1.713-.313l-3.746-11.744c-.25-.783,0-1.253.785-1.253Zm67.4-3.549a32.313,32.313,0,0,0,8.6-9.291l8.385-.052-5.53,9.76c-3.6,2.766-11.846,6.524-16.163,7.934Zm11.2-19.051a38.132,38.132,0,0,1-2.676,7.151l-1.891.052.821-1.357C-96.14-35.912-94.82-38-94.82-38-94.534-38.522-94.427-38.366-94.605-37.791Zm15.307,0a37.621,37.621,0,0,1-2.676,7.1h-1.784l.714-1.253C-80.833-35.912-79.513-38-79.513-38-79.227-38.522-79.12-38.366-79.3-37.791Zm-24.155,14.823s1.213-2.088,2.89-5.063l1.606-.052A22.938,22.938,0,0,1-103.454-22.968Zm15.307,0s1.213-2.088,2.89-5.063h1.606A22.684,22.684,0,0,1-88.147-22.968ZM-115.8-7.362c-.607,1.1.036,1.461,1.035,1.044,0,0,11.1-4.071,18.553-8.716l-4.282,7.673c-.607,1.1.036,1.461,1.035,1.044l12.381-5.219A3.141,3.141,0,0,0-85.364-14.3l-9.848,3.915,4.71-8.351a32.058,32.058,0,0,0,8.6-9.238l20.694.47c3.175.052,3.461-3.236,3.461-3.236H-80.334a37.258,37.258,0,0,0,2.747-8.508c.5-2.662.392-4.123-.428-4.123-.785,0-2.105.679-4.317,4.123-2.069,3.184-3.247,5.115-5.174,8.56l-8.135.052a38.2,38.2,0,0,0,2.747-8.612c.5-2.662.392-4.123-.428-4.123-.785,0-2.105.679-4.317,4.123-2.069,3.184-3.318,5.324-5.245,8.769l-3.818.052c-1.82,0-2.176,2.036-2.176,2.036l4.745.261-5.53,9.813a48.134,48.134,0,0,1-10.169,5.585,3.031,3.031,0,0,0-1.748,2.818,44.987,44.987,0,0,0,10.062-5.115ZM-53.574-14.3l-9.848,3.967,3.532-6.211c.5-.887,0-1.566-1-1.148l-6.173,2.505c-.5-.939-1.82-2.61-5.459-2.61-3.461,0-5.637.47-14.522,4.123l-2.176.94A3.186,3.186,0,0,0-90.966-9.92l4.067-1.566a45.2,45.2,0,0,0,5.6-2.505,9.5,9.5,0,0,0-3.6,6.629c0,1.1.607,1.461,2.212.835l17.483-7.046-3.461,6.159c-.607,1.1-.107,1.566,1,1.1l12.345-5.219A3.126,3.126,0,0,0-53.574-14.3Zm-15.414-.209a92.941,92.941,0,0,1-9.241,3.81c-1.606.574-1.748.418-1.57-.261.464-1.879,3.39-4.645,7.279-4.645C-70.129-15.609-69.451-14.982-68.987-14.513ZM-53.5-7.362c-.607,1.1.036,1.461,1.035,1.044l10.847-4.541c-.285,3.236,1.106,4.906,3.39,4.906,4.246,0,10.026-3.079,15.414-5.585A3.1,3.1,0,0,0-21.105-14.3c-5.6,2.4-12.238,5.794-15.414,5.794-2.141,0-1.641-2.662-1.5-3.706l7.172-3.236c2.64-1.1,1.748-3.288,1.748-3.288-3,1.148-8.92,4.019-8.92,4.019s-.892-.313-2.105-.626c-1.177-.313-1.392,2.453-1.392,2.453l-6.708,2.505,4.71-8.351c6.743-5.637,13.915-14.614,16.092-26.1.5-2.662.392-4.123-.392-4.123-.821,0-2.105,1.357-4.353,4.8-3.675,5.689-7.671,12.579-15.2,25.836a48.134,48.134,0,0,1-10.169,5.585A3.031,3.031,0,0,0-59.283-9.92a44.987,44.987,0,0,0,10.062-5.115Zm24.4-36.014a43.888,43.888,0,0,1-12.06,20.408s5.566-9.708,8.278-14.562c2.248-3.967,3.532-6.107,3.532-6.107C-29.062-44.107-28.955-43.95-29.1-43.376ZM10.792-14.3.945-10.337l3.532-6.211c.5-.887,0-1.566-1-1.148l-6.173,2.505c-.5-.939-1.82-2.61-5.459-2.61-3.461,0-5.637.47-14.522,4.123l-2.176.94A3.186,3.186,0,0,0-26.6-9.92l4.067-1.566a45.2,45.2,0,0,0,5.6-2.505,9.5,9.5,0,0,0-3.6,6.629c0,1.1.607,1.461,2.212.835L-.839-13.573-4.3-7.414c-.607,1.1-.107,1.566,1,1.1L9.044-11.538A3.126,3.126,0,0,0,10.792-14.3Zm-15.414-.209a92.939,92.939,0,0,1-9.241,3.81c-1.606.574-1.748.418-1.57-.261.464-1.879,3.39-4.645,7.279-4.645C-5.763-15.609-5.085-14.982-4.621-14.513Zm46.74.209-9.848,3.967L35.2-15.5c1.106-1.983.678-2.61-1.677-1.931a108.882,108.882,0,0,0-17.412,7.046l3.5-6.107c.5-.887.143-1.618-.963-1.148L6.832-12.738A3.186,3.186,0,0,0,5.084-9.92l9.277-3.654-3.5,6.211c-.642,1.148-.357,1.722.963,1.1a141.779,141.779,0,0,1,17.626-7.2c.785-.261.963,0,.392,1.044L27.027-7.362c-.5.835-.143,1.566.963,1.1l12.381-5.219A3.186,3.186,0,0,0,42.119-14.3Z" transform="translate(722.939 518.146)" fill="#00c2e8"/>
  </g>
</svg>
