<svg xmlns="http://www.w3.org/2000/svg" xmlns:xlink="http://www.w3.org/1999/xlink" width="347.588" height="322" viewBox="0 0 347.588 322">
  <defs>
    <clipPath id="clip-path">
      <rect id="Rectangle_25435" data-name="Rectangle 25435" width="250.012" height="225.703" fill="#fff"/>
    </clipPath>
  </defs>
  <g id="Group_30844" data-name="Group 30844" transform="translate(-525.059 -300.004)">
    <g id="Group_22820" data-name="Group 22820" transform="translate(573.848 300.004)">
      <g id="Group_22819" data-name="Group 22819" transform="translate(0)" clip-path="url(#clip-path)">
        <path id="Path_15423" data-name="Path 15423" d="M174.068,70.881s7.163,11.886,18.9,15.391,15.7,5.524,16.725,6.667c0,0-9.994,2.682-24.124,14.04-2.291,1.842-4.481,3.806-6.582,5.863-5.188,5.077-24.6,21.5-56.423,18.881,0,0,25.335-.648,43.565-17.41s20.782-19.569,25.125-22.566a40.015,40.015,0,0,1-17.182-20.865" transform="translate(3.046 21.058)" fill="#fff"/>
        <path id="Path_15424" data-name="Path 15424" d="M166.789,49.168s-6.649,12.18-3.755,24.08,3.149,16.339,2.682,17.8c0,0-7.357-7.275-24.293-13.745-2.746-1.048-5.547-1.948-8.382-2.724-7-1.918-30.97-10.393-44.769-39.191,0,0,13.341,21.548,37.012,28.83s27.38,8.071,32.159,10.308a40.013,40.013,0,0,1,9.347-25.362" transform="translate(2.194 98.379)" fill="#fff"/>
        <path id="Path_15425" data-name="Path 15425" d="M115.382,111.572s-13.875.313-22.745,8.756-12.59,10.879-14.093,11.2c0,0,2.636-10.006-.2-27.911-.461-2.9-1.078-5.779-1.819-8.624-1.83-7.024-6.44-32.027,11.637-58.349,0,0-12.022,22.31-6.527,46.458s6.662,27.757,7.105,33.016a40.013,40.013,0,0,1,26.644-4.549" transform="translate(1.855 56.612)" fill="#fff"/>
        <path id="Path_15426" data-name="Path 15426" d="M71.933,150.973S64.8,139.067,53.079,135.53s-15.681-5.567-16.706-6.713c0,0,10-2.653,24.162-13.973,2.3-1.836,4.491-3.794,6.6-5.845,5.2-5.063,24.657-21.428,56.475-18.726,0,0-25.337.578-43.612,17.291s-20.836,19.51-25.187,22.5a40.014,40.014,0,0,1,17.124,20.912" transform="translate(0.904 -17.48)" fill="#fff"/>
        <path id="Path_15427" data-name="Path 15427" d="M78.932,172.4s6.65-12.18,3.757-24.08-3.147-16.339-2.68-17.8c0,0,7.357,7.277,24.291,13.747,2.747,1.049,5.548,1.949,8.382,2.726,7,1.918,30.969,10.4,44.766,39.194,0,0-13.34-21.549-37.009-28.833s-27.38-8.073-32.159-10.311A40.012,40.012,0,0,1,78.932,172.4" transform="translate(1.962 -94.248)" fill="#fff"/>
        <path id="Path_15428" data-name="Path 15428" d="M129.788,111.225s13.875-.273,22.769-8.691,12.621-10.844,14.126-11.165c0,0-2.666,10,.123,27.911.452,2.905,1.062,5.783,1.795,8.63,1.811,7.029,6.349,32.044-11.8,58.316,0,0,12.084-22.276,6.658-46.44s-6.583-27.776-7.012-33.035a40.014,40.014,0,0,1-26.657,4.473" transform="translate(3.226 -54.164)" fill="#fff"/>
        <path id="Path_15429" data-name="Path 15429" d="M92.13,168.924l30.7,10.123,30.7-10.123s8.436,19.823,2.783,38.465c0,0-.337-20.245-5.651-26.993l-27.836,9.447L95,180.4c-5.314,6.748-5.651,26.993-5.651,26.993-5.652-18.642,2.784-38.465,2.784-38.465" transform="translate(2.172 -154.809)" fill="#fff"/>
        <path id="Path_15430" data-name="Path 15430" d="M88.157,186.758l34.782,10.684,34.782-10.684s7.2,10.572,4.274,34.3c0,0-3.712-19.232-6.3-25.08l-32.756,10.8-32.757-10.8c-2.587,5.848-6.3,25.08-6.3,25.08-2.924-23.731,4.274-34.3,4.274-34.3" transform="translate(2.068 -186.758)" fill="#fff"/>
        <path id="Path_15431" data-name="Path 15431" d="M13.947,156l23.925-21.744,6.3-31.709s21.407,2.415,34.851,16.51c0,0-17.787-9.672-26.277-8.367l-5.479,28.88-21.926,19.58c3.258,7.948,20.714,18.207,20.714,18.207C27.05,173.1,13.947,156,13.947,156" transform="translate(0.347 -56.754)" fill="#fff"/>
        <path id="Path_15432" data-name="Path 15432" d="M0,167.168l26.421-25.017,7.821-35.535s12.746-1.062,31.963,13.165c0,0-18.567-6.236-24.932-6.863l-6.726,33.828-25.523,23.2c3.818,5.13,18.732,17.828,18.732,17.828C5.659,178.637,0,167.168,0,167.168" transform="translate(0 -71.318)" fill="#fff"/>
        <path id="Path_15433" data-name="Path 15433" d="M87.729,82.97,69.565,56.225l-30.508-10.7s5.4-20.855,21.246-32.185c0,0-12.075,16.252-11.979,24.84l27.824,9.485,16.3,24.461c8.327-2.109,20.938-17.949,20.938-17.949C106.5,72.4,87.729,82.97,87.729,82.97" transform="translate(0.971 129.06)" fill="#fff"/>
        <path id="Path_15434" data-name="Path 15434" d="M82.642,72.209,61.589,42.534,27.506,29.795S28.247,17.026,45.035,0c0,0-8.785,17.507-10.3,23.719L67.281,35.134l19.38,28.531c5.616-3.058,20.285-16.039,20.285-16.039-12.152,20.592-24.3,24.583-24.3,24.583" transform="translate(0.684 153.494)" fill="#fff"/>
        <path id="Path_15435" data-name="Path 15435" d="M158.021,82.97l18.165-26.745,30.508-10.7s-5.4-20.855-21.246-32.185c0,0,12.076,16.252,11.979,24.84L169.6,47.668,153.3,72.129c-8.327-2.109-20.938-17.949-20.938-17.949,6.887,18.222,25.659,28.79,25.659,28.79" transform="translate(3.29 129.06)" fill="#fff"/>
        <path id="Path_15436" data-name="Path 15436" d="M163.232,72.209l21.054-29.676,34.083-12.739S217.628,17.026,200.84,0c0,0,8.785,17.507,10.3,23.719L178.594,35.134l-19.38,28.531c-5.616-3.058-20.285-16.039-20.285-16.039,12.152,20.592,24.3,24.583,24.3,24.583" transform="translate(3.453 153.494)" fill="#fff"/>
        <path id="Path_15437" data-name="Path 15437" d="M231.58,156l-23.925-21.744-6.3-31.709s-21.407,2.415-34.851,16.51c0,0,17.787-9.672,26.277-8.367l5.479,28.88,21.926,19.58c-3.258,7.948-20.714,18.207-20.714,18.207C218.478,173.1,231.58,156,231.58,156" transform="translate(4.139 -56.754)" fill="#fff"/>
        <path id="Path_15438" data-name="Path 15438" d="M245.554,167.168l-26.421-25.017-7.821-35.535s-12.746-1.062-31.963,13.165c0,0,18.567-6.236,24.932-6.863l6.726,33.828,25.523,23.2c-3.818,5.13-18.732,17.828-18.732,17.828,22.1-9.137,27.756-20.606,27.756-20.606" transform="translate(4.458 -71.318)" fill="#fff"/>
      </g>
      <path id="Union_3" data-name="Union 3" d="M9.79,2.246a11.776,11.776,0,0,0,2.017,6.5,18.365,18.365,0,0,0,5.5,5.313,29.089,29.089,0,0,0,8.16,3.58,37.744,37.744,0,0,0,9.993,1.314,37.713,37.713,0,0,0,9.991-1.314,29.027,29.027,0,0,0,8.162-3.58,18.443,18.443,0,0,0,5.5-5.313,11.785,11.785,0,0,0,2.018-6.5A11.151,11.151,0,0,0,60.9,0c-.822,3.676-3.836,7.057-8.479,9.523A36.81,36.81,0,0,1,35.46,13.383,36.841,36.841,0,0,1,18.494,9.525C13.849,7.059,10.839,3.676,10.019,0A11.181,11.181,0,0,0,9.79,2.246ZM62.454,13.92A18.457,18.457,0,0,0,55.1,16.033a29.127,29.127,0,0,0-7.181,5.275,38.662,38.662,0,0,0-9.991,17.307,29.089,29.089,0,0,0-.979,8.855,18.354,18.354,0,0,0,1.849,7.42,11.77,11.77,0,0,0,4.618,5,10.873,10.873,0,0,0,2.061.926c-2.772-2.551-4.193-6.852-4.011-12.1A36.913,36.913,0,0,1,46.611,32.09,36.853,36.853,0,0,1,58.434,19.328c4.461-2.795,8.9-3.709,12.49-2.578v0a11.247,11.247,0,0,0-1.832-1.32,11.616,11.616,0,0,0-5.9-1.523C62.95,13.9,62.7,13.908,62.454,13.92ZM1.828,15.426A11.206,11.206,0,0,0,0,16.746c3.592-1.123,8.027-.209,12.482,2.582A36.775,36.775,0,0,1,24.307,32.09a36.8,36.8,0,0,1,5.142,16.619c.188,5.256-1.237,9.555-4.012,12.1v0a11.177,11.177,0,0,0,2.063-.926,11.83,11.83,0,0,0,4.622-5,18.514,18.514,0,0,0,1.849-7.42,29.082,29.082,0,0,0-.981-8.855A37.738,37.738,0,0,0,29.131,29.3a37.633,37.633,0,0,0-6.136-8,28.844,28.844,0,0,0-7.181-5.275A18.427,18.427,0,0,0,8.467,13.92c-.249-.012-.5-.018-.74-.018A11.614,11.614,0,0,0,1.828,15.426Z" transform="translate(89.543 82.444)" fill="#fff"/>
    </g>
    <path id="Path_33391" data-name="Path 33391" d="M-111.765,14.512l16.639-62c.362-1.287-.465-2.347-1.86-1.666l-3,1.666L-157.652-3.2h-36.12c-4.082,0-4.7,1.363-3.669,6.056l4.909,22.485c.827,3.861,2.377,2.725,5.788.076L-154.6.2h41.494l-4.909,17.942c-.517,1.893.31,2.347,1.912,1.666L-82.052,5.579c2.532-1.06,2.532-4.088,2.532-4.088ZM-150.521-3.2l48.832-38.383L-112.178-3.2ZM-162.147.2l-25.579,19.3c-1.189.908-1.964,1.136-2.48-.454l-5.426-17.034C-195.994.885-195.632.2-194.5.2Zm97.613-5.148A46.84,46.84,0,0,0-52.081-18.419l12.143-.076-8.01,14.157C-53.166-.326-65.1,5.125-71.356,7.169Zm16.226-27.632A55.36,55.36,0,0,1-52.185-22.2l-2.739.076,1.189-1.968c3.2-5.754,5.116-8.782,5.116-8.782C-48.206-33.636-48.051-33.409-48.309-32.576Zm22.168,0a54.618,54.618,0,0,1-3.876,10.3H-32.6l1.033-1.817c3.2-5.754,5.116-8.782,5.116-8.782C-26.037-33.636-25.882-33.409-26.141-32.576Zm-34.983,21.5s1.757-3.028,4.186-7.343l2.325-.076A33.255,33.255,0,0,1-61.124-11.076Zm22.168,0S-37.2-14.1-34.77-18.419h2.325A32.886,32.886,0,0,1-38.956-11.076ZM-79,11.56c-.878,1.59.052,2.12,1.5,1.514,0,0,16.071-5.905,26.871-12.643l-6.2,11.129c-.878,1.59.052,2.12,1.5,1.514L-37.406,5.5c2.48-1.06,2.48-4.012,2.48-4.012L-49.187,7.169l6.821-12.113a46.471,46.471,0,0,0,12.453-13.4l29.971.681c4.6.076,5.012-4.694,5.012-4.694h-32.71A54.1,54.1,0,0,0-23.66-34.7c.723-3.861.568-5.981-.62-5.981-1.137,0-3.049.984-6.253,5.981-3,4.618-4.7,7.419-7.493,12.416l-11.782.076A55.467,55.467,0,0,0-45.829-34.7c.723-3.861.568-5.981-.62-5.981-1.137,0-3.049.984-6.253,5.981-3,4.618-4.806,7.722-7.6,12.719l-5.529.076c-2.635,0-3.152,2.953-3.152,2.953l6.873.379-8.01,14.233a69.68,69.68,0,0,1-14.727,8.1c-2.635,1.06-2.532,4.088-2.532,4.088,5.581-2.2,11.11-4.769,14.572-7.419ZM11.116,1.491-3.146,7.245,1.97-1.764c.723-1.287,0-2.271-1.447-1.666L-8.416.2c-.723-1.363-2.635-3.785-7.906-3.785-5.012,0-8.165.681-21.031,5.981l-3.152,1.363c-2.532,1.06-2.532,4.088-2.532,4.088l5.891-2.271a65.409,65.409,0,0,0,8.113-3.634c-4.186,3.634-5.219,7.722-5.219,9.615,0,1.59.878,2.12,3.2,1.211l25.32-10.22-5.012,8.933c-.878,1.59-.155,2.271,1.447,1.59L8.584,5.5A4.535,4.535,0,0,0,11.116,1.491Zm-22.323-.3A134.5,134.5,0,0,1-24.591,6.715c-2.325.833-2.532.606-2.274-.379C-26.192,3.611-21.955-.4-16.323-.4-12.86-.4-11.879.507-11.207,1.188ZM11.22,11.56c-.878,1.59.052,2.12,1.5,1.514L28.427,6.488c-.413,4.694,1.6,7.116,4.909,7.116,6.149,0,14.52-4.467,22.323-8.1a4.494,4.494,0,0,0,2.48-4.012c-8.113,3.482-17.724,8.4-22.323,8.4-3.1,0-2.377-3.861-2.17-5.375L44.033-.174c3.824-1.59,2.532-4.769,2.532-4.769C42.224-3.278,33.646.885,33.646.885S32.355.431,30.6-.023c-1.705-.454-2.015,3.558-2.015,3.558L18.868,7.169,25.689-4.944c9.766-8.176,20.153-21.2,23.305-37.853.723-3.861.568-5.981-.568-5.981-1.189,0-3.049,1.968-6.3,6.965C36.8-33.56,31.011-23.567,20.108-4.338a69.68,69.68,0,0,1-14.727,8.1C2.745,4.822,2.849,7.85,2.849,7.85c5.581-2.2,11.11-4.769,14.572-7.419ZM46.565-40.677A63.677,63.677,0,0,1,29.1-11.076S37.16-25.157,41.087-32.2c3.255-5.754,5.116-8.858,5.116-8.858C46.617-41.737,46.772-41.51,46.565-40.677ZM104.337,1.491,90.075,7.245,95.19-1.764c.723-1.287,0-2.271-1.447-1.666L84.8.2C84.08-1.159,82.169-3.581,76.9-3.581c-5.012,0-8.165.681-21.031,5.981L52.714,3.762c-2.532,1.06-2.532,4.088-2.532,4.088l5.891-2.271a65.41,65.41,0,0,0,8.113-3.634C60,5.579,58.967,9.667,58.967,11.56c0,1.59.878,2.12,3.2,1.211l25.32-10.22-5.012,8.933c-.878,1.59-.155,2.271,1.447,1.59L101.8,5.5A4.535,4.535,0,0,0,104.337,1.491Zm-22.323-.3A134.494,134.494,0,0,1,68.63,6.715c-2.325.833-2.532.606-2.274-.379C67.028,3.611,71.265-.4,76.9-.4,80.36-.4,81.342.507,82.013,1.188Zm67.693.3L135.445,7.245,139.682-.25c1.6-2.877.982-3.785-2.429-2.8a157.555,157.555,0,0,0-25.217,10.22L117.1-1.689c.723-1.287.207-2.347-1.4-1.666L98.6,3.762c-2.532,1.06-2.532,4.088-2.532,4.088l13.435-5.3L104.44,11.56c-.93,1.666-.517,2.5,1.4,1.59,12.66-5.905,19.74-8.63,25.527-10.447,1.137-.379,1.4,0,.568,1.514l-4.082,7.343c-.723,1.211-.207,2.271,1.4,1.59l17.931-7.571C149.707,4.519,149.707,1.491,149.707,1.491Z" transform="translate(722.939 594.17)" fill="#fff"/>
  </g>
</svg>
